<?xml version="1.0" encoding="utf-8"?>
<!-- Generator: Adobe Illustrator 14.0.0, SVG Export Plug-In . SVG Version: 6.00 Build 43363)  -->
<!DOCTYPE svg PUBLIC "-//W3C//DTD SVG 1.1//EN" "http://www.w3.org/Graphics/SVG/1.1/DTD/svg11.dtd">
<svg version="1.1" xmlns="http://www.w3.org/2000/svg" xmlns:xlink="http://www.w3.org/1999/xlink" x="0px" y="0px" width="128px"
	 height="128px" viewBox="0 0 128 128" enable-background="new 0 0 128 128" xml:space="preserve">
<g id="Grid_Lines">
</g>
<g id="Border">
	<rect x="3.522" y="3.528" fill="none" stroke="#009B73" stroke-width="7" width="120.981" height="120.945"/>
</g>
<g id="Icon">
	<path fill="none" stroke="#000000" stroke-width="0.5" d="M42.019,72.706"/>
	<path fill="none" stroke="#000000" stroke-width="0.5" d="M44.794,67.613"/>
	<path fill="none" stroke="#000000" stroke-width="0.5" d="M25.97,69.885"/>
	<path fill="none" stroke="#000000" stroke-width="0.5" d="M29.974,74.231"/>
	<path fill="none" stroke="#000000" stroke-width="0.5" d="M56.357,74.003"/>
	<path fill="none" stroke="#000000" stroke-width="0.5" d="M53.529,79.189"/>
	<path fill="none" stroke="#000000" stroke-width="0.5" d="M71.118,74.889"/>
	<path fill="none" stroke="#000000" stroke-width="0.5" d="M66.189,71.581"/>
	<path fill="none" stroke="#000000" stroke-width="0.5" d="M84.131,44.378"/>
	<path fill="none" stroke="#000000" stroke-width="0.5" d="M89.104,47.65"/>
	<path fill="none" stroke="#000000" stroke-width="0.5" d="M98.123,45.835"/>
	<path fill="none" stroke="#000000" stroke-width="0.5" d="M101.446,40.905"/>
	<path fill="#74BB9E" stroke="#009B73" stroke-width="2" d="M41.875,72.706c0.309,0.185,11.234,6.263,11.654,6.483
		c-0.936,8.279,5.002,11.967,9.846,11.956c6.531,0.011,13.833-7.896,7.743-16.257C71.5,74.266,88.844,48.036,89.104,47.65
		c3.287,1.1,7.631,0.146,9.02-1.815c0.33,0.212,12.127,7.821,12.127,7.821s0,49.032,0,49.427c0,5.001-3.749,7.417-8.75,7.417
		c-0.354,0-76.104,0-76.469,0c-5.031,0-8.531-2.416-8.531-7.417c0-0.437,0-15.771,0-15.771s13.229-12.9,13.656-13.31
		C34,76.594,39.094,75.781,41.875,72.706z"/>
	<path fill="#A6D2C0" stroke="#009B73" stroke-width="2" d="M25.97,69.885c-0.358,0.411-9.47,8.948-9.47,8.948s0-53.114,0-55.167
		c0-5,3.5-7.083,8.5-7.083c1.156,0,75.813,0,76.5,0c5.001,0,8.75,2.083,8.75,7.083c0,0.5,0,22.75,0,22.75s-8.194-5.125-8.804-5.512
		c1.074-4.676-1.426-12.551-9.737-12.571c-10.251-0.063-11.917,11.646-7.578,16.045c-0.506,0.778-17.615,26.715-17.941,27.203
		c-3.064-0.862-7.346,0-9.832,2.422c-0.42-0.19-10.836-6.003-11.563-6.39C45.969,64,43.688,55.813,35.15,55.667
		C27.875,55.729,23.313,62.78,25.97,69.885z"/>
</g>
</svg>
