<?xml version="1.0" encoding="utf-8"?>
<!-- Generator: Adobe Illustrator 14.0.0, SVG Export Plug-In . SVG Version: 6.00 Build 43363)  -->
<!DOCTYPE svg PUBLIC "-//W3C//DTD SVG 1.1//EN" "http://www.w3.org/Graphics/SVG/1.1/DTD/svg11.dtd">
<svg version="1.1" id="Byrne-Systems" xmlns="http://www.w3.org/2000/svg" xmlns:xlink="http://www.w3.org/1999/xlink" x="0px"
	 y="0px" width="1200px" height="118.741px" viewBox="0 0 1200 118.741" enable-background="new 0 0 1200 118.741"
	 xml:space="preserve">
<g>
	<g>
		<polygon fill="#49BBCD" points="51.357,0 0,29.274 25.615,44.228 51.357,29.274 77.037,44.228 102.4,29.274 		"/>
		<polygon fill="#FFFFFF" points="51.199,59.559 77.037,44.228 51.357,29.274 25.615,44.228 		"/>
		<polygon fill="#738387" points="51.357,88.834 25.615,73.881 25.615,44.228 51.389,59.559 		"/>
		<polygon fill="#A8BFCC" points="51.389,59.559 51.357,88.834 77.037,73.881 77.037,44.228 		"/>
		<polygon fill="#286260" points="0.094,88.834 0.094,29.274 25.711,44.228 25.711,73.881 51.452,88.834 51.452,118.741 		"/>
		<polygon fill="#378A8F" points="76.942,73.881 76.942,44.228 102.305,29.274 102.305,88.834 51.263,118.741 51.263,88.834 		"/>
	</g>
	<g>
		<path d="M122.604,27.248h65.356c11.261,0,16.892,5.221,16.892,15.663c0,4.264-0.916,7.613-2.746,10.046
			c-1.833,2.432-4.47,3.977-7.914,4.633c3.388,0.656,6.012,2.296,7.872,4.92c1.857,2.624,2.788,6.261,2.788,10.906
			c0,10.442-5.631,15.661-16.892,15.661h-65.356V27.248z M137.692,74.727h46.249c3.333,0,5.002-1.558,5.002-4.674
			c0-3.553-1.669-5.33-5.002-5.33h-35.671v-13.12h35.671c3.333,0,5.002-1.762,5.002-5.286c0-3.036-1.669-4.554-5.002-4.554h-46.249
			V74.727z"/>
		<path d="M297.267,27.248v31.079c0,4.811-0.684,9.116-2.05,12.916c-1.367,3.8-3.376,7.025-6.027,9.676
			c-2.653,2.652-5.892,4.673-9.718,6.067c-3.827,1.394-8.2,2.09-13.12,2.09h-50.431V74.399h50.103c4.592,0,8.077-0.778,10.455-2.336
			c2.378-1.559,4.005-3.84,4.879-6.848h-65.437V27.248h15.087v23.945h51.17V27.248H297.267z"/>
		<path d="M330.231,51.193h35.098c3.06,0,5.452-0.807,7.175-2.42c1.722-1.611,2.829-3.948,3.321-7.011h-52.563v47.314h-15.088
			V27.248h82.166v11.809c0,15.636-7.599,24.246-22.796,25.83l23.535,24.19h-18.206l-23.863-23.944h-18.778V51.193z"/>
		<path d="M485.051,89.077h-15.908c-8.475-11.698-16.826-21.237-25.052-28.618c-8.228-7.381-16.332-12.628-24.314-15.743
			c-0.601-0.218-1.244-0.452-1.927-0.698c-0.684-0.246-1.409-0.504-2.173-0.779c0.164,2.242,0.245,3.691,0.245,4.346v41.492h-14.678
			V27.248h12.957c4.92,1.586,9.772,3.649,14.556,6.191c4.783,2.542,9.43,5.426,13.94,8.652c4.51,3.226,8.87,6.752,13.08,10.578
			c4.209,3.828,8.228,7.819,12.054,11.973l2.707,2.952c-0.165-1.803-0.248-3.143-0.248-4.019V27.248h14.761V89.077z"/>
		<path d="M574.596,41.762h-63.469v9.431h53.875v13.939h-53.056c0.875,3.008,2.502,5.303,4.879,6.888
			c2.378,1.586,5.864,2.378,10.455,2.378h47.315v14.678h-47.643c-4.757,0-9.048-0.709-12.875-2.131
			c-3.827-1.421-7.08-3.471-9.757-6.151c-2.679-2.677-4.729-5.903-6.15-9.675c-1.422-3.772-2.132-8.037-2.132-12.792V27.248h78.557
			V41.762z"/>
	</g>
	<g>
		<path fill="#49BBCD" d="M671.172,41.763h-50.595c-6.288,0-9.841,3.145-10.661,9.431H671.5v11.808
			c0,17.384-9.403,26.077-28.208,26.077h-47.726v-14.68h50.924c3.061,0,5.453-0.791,7.176-2.378c1.721-1.584,2.829-3.881,3.32-6.888
			h-61.42V53.323c0-17.383,9.402-26.077,28.209-26.077h47.397V41.763z"/>
		<path fill="#49BBCD" d="M763.751,27.247v31.08c0,4.811-0.684,9.118-2.049,12.916c-1.367,3.799-3.376,7.025-6.027,9.676
			c-2.652,2.653-5.892,4.673-9.717,6.067c-3.828,1.396-8.2,2.093-13.121,2.093h-50.43v-14.68h50.103
			c4.591,0,8.077-0.78,10.455-2.336c2.378-1.56,4.003-3.84,4.88-6.847h-65.437V27.247h15.087v23.947h51.169V27.247H763.751z"/>
		<path fill="#49BBCD" d="M849.689,41.763h-50.596c-6.286,0-9.84,3.145-10.66,9.431h61.582v11.808
			c0,17.384-9.402,26.077-28.208,26.077h-47.725v-14.68h50.922c3.061,0,5.453-0.791,7.175-2.378c1.723-1.584,2.83-3.881,3.323-6.888
			h-61.42V53.323c0-17.383,9.401-26.077,28.209-26.077h47.396V41.763z"/>
		<path fill="#49BBCD" d="M926.197,41.763h-26.979v47.315h-15.089V41.763h-27.144V27.247h69.211V41.763z"/>
		<path fill="#49BBCD" d="M1011.56,41.763h-63.469v9.431h53.875v13.938H948.91c0.875,3.007,2.501,5.304,4.879,6.888
			c2.378,1.588,5.864,2.378,10.456,2.378h47.314v14.68h-47.643c-4.755,0-9.05-0.711-12.875-2.133
			c-3.828-1.419-7.08-3.472-9.759-6.15c-2.679-2.678-4.728-5.904-6.149-9.676c-1.423-3.771-2.132-8.037-2.132-12.792v-31.08h78.557
			V41.763z"/>
		<path fill="#49BBCD" d="M1020.006,27.247h62.13c4.594,0,8.794,0.686,12.598,2.051c3.802,1.367,7.058,3.309,9.767,5.822
			c2.709,2.515,4.814,5.509,6.319,8.98c1.505,3.473,2.258,7.286,2.258,11.44v33.539h-15.088V58.079
			c0-10.876-5.297-16.316-15.888-16.316h-47.008v47.315h-15.088V27.247z M1057.972,49.39h15.089v39.688h-15.089V49.39z"/>
		<path fill="#49BBCD" d="M1199.671,41.763h-50.595c-6.286,0-9.84,3.145-10.66,9.431H1200v11.808
			c0,17.384-9.404,26.077-28.21,26.077h-47.724v-14.68h50.923c3.062,0,5.452-0.791,7.175-2.378c1.723-1.584,2.829-3.881,3.322-6.888
			h-61.42V53.323c0-17.383,9.402-26.077,28.209-26.077h47.396V41.763z"/>
	</g>
</g>
</svg>
