<?xml version="1.0" encoding="utf-8"?>
<!-- Generator: Adobe Illustrator 14.0.0, SVG Export Plug-In . SVG Version: 6.00 Build 43363)  -->
<!DOCTYPE svg PUBLIC "-//W3C//DTD SVG 1.1//EN" "http://www.w3.org/Graphics/SVG/1.1/DTD/svg11.dtd">
<svg version="1.1" xmlns="http://www.w3.org/2000/svg" xmlns:xlink="http://www.w3.org/1999/xlink" x="0px" y="0px"
	 width="465.458px" height="100px" viewBox="0 0 465.458 100" enable-background="new 0 0 465.458 100" xml:space="preserve">
<g id="Drop-Shadow">
</g>
<g id="Cube">
	<polygon fill="#49BBCD" points="43.252,0 0,24.654 21.573,37.248 43.252,24.654 64.878,37.248 86.238,24.654 	"/>
	<polygon fill="#FFFFFF" points="43.119,50.159 64.878,37.248 43.252,24.654 21.573,37.248 	"/>
	<polygon fill="#738387" points="43.252,74.813 21.573,62.221 21.573,37.248 43.278,50.159 	"/>
	<polygon fill="#A8BFCC" points="43.278,50.159 43.252,74.813 64.878,62.221 64.878,37.248 	"/>
	<polygon fill="#27615F" points="0.08,74.813 0.08,24.654 21.652,37.248 21.652,62.221 43.332,74.813 43.332,100 	"/>
	<polygon fill="#368A8F" points="64.798,62.221 64.798,37.248 86.158,24.654 86.158,74.813 43.172,100 43.172,74.813 	"/>
</g>
<g id="Byrne-Systems">
	<g>
		<path fill="#242424" d="M97.056,9.366h39.384c6.786,0,10.18,3.146,10.18,9.438c0,2.57-0.552,4.588-1.655,6.054
			c-1.104,1.466-2.693,2.396-4.769,2.792c2.042,0.395,3.623,1.383,4.744,2.965c1.12,1.581,1.68,3.772,1.68,6.572
			c0,6.292-3.394,9.438-10.18,9.438H97.056V9.366z M106.149,37.978h27.87c2.009,0,3.015-0.939,3.015-2.817
			c0-2.141-1.005-3.212-3.015-3.212h-21.496v-7.906h21.496c2.009,0,3.015-1.062,3.015-3.186c0-1.829-1.005-2.744-3.015-2.744h-27.87
			V37.978z"/>
		<path fill="#242424" d="M202.311,9.366v18.729c0,2.899-0.412,5.494-1.235,7.783c-0.824,2.29-2.035,4.233-3.632,5.831
			c-1.599,1.598-3.55,2.816-5.856,3.657c-2.306,0.84-4.941,1.26-7.906,1.26h-30.391V37.78h30.193c2.767,0,4.867-0.469,6.3-1.408
			s2.413-2.314,2.94-4.126h-39.434V9.366h9.092v14.43h30.835V9.366H202.311z"/>
		<path fill="#242424" d="M222.176,23.796h21.15c1.844,0,3.286-0.486,4.324-1.458c1.038-0.971,1.705-2.379,2.001-4.225h-31.675
			v28.513h-9.093V9.366h49.514v7.116c0,9.422-4.579,14.611-13.737,15.565l14.183,14.578h-10.971l-14.38-14.429h-11.316V23.796z"/>
		<path fill="#242424" d="M315.472,46.625h-9.586c-5.107-7.049-10.139-12.798-15.097-17.246c-4.958-4.447-9.842-7.61-14.652-9.487
			c-0.363-0.131-0.75-0.272-1.161-0.42c-0.412-0.148-0.849-0.304-1.31-0.469c0.099,1.351,0.148,2.224,0.148,2.619v25.004h-8.845
			V9.366h7.808c2.965,0.956,5.889,2.199,8.771,3.731c2.882,1.532,5.683,3.27,8.4,5.213c2.718,1.944,5.345,4.069,7.882,6.375
			c2.537,2.307,4.958,4.712,7.264,7.215l1.631,1.779c-0.099-1.087-0.148-1.894-0.148-2.421V9.366h8.895V46.625z"/>
		<path fill="#242424" d="M369.433,18.113h-38.248v5.683h32.466v8.4H331.68c0.527,1.813,1.507,3.196,2.94,4.151
			c1.433,0.956,3.534,1.433,6.301,1.433h28.513v8.845h-28.71c-2.866,0-5.453-0.428-7.758-1.285c-2.306-0.856-4.267-2.092-5.88-3.706
			c-1.614-1.614-2.85-3.558-3.706-5.831c-0.857-2.273-1.285-4.843-1.285-7.709V9.366h47.34V18.113z"/>
	</g>
	<g>
		<path fill="#49BBCD" d="M146.735,60.514h-30.489c-3.789,0-5.93,1.895-6.424,5.683h37.111v7.116
			c0,10.476-5.667,15.714-16.999,15.714h-28.76v-8.846h30.687c1.844,0,3.286-0.477,4.324-1.434c1.038-0.954,1.705-2.338,2.001-4.15
			h-37.012V67.48c0-10.476,5.666-15.714,16.999-15.714h28.562V60.514z"/>
		<path fill="#49BBCD" d="M202.524,51.767v18.729c0,2.899-0.412,5.494-1.235,7.783c-0.824,2.29-2.035,4.233-3.632,5.831
			c-1.598,1.599-3.55,2.816-5.855,3.656c-2.307,0.841-4.941,1.261-7.907,1.261h-30.39v-8.846h30.193c2.767,0,4.867-0.47,6.3-1.408
			c1.433-0.939,2.413-2.313,2.94-4.126h-39.434v-22.88h9.092v14.43h30.835v-14.43H202.524z"/>
		<path fill="#49BBCD" d="M254.312,60.514h-30.49c-3.789,0-5.93,1.895-6.424,5.683h37.111v7.116
			c0,10.476-5.667,15.714-16.999,15.714h-28.759v-8.846h30.687c1.845,0,3.286-0.477,4.324-1.434c1.038-0.954,1.705-2.338,2.001-4.15
			h-37.012V67.48c0-10.476,5.666-15.714,16.999-15.714h28.563V60.514z"/>
		<path fill="#49BBCD" d="M300.416,60.514h-16.258v28.513h-9.093V60.514h-16.356v-8.747h41.707V60.514z"/>
		<path fill="#49BBCD" d="M351.857,60.514h-38.248v5.683h32.466v8.4h-31.972c0.527,1.813,1.507,3.196,2.94,4.15
			c1.433,0.957,3.533,1.434,6.3,1.434h28.513v8.846h-28.71c-2.866,0-5.453-0.428-7.758-1.285c-2.307-0.855-4.267-2.092-5.881-3.706
			s-2.85-3.558-3.706-5.831c-0.857-2.272-1.285-4.843-1.285-7.709V51.767h47.34V60.514z"/>
		<path fill="#49BBCD" d="M356.946,51.767h37.441c2.769,0,5.3,0.413,7.591,1.235c2.292,0.824,4.254,1.994,5.886,3.509
			c1.632,1.516,2.901,3.319,3.808,5.411c0.906,2.093,1.36,4.391,1.36,6.894v20.211h-9.092v-18.68c0-6.555-3.192-9.833-9.574-9.833
			h-28.328v28.513h-9.093V51.767z M379.826,65.109h9.093v23.917h-9.093V65.109z"/>
		<path fill="#49BBCD" d="M465.215,60.514h-30.489c-3.789,0-5.93,1.895-6.424,5.683h37.111v7.116
			c0,10.476-5.667,15.714-16.999,15.714h-28.76v-8.846h30.687c1.845,0,3.286-0.477,4.324-1.434c1.038-0.954,1.705-2.338,2.002-4.15
			h-37.013V67.48c0-10.476,5.666-15.714,16.999-15.714h28.562V60.514z"/>
	</g>
</g>
</svg>
