<?xml version="1.0" encoding="utf-8"?>
<!-- Generator: Adobe Illustrator 14.0.0, SVG Export Plug-In . SVG Version: 6.00 Build 43363)  -->
<!DOCTYPE svg PUBLIC "-//W3C//DTD SVG 1.1//EN" "http://www.w3.org/Graphics/SVG/1.1/DTD/svg11.dtd">
<svg version="1.1" id="Layer_1" xmlns="http://www.w3.org/2000/svg" xmlns:xlink="http://www.w3.org/1999/xlink" x="0px" y="0px"
	 width="122.233px" height="142px" viewBox="0 0 122.233 142" enable-background="new 0 0 122.233 142" xml:space="preserve">
<polygon fill="#4069B2" points="61.102,0.203 0.166,35.225 61.102,71.334 122.034,35.225 "/>
<polygon fill="#2F507F" points="0.039,35.224 61.102,71.408 61.102,142 0.039,106.384 "/>
<polygon fill="#396099" points="122.161,35.224 122.161,106.384 61.102,142 61.102,71.408 "/>
<polygon fill="#46BDCF" points="61.102,35.224 30.224,53.112 61.102,71.408 91.977,53.112 "/>
<polygon fill="#368F99" points="30.224,53.112 61.102,71.408 61.102,106.384 30.221,88.52 "/>
<polygon fill="#3FA7B2" points="91.977,53.112 61.102,71.408 61.102,106.384 91.977,88.52 "/>
<g>
	<polygon fill="#CAEAEF" points="18.54,46.187 30.224,53.112 30.221,88.52 18.54,96.098 	"/>
	<polygon fill="#D2EDF3" points="103.664,46.187 103.664,96.098 91.977,88.52 91.977,53.112 	"/>
	<polygon fill="#EDF7F9" points="61.102,21.409 61.102,35.224 91.977,53.112 103.664,46.187 	"/>
	<polygon fill="#EDF7F9" points="61.102,21.409 61.102,35.224 30.224,53.112 18.54,46.187 	"/>
	<polygon fill="#99CCCC" points="30.221,88.52 61.102,106.384 61.1,120.721 18.54,96.098 	"/>
	<polygon fill="#99CCCC" points="61.102,106.384 61.1,120.721 103.664,96.098 91.977,88.52 	"/>
</g>
<line opacity="0.1" fill="none" stroke="#283A8F" stroke-width="0.25" stroke-linecap="round" stroke-linejoin="round" x1="18.54" y1="96.098" x2="30.221" y2="88.52"/>
<line opacity="0.1" fill="none" stroke="#283A8F" stroke-width="0.25" stroke-linejoin="bevel" x1="91.977" y1="53.112" x2="103.664" y2="46.187"/>
<line opacity="0.1" fill="none" stroke="#283A8F" stroke-width="0.25" stroke-linecap="round" stroke-linejoin="round" x1="30.224" y1="53.112" x2="18.54" y2="46.187"/>
<line opacity="0.1" fill="none" stroke="#283A8F" stroke-width="0.25" stroke-linecap="round" stroke-linejoin="round" stroke-miterlimit="1" x1="103.664" y1="96.098" x2="91.977" y2="88.52"/>
<line opacity="0.1" fill="none" stroke="#283A8F" stroke-width="0.25" stroke-linecap="round" stroke-linejoin="round" x1="61.102" y1="21.409" x2="61.102" y2="35.235"/>
<line opacity="0.2" fill="none" stroke="#283A8F" stroke-width="0.25" stroke-linecap="round" stroke-linejoin="round" stroke-miterlimit="1" x1="61.102" y1="106.384" x2="61.1" y2="120.721"/>
</svg>
