<?xml version="1.0" encoding="utf-8"?>
<!-- Generator: Adobe Illustrator 14.0.0, SVG Export Plug-In . SVG Version: 6.00 Build 43363)  -->
<!DOCTYPE svg PUBLIC "-//W3C//DTD SVG 1.1//EN" "http://www.w3.org/Graphics/SVG/1.1/DTD/svg11.dtd">
<svg version="1.1" id="Layer_1" xmlns="http://www.w3.org/2000/svg" xmlns:xlink="http://www.w3.org/1999/xlink" x="0px" y="0px"
	 width="1034px" height="216px" viewBox="0 0 1034 216" enable-background="new 0 0 1034 216" xml:space="preserve">
<g>
	<polygon fill="#4069B2" points="93.054,0.026 0.264,53.355 93.054,108.341 185.839,53.355 	"/>
	<polygon fill="#2F507F" points="0.073,53.354 93.054,108.453 93.054,215.947 0.073,161.713 	"/>
	<polygon fill="#396099" points="186.031,53.354 186.031,161.713 93.054,215.947 93.054,108.453 	"/>
	<polygon fill="#46BDCF" points="93.054,53.354 46.037,80.591 93.054,108.453 140.07,80.591 	"/>
	<polygon fill="#368F99" points="46.037,80.591 93.054,108.453 93.054,161.713 46.033,134.509 	"/>
	<polygon fill="#3FA7B2" points="140.07,80.591 93.054,108.453 93.054,161.713 140.07,134.509 	"/>
	<g>
		<polygon fill="#CAEAEF" points="28.245,70.048 46.037,80.591 46.033,134.509 28.245,146.049 		"/>
		<polygon fill="#D2EDF3" points="157.865,70.048 157.865,146.049 140.07,134.509 140.07,80.591 		"/>
		<polygon fill="#EDF7F9" points="93.054,32.317 93.054,53.354 140.07,80.591 157.865,70.048 		"/>
		<polygon fill="#EDF7F9" points="93.054,32.317 93.054,53.354 46.037,80.591 28.245,70.048 		"/>
		<polygon fill="#99CCCC" points="46.033,134.509 93.054,161.713 93.05,183.542 28.245,146.049 		"/>
		<polygon fill="#99CCCC" points="93.054,161.713 93.05,183.542 157.865,146.049 140.07,134.509 		"/>
	</g>
	
		<line opacity="0.1" fill="none" stroke="#283A8F" stroke-width="0.25" stroke-linecap="round" stroke-linejoin="round" x1="28.245" y1="146.049" x2="46.033" y2="134.509"/>
	
		<line opacity="0.1" fill="none" stroke="#283A8F" stroke-width="0.25" stroke-linejoin="bevel" x1="140.07" y1="80.591" x2="157.865" y2="70.048"/>
	
		<line opacity="0.1" fill="none" stroke="#283A8F" stroke-width="0.25" stroke-linecap="round" stroke-linejoin="round" x1="46.037" y1="80.591" x2="28.245" y2="70.048"/>
	
		<line opacity="0.1" fill="none" stroke="#283A8F" stroke-width="0.25" stroke-linecap="round" stroke-linejoin="round" stroke-miterlimit="1" x1="157.865" y1="146.049" x2="140.07" y2="134.509"/>
	
		<line opacity="0.1" fill="none" stroke="#283A8F" stroke-width="0.25" stroke-linecap="round" stroke-linejoin="round" x1="93.054" y1="32.317" x2="93.054" y2="53.37"/>
	
		<line opacity="0.2" fill="none" stroke="#283A8F" stroke-width="0.25" stroke-linecap="round" stroke-linejoin="round" stroke-miterlimit="1" x1="93.054" y1="161.713" x2="93.05" y2="183.542"/>
	<g>
		<g>
			<path fill="#171820" d="M208.253,22.972h88.299c15.209,0,22.816,7.052,22.816,21.159c0,5.761-1.236,10.285-3.709,13.573
				c-2.477,3.286-6.035,5.374-10.689,6.258c4.576,0.888,8.121,3.102,10.633,6.65c2.512,3.543,3.766,8.458,3.766,14.732
				c0,14.108-7.607,21.159-22.816,21.159h-88.299V22.972z M228.638,87.115h62.48c4.506,0,6.76-2.105,6.76-6.315
				c0-4.8-2.254-7.199-6.76-7.199h-48.189V55.875h48.189c4.506,0,6.76-2.381,6.76-7.143c0-4.101-2.254-6.151-6.76-6.151h-62.48
				V87.115z"/>
			<path fill="#171820" d="M444.226,22.972V64.96c0,6.498-0.93,12.316-2.771,17.449c-1.85,5.132-4.563,9.491-8.143,13.071
				c-3.588,3.583-7.961,6.315-13.131,8.197c-5.172,1.887-11.078,2.826-17.723,2.826h-68.135v-19.83h67.689
				c6.205,0,10.914-1.051,14.125-3.158c3.215-2.104,5.412-5.186,6.592-9.25h-88.406V22.972h20.387v32.351h69.129V22.972H444.226z"/>
			<path fill="#171820" d="M488.757,55.323h47.418c4.135,0,7.365-1.089,9.693-3.271c2.326-2.178,3.818-5.333,4.486-9.471h-71.016
				v63.921h-20.381V22.972h111.004v15.954c0,21.122-10.268,32.756-30.793,34.896l31.791,32.682h-24.594l-32.242-32.348h-25.367
				V55.323z"/>
			<path fill="#171820" d="M697.919,106.502h-21.492c-11.449-15.804-22.73-28.691-33.844-38.664
				c-11.115-9.97-22.066-17.062-32.848-21.269c-0.818-0.295-1.682-0.611-2.609-0.943c-0.922-0.331-1.896-0.681-2.932-1.054
				c0.221,3.031,0.33,4.988,0.33,5.874v56.056h-19.828V22.972h17.504c6.645,2.145,13.203,4.931,19.666,8.365
				c6.461,3.433,12.736,7.329,18.83,11.687c6.096,4.361,11.98,9.123,17.668,14.292c5.691,5.171,11.117,10.563,16.287,16.177
				l3.658,3.986c-0.219-2.437-0.334-4.247-0.334-5.428V22.972h19.943V106.502z"/>
			<path fill="#171820" d="M818.892,42.581h-85.744v12.742h72.783v18.832h-71.68c1.186,4.063,3.383,7.162,6.594,9.308
				c3.215,2.14,7.92,3.21,14.125,3.21h63.922v19.83h-64.363c-6.424,0-12.225-0.958-17.395-2.879
				c-5.17-1.919-9.568-4.69-13.184-8.309c-3.619-3.617-6.387-7.975-8.307-13.071c-1.926-5.096-2.881-10.859-2.881-17.283V22.972
				h106.129V42.581z"/>
		</g>
		<g>
			<path fill="#171820" d="M319.626,137.64h-68.354c-8.494,0-13.291,4.244-14.396,12.739h83.199v15.952
				c0,23.487-12.709,35.229-38.113,35.229h-64.479v-19.832h68.799c4.133,0,7.369-1.066,9.691-3.209
				c2.328-2.144,3.822-5.246,4.486-9.308h-82.977v-15.954c0-23.486,12.701-35.229,38.109-35.229h64.033V137.64z"/>
			<path fill="#171820" d="M444.703,118.028v41.99c0,6.498-0.926,12.316-2.768,17.448c-1.852,5.134-4.563,9.491-8.148,13.073
				c-3.582,3.584-7.955,6.313-13.125,8.195c-5.172,1.885-11.078,2.826-17.727,2.826h-68.131v-19.832h67.689
				c6.205,0,10.91-1.054,14.125-3.155c3.215-2.107,5.404-5.187,6.592-9.251h-88.406v-51.294h20.387v32.351h69.129v-32.351H444.703z"
				/>
			<path fill="#171820" d="M560.802,137.64h-68.352c-8.496,0-13.295,4.244-14.402,12.739h83.195v15.952
				c0,23.487-12.699,35.229-38.107,35.229H458.66v-19.832h68.799c4.135,0,7.367-1.066,9.691-3.209
				c2.33-2.144,3.822-5.246,4.49-9.308h-82.98v-15.954c0-23.486,12.705-35.229,38.111-35.229h64.031V137.64z"/>
			<path fill="#171820" d="M664.164,137.64h-36.447v63.92H607.33v-63.92h-36.67v-19.612h93.504V137.64z"/>
			<path fill="#171820" d="M779.488,137.64h-85.744v12.739h72.783v18.832h-71.678c1.184,4.062,3.381,7.164,6.594,9.308
				c3.209,2.144,7.92,3.209,14.121,3.209h63.924v19.832h-64.363c-6.424,0-12.225-0.959-17.393-2.879
				c-5.174-1.922-9.568-4.691-13.182-8.307c-3.623-3.619-6.387-7.98-8.311-13.077c-1.922-5.092-2.881-10.858-2.881-17.28v-41.99
				h106.129V137.64z"/>
			<path fill="#171820" d="M790.9,118.028h83.938c6.207,0,11.881,0.926,17.018,2.77c5.143,1.849,9.539,4.472,13.195,7.868
				c3.66,3.398,6.506,7.441,8.539,12.13c2.031,4.694,3.053,9.842,3.053,15.456v45.31h-20.383v-41.877
				c0-14.692-7.16-22.042-21.469-22.042h-63.508v63.92H790.9V118.028z M842.191,147.944h20.389v53.616h-20.389V147.944z"/>
			<path fill="#171820" d="M1033.626,137.64h-68.352c-8.494,0-13.297,4.244-14.402,12.739h83.201v15.952
				c0,23.487-12.711,35.229-38.113,35.229h-64.473v-19.832h68.793c4.135,0,7.367-1.066,9.691-3.209
				c2.33-2.144,3.822-5.246,4.49-9.308h-82.975v-15.954c0-23.486,12.699-35.229,38.107-35.229h64.031V137.64z"/>
		</g>
	</g>
	<g>
		<g>
			<path fill="#2F507F" stroke="#19191A" stroke-width="0.75" stroke-linecap="round" stroke-linejoin="round" d="M205.341,18.9
				h88.295c15.213,0,22.822,7.054,22.822,21.159c0,5.762-1.234,10.285-3.713,13.572c-2.475,3.286-6.039,5.373-10.689,6.259
				c4.576,0.886,8.123,3.101,10.633,6.646c2.51,3.544,3.77,8.458,3.77,14.735c0,14.107-7.609,21.157-22.822,21.157h-88.295V18.9z
				 M225.726,83.042h62.48c4.504,0,6.76-2.104,6.76-6.312c0-4.804-2.256-7.202-6.76-7.202h-48.189V51.804h48.189
				c4.504,0,6.76-2.381,6.76-7.142c0-4.103-2.256-6.155-6.76-6.155h-62.48V83.042z"/>
			<path fill="#2F507F" stroke="#19191A" stroke-width="0.75" stroke-linecap="round" stroke-linejoin="round" d="M441.31,18.9
				v41.988c0,6.5-0.926,12.316-2.771,17.447c-1.846,5.136-4.561,9.492-8.141,13.075c-3.584,3.582-7.959,6.313-13.131,8.197
				c-5.166,1.882-11.072,2.823-17.721,2.823h-68.135v-19.83h67.691c6.201,0,10.91-1.053,14.123-3.157
				c3.211-2.105,5.408-5.186,6.592-9.25h-88.406V18.9h20.385v32.351h69.127V18.9H441.31z"/>
			<path fill="#2F507F" stroke="#19191A" stroke-width="0.75" stroke-linecap="round" stroke-linejoin="round" d="M485.845,51.251
				h47.414c4.139,0,7.367-1.091,9.695-3.269c2.328-2.176,3.824-5.333,4.486-9.475h-71.01v63.923h-20.387V18.9h111.004v15.954
				c0,21.123-10.264,32.755-30.797,34.896l31.795,32.68h-24.594l-32.238-32.348h-25.369V51.251z"/>
			<path fill="#2F507F" stroke="#19191A" stroke-width="0.75" stroke-linecap="round" stroke-linejoin="round" d="M695.003,102.43
				h-21.488c-11.451-15.802-22.732-28.69-33.846-38.665c-11.113-9.97-22.068-17.061-32.85-21.268
				c-0.813-0.293-1.68-0.609-2.602-0.943c-0.924-0.332-1.9-0.68-2.938-1.051c0.223,3.029,0.33,4.986,0.33,5.871v56.056h-19.828V18.9
				h17.506c6.646,2.143,13.201,4.929,19.662,8.363c6.465,3.437,12.74,7.333,18.834,11.689c6.096,4.359,11.984,9.122,17.674,14.291
				c5.684,5.17,11.113,10.562,16.281,16.175l3.658,3.986c-0.221-2.438-0.336-4.246-0.336-5.427V18.9h19.941V102.43z"/>
			<path fill="#2F507F" stroke="#19191A" stroke-width="0.75" stroke-linecap="round" stroke-linejoin="round" d="M815.98,38.507
				h-85.746v12.744h72.781v18.831h-71.674c1.18,4.064,3.379,7.165,6.592,9.308s7.924,3.211,14.125,3.211h63.922v19.83h-64.367
				c-6.426,0-12.223-0.958-17.393-2.879c-5.17-1.919-9.564-4.689-13.184-8.308c-3.617-3.62-6.389-7.977-8.305-13.074
				c-1.924-5.095-2.883-10.856-2.883-17.281V18.9H815.98V38.507z"/>
		</g>
		<g>
			<path fill="#49BBCD" stroke="#19191A" stroke-width="0.75" stroke-linecap="round" stroke-linejoin="round" d="M316.714,133.568
				h-68.354c-8.494,0-13.295,4.25-14.4,12.742h83.199v15.951c0,23.485-12.705,35.229-38.109,35.229h-64.48v-19.831h68.795
				c4.139,0,7.371-1.07,9.697-3.211c2.326-2.146,3.824-5.245,4.488-9.309h-82.98v-15.951c0-23.484,12.705-35.229,38.113-35.229
				h64.031V133.568z"/>
			<path fill="#49BBCD" stroke="#19191A" stroke-width="0.75" stroke-linecap="round" stroke-linejoin="round" d="M441.789,113.958
				v41.986c0,6.501-0.924,12.318-2.77,17.452c-1.846,5.132-4.563,9.49-8.143,13.073c-3.584,3.582-7.959,6.311-13.125,8.193
				c-5.172,1.889-11.076,2.828-17.729,2.828H331.89v-19.831h67.689c6.201,0,10.914-1.052,14.123-3.156
				c3.215-2.111,5.41-5.189,6.596-9.254H331.89v-51.291h20.383v32.353h69.131v-32.353H441.789z"/>
			<path fill="#49BBCD" stroke="#19191A" stroke-width="0.75" stroke-linecap="round" stroke-linejoin="round" d="M557.89,133.568
				h-68.352c-8.496,0-13.297,4.25-14.404,12.742h83.203v15.951c0,23.485-12.709,35.229-38.113,35.229h-64.477v-19.831h68.799
				c4.135,0,7.365-1.07,9.689-3.211c2.33-2.146,3.822-5.245,4.488-9.309h-82.977v-15.951c0-23.484,12.701-35.229,38.111-35.229
				h64.031V133.568z"/>
			<path fill="#49BBCD" stroke="#19191A" stroke-width="0.75" stroke-linecap="round" stroke-linejoin="round" d="M661.251,133.568
				h-36.447v63.921h-20.387v-63.921h-36.67v-19.611h93.504V133.568z"/>
			<path fill="#49BBCD" stroke="#19191A" stroke-width="0.75" stroke-linecap="round" stroke-linejoin="round" d="M776.576,133.568
				h-85.748v12.742h72.785v18.828h-71.678c1.186,4.064,3.379,7.163,6.592,9.309c3.213,2.142,7.924,3.211,14.129,3.211h63.92v19.831
				h-64.361c-6.426,0-12.229-0.961-17.396-2.883c-5.172-1.916-9.564-4.693-13.184-8.307c-3.617-3.619-6.389-7.978-8.307-13.074
				c-1.922-5.094-2.885-10.857-2.885-17.282v-41.986h106.133V133.568z"/>
			<path fill="#49BBCD" stroke="#19191A" stroke-width="0.75" stroke-linecap="round" stroke-linejoin="round" d="M787.986,113.958
				h83.938c6.209,0,11.881,0.924,17.021,2.771c5.135,1.847,9.535,4.469,13.197,7.867c3.658,3.395,6.506,7.439,8.537,12.127
				c2.031,4.694,3.049,9.845,3.049,15.46v45.308h-20.385v-41.877c0-14.694-7.156-22.044-21.465-22.044h-63.51v63.921h-20.383
				V113.958z M839.279,143.872h20.385v53.618h-20.385V143.872z"/>
			<path fill="#49BBCD" stroke="#19191A" stroke-width="0.75" stroke-linecap="round" stroke-linejoin="round" d="M1030.714,133.568
				h-68.355c-8.492,0-13.291,4.25-14.398,12.742h83.195v15.951c0,23.485-12.705,35.229-38.111,35.229H928.57v-19.831h68.797
				c4.141,0,7.367-1.07,9.695-3.211c2.326-2.146,3.822-5.245,4.486-9.309H928.57v-15.951c0-23.484,12.703-35.229,38.109-35.229
				h64.035V133.568z"/>
		</g>
	</g>
</g>
</svg>
