<?xml version="1.0" encoding="utf-8"?>
<!-- Generator: Adobe Illustrator 16.0.0, SVG Export Plug-In . SVG Version: 6.00 Build 0)  -->
<!DOCTYPE svg PUBLIC "-//W3C//DTD SVG 1.1//EN" "http://www.w3.org/Graphics/SVG/1.1/DTD/svg11.dtd">
<svg version="1.1" id="Byrne-Systems_Logo" xmlns="http://www.w3.org/2000/svg" xmlns:xlink="http://www.w3.org/1999/xlink" x="0px"
	 y="0px" width="1330px" height="305px" viewBox="0 0 1330 305" enable-background="new 0 0 1330 305" xml:space="preserve">
<g id="Characters">
	<g display="none" opacity="0.3">
		
			<rect x="276" y="48" display="inline" fill="#6DBE45" stroke="#19191A" stroke-width="1.0627" stroke-linecap="round" stroke-linejoin="round" width="867.811" height="98"/>
		
			<rect x="276" y="160" display="inline" fill="#6DBE45" stroke="#19191A" stroke-width="1.0627" stroke-linecap="round" stroke-linejoin="round" width="867.811" height="98"/>
	</g>
	<g id="Shadows">
		<g id="Systems_7_">
			<path id="S_29_" fill="#171820" d="M1299.941,192.618h-80.309c-9.977,0-15.614,4.99-16.916,14.968h97.745v18.74
				c0,27.593-14.927,41.392-44.774,41.392h-75.749v-23.302h80.826c4.858,0,8.655-1.254,11.388-3.774
				c2.735-2.516,4.489-6.161,5.272-10.934h-97.486v-18.743c0-27.59,14.924-41.39,44.771-41.39h75.231V192.618z"/>
			<path id="M_11_" fill="#171820" d="M1014.771,169.576h98.613c7.293,0,13.96,1.088,19.997,3.256
				c6.034,2.17,11.204,5.252,15.504,9.241c4.298,3.991,7.641,8.743,10.03,14.252c2.387,5.513,3.583,11.565,3.583,18.16v53.233
				h-23.95v-49.202c0-17.263-8.406-25.897-25.217-25.897h-74.613v75.1h-23.947V169.576z M1075.031,204.724h23.951v62.994h-23.951
				V204.724z"/>
			<path id="E_19_" fill="#171820" d="M1001.365,192.618H900.624v14.968h85.513v22.122h-84.211
				c1.388,4.772,3.969,8.417,7.744,10.934c3.773,2.52,9.305,3.774,16.595,3.774h75.101v23.302h-75.622
				c-7.548,0-14.361-1.13-20.433-3.387c-6.076-2.253-11.239-5.512-15.491-9.761c-4.252-4.251-7.504-9.372-9.759-15.358
				c-2.26-5.986-3.387-12.755-3.387-20.303v-49.333h124.691V192.618z"/>
			<path id="T_9_" fill="#171820" d="M865.876,192.618h-42.824v75.1H799.1v-75.1h-43.079v-23.042h109.855V192.618z"/>
			<path id="S_28_" fill="#171820" d="M744.438,192.618h-80.308c-9.978,0-15.616,4.99-16.918,14.968h97.746v18.74
				c0,27.593-14.926,41.392-44.773,41.392h-75.752v-23.302h80.829c4.858,0,8.655-1.254,11.387-3.774
				c2.733-2.516,4.49-6.161,5.273-10.934h-97.489v-18.743c0-27.59,14.924-41.39,44.776-41.39h75.229V192.618z"/>
			<path id="Y_19_" fill="#171820" d="M608.034,169.576v49.333c0,7.634-1.084,14.47-3.253,20.499
				c-2.171,6.029-5.359,11.151-9.566,15.357c-4.21,4.212-9.351,7.417-15.423,9.631c-6.074,2.214-13.016,3.323-20.826,3.323H478.92
				v-23.302h79.525c7.288,0,12.821-1.235,16.594-3.707c3.775-2.478,6.354-6.096,7.747-10.869H478.92v-60.265h23.949v38.011h81.217
				v-38.011H608.034z"/>
			<path id="S_27_" fill="#171820" d="M461.089,192.618h-80.306c-9.981,0-15.619,4.99-16.919,14.968h97.748v18.74
				c0,27.593-14.928,41.392-44.776,41.392h-75.75v-23.302h80.828c4.858,0,8.654-1.254,11.387-3.774
				c2.734-2.516,4.492-6.161,5.273-10.934h-97.488v-18.743c0-27.59,14.923-41.39,44.773-41.39h75.231V192.618z"/>
		</g>
		<g id="Byrne_7_">
			<path id="E_18_" fill="#171820" d="M1001.66,74H900.809v14.987h85.608v22.149H902.11c1.392,4.781,3.976,8.427,7.755,10.947
				c3.777,2.52,9.319,3.777,16.612,3.777h75.183v23.323h-75.701c-7.562,0-14.38-1.129-20.463-3.389
				c-6.079-2.256-11.247-5.515-15.502-9.772c-4.259-4.254-7.515-9.381-9.771-15.374c-2.262-5.993-3.389-12.771-3.389-20.328V50.938
				h124.826V74z"/>
			<path id="N_9_" fill="#171820" d="M859.375,149.184h-25.277c-13.468-18.587-26.736-33.746-39.808-45.477
				c-13.076-11.726-25.954-20.065-38.638-25.014c-0.954-0.346-1.975-0.717-3.061-1.109c-1.087-0.391-2.236-0.8-3.451-1.239
				c0.259,3.564,0.39,5.865,0.39,6.908v65.931h-23.323V50.938h20.586c7.817,2.521,15.53,5.799,23.129,9.836
				c7.601,4.041,14.984,8.622,22.152,13.748c7.166,5.128,14.093,10.73,20.783,16.808c6.688,6.082,13.074,12.425,19.152,19.026
				l4.303,4.688c-0.263-2.865-0.393-4.993-0.393-6.384V50.938h23.455V149.184z"/>
			<path id="R_9_" fill="#171820" d="M613.366,88.987h55.769c4.863,0,8.665-1.283,11.402-3.845
				c2.736-2.562,4.494-6.274,5.276-11.143h-83.525v75.184h-23.975V50.938h130.563v18.764c0,24.844-12.075,38.526-36.223,41.043
				l37.397,38.439h-28.929l-37.919-38.047h-29.837V88.987z"/>
			<path id="Y_18_" fill="#171820" d="M560.985,50.938v49.384c0,7.645-1.089,14.486-3.258,20.523
				c-2.174,6.038-5.363,11.162-9.578,15.375c-4.216,4.214-9.36,7.426-15.441,9.642s-13.028,3.322-20.848,3.322h-80.137v-23.323
				h79.617c7.296,0,12.833-1.237,16.612-3.713c3.779-2.476,6.363-6.101,7.753-10.881H431.723V50.938H455.7v38.049h81.309V50.938
				H560.985z"/>
			<path id="B_9_" fill="#171820" d="M283.442,50.938h103.851c17.894,0,26.842,8.295,26.842,24.887
				c0,6.776-1.454,12.098-4.363,15.962c-2.915,3.866-7.104,6.32-12.575,7.363c5.385,1.042,9.553,3.647,12.507,7.817
				c2.953,4.169,4.43,9.948,4.43,17.33c0,16.593-8.948,24.887-26.842,24.887H283.442V50.938z M307.419,126.382h73.49
				c5.297,0,7.947-2.475,7.947-7.427c0-5.646-2.65-8.469-7.947-8.469h-56.681V89.637h56.681c5.297,0,7.947-2.798,7.947-8.4
				c0-4.824-2.65-7.237-7.947-7.237h-73.49V126.382z"/>
		</g>
	</g>
	<g id="Characters_1_">
		<image overflow="visible" width="4367" height="1026" xlink:href="26E91F9B.png"  transform="matrix(0.24 0 0 0.24 268 36.7783)">
		</image>
		<g>
			<g>
				<g>
					<g id="Systems_23_">
						<g id="S_72_">
							<g>
								<path fill="#1093BF" d="M1173.65,261.75c-0.414,0-0.75-0.336-0.75-0.75v-23.267c0-0.414,0.336-0.75,0.75-0.75h80.708
									c4.639,0,8.294-1.202,10.864-3.571c2.424-2.229,4.062-5.46,4.876-9.616h-96.448c-0.414,0-0.75-0.336-0.75-0.75v-18.716
									c0-27.923,15.294-42.081,45.457-42.081h75.124c0.414,0,0.75,0.336,0.75,0.75v23.008c0,0.414-0.336,0.75-0.75,0.75h-80.193
									c-9.328,0-14.579,4.4-16.028,13.447h96.741c0.414,0,0.75,0.336,0.75,0.75v18.714c0,27.923-15.296,42.081-45.462,42.081
									H1173.65z"/>
							</g>
							<g>
								<path fill="#050609" d="M1293.481,163v23.008h-80.193c-9.963,0-15.597,4.984-16.895,14.947h97.607v18.714
									c0,27.555-14.905,41.331-44.712,41.331h-75.639v-23.267h80.708c4.854,0,8.643-1.252,11.373-3.77
									c2.73-2.511,4.483-6.151,5.264-10.917h-97.345v-18.716c0-27.551,14.9-41.331,44.707-41.331H1293.481 M1293.481,161.5
									h-75.124c-30.661,0-46.207,14.41-46.207,42.831v18.716c0,0.829,0.672,1.5,1.5,1.5h95.521
									c-0.833,3.565-2.327,6.357-4.455,8.313c-2.429,2.239-5.913,3.374-10.357,3.374h-80.708c-0.828,0-1.5,0.671-1.5,1.5V261
									c0,0.829,0.672,1.5,1.5,1.5h75.639c30.664,0,46.212-14.411,46.212-42.831v-18.714c0-0.829-0.672-1.5-1.5-1.5h-95.845
									c1.578-8.034,6.543-11.947,15.132-11.947h80.193c0.828,0,1.5-0.671,1.5-1.5V163
									C1294.981,162.171,1294.31,161.5,1293.481,161.5L1293.481,161.5z"/>
							</g>
						</g>
						<g id="M_24_">
							<g>
								<path fill="#1093BF" d="M1132.319,261.75c-0.414,0-0.75-0.336-0.75-0.75v-49.13c0-16.897-7.991-25.112-24.43-25.112h-73.757
									V261c0,0.414-0.336,0.75-0.75,0.75h-23.913c-0.414,0-0.75-0.336-0.75-0.75v-98c0-0.414,0.336-0.75,0.75-0.75h98.473
									c7.325,0,14.128,1.108,20.218,3.294c6.094,2.189,11.389,5.347,15.739,9.385c4.347,4.036,7.776,8.908,10.194,14.482
									c2.416,5.58,3.641,11.781,3.641,18.432V261c0,0.414-0.336,0.75-0.75,0.75H1132.319z M1068.894,261.75
									c-0.414,0-0.75-0.336-0.75-0.75v-62.903c0-0.414,0.336-0.75,0.75-0.75h23.916c0.414,0,0.75,0.336,0.75,0.75V261
									c0,0.414-0.336,0.75-0.75,0.75H1068.894z"/>
							</g>
							<g>
								<path fill="#050609" d="M1107.192,163c7.281,0,13.938,1.087,19.965,3.25c6.029,2.167,11.189,5.245,15.482,9.229
									c4.292,3.985,7.63,8.729,10.016,14.231c2.384,5.505,3.579,11.548,3.579,18.133V261h-23.915v-49.13
									c0-17.238-8.396-25.862-25.18-25.862h-74.507V261h-23.913v-98H1107.192 M1092.81,198.097V261h-23.916v-62.903H1092.81
									 M1107.192,161.5h-98.473c-0.828,0-1.5,0.671-1.5,1.5v98c0,0.829,0.672,1.5,1.5,1.5h23.913c0.828,0,1.5-0.671,1.5-1.5
									v-73.492h73.007c15.934,0,23.68,7.969,23.68,24.362V261c0,0.829,0.672,1.5,1.5,1.5h23.915c0.828,0,1.5-0.671,1.5-1.5
									v-53.156c0-6.754-1.246-13.056-3.703-18.729c-2.459-5.67-5.948-10.627-10.371-14.734c-4.426-4.108-9.808-7.318-15.996-9.542
									C1121.492,162.624,1114.604,161.5,1107.192,161.5L1107.192,161.5z M1092.81,196.597h-23.916c-0.828,0-1.5,0.671-1.5,1.5V261
									c0,0.829,0.672,1.5,1.5,1.5h23.916c0.828,0,1.5-0.671,1.5-1.5v-62.903C1094.31,197.268,1093.638,196.597,1092.81,196.597
									L1092.81,196.597z"/>
							</g>
						</g>
						<g id="E_48_">
							<g>
								<path fill="#1093BF" d="M919.82,261.75c-7.597,0-14.55-1.153-20.667-3.428c-6.128-2.272-11.423-5.61-15.736-9.919
									c-4.299-4.299-7.636-9.548-9.919-15.602c-2.273-6.028-3.427-12.939-3.427-20.541V163c0-0.414,0.336-0.75,0.75-0.75h124.51
									c0.414,0,0.75,0.336,0.75,0.75v23.008c0,0.414-0.336,0.75-0.75,0.75h-99.845v13.447h84.64c0.414,0,0.75,0.336,0.75,0.75
									v22.091c0,0.414-0.336,0.75-0.75,0.75h-83.07c1.391,4.108,3.786,7.316,7.131,9.543c3.618,2.418,9.053,3.644,16.153,3.644
									h74.991c0.414,0,0.75,0.336,0.75,0.75V261c0,0.414-0.336,0.75-0.75,0.75H919.82z"/>
							</g>
							<g>
								<path fill="#050609" d="M995.331,163v23.008H894.736v14.947h85.39v22.091h-84.092c1.388,4.766,3.966,8.406,7.736,10.917
									c3.767,2.517,9.29,3.77,16.569,3.77h74.991V261H919.82c-7.537,0-14.343-1.126-20.405-3.381
									c-6.068-2.25-11.222-5.504-15.468-9.747c-4.245-4.245-7.493-9.359-9.747-15.336c-2.255-5.978-3.379-12.739-3.379-20.276V163
									H995.331 M995.331,161.5h-124.51c-0.828,0-1.5,0.671-1.5,1.5v49.26c0,7.692,1.169,14.692,3.476,20.805
									c2.32,6.154,5.715,11.493,10.09,15.867c4.391,4.387,9.775,7.783,16.007,10.093c6.199,2.306,13.24,3.475,20.927,3.475h75.511
									c0.828,0,1.5-0.671,1.5-1.5v-23.267c0-0.829-0.672-1.5-1.5-1.5H920.34c-6.949,0-12.244-1.183-15.736-3.517
									c-2.978-1.983-5.109-4.668-6.479-8.17h82.001c0.828,0,1.5-0.671,1.5-1.5v-22.091c0-0.829-0.672-1.5-1.5-1.5h-83.89v-11.947
									h99.095c0.828,0,1.5-0.671,1.5-1.5V163C996.831,162.171,996.159,161.5,995.331,161.5L995.331,161.5z"/>
							</g>
						</g>
						<g id="T_24_">
							<g>
								<path fill="#1093BF" d="M793.358,261.75c-0.414,0-0.75-0.336-0.75-0.75v-74.242H750.34c-0.414,0-0.75-0.336-0.75-0.75V163
									c0-0.414,0.336-0.75,0.75-0.75h109.696c0.414,0,0.75,0.336,0.75,0.75v23.008c0,0.414-0.336,0.75-0.75,0.75h-42.01V261
									c0,0.414-0.336,0.75-0.75,0.75H793.358z"/>
							</g>
							<g>
								<path fill="#050609" d="M860.036,163v23.008h-42.76V261h-23.918v-74.992H750.34V163H860.036 M860.036,161.5H750.34
									c-0.828,0-1.5,0.671-1.5,1.5v23.008c0,0.829,0.672,1.5,1.5,1.5h41.519V261c0,0.829,0.672,1.5,1.5,1.5h23.918
									c0.828,0,1.5-0.671,1.5-1.5v-73.492h41.26c0.828,0,1.5-0.671,1.5-1.5V163C861.536,162.171,860.864,161.5,860.036,161.5
									L860.036,161.5z"/>
							</g>
						</g>
						<g id="S_71_">
							<g>
								<path fill="#1093BF" d="M618.943,261.75c-0.414,0-0.75-0.336-0.75-0.75v-23.267c0-0.414,0.336-0.75,0.75-0.75h80.71
									c4.64,0,8.295-1.201,10.864-3.571c2.423-2.229,4.062-5.461,4.878-9.616h-96.452c-0.414,0-0.75-0.336-0.75-0.75v-18.716
									c0-27.923,15.295-42.081,45.459-42.081h75.122c0.414,0,0.75,0.336,0.75,0.75v23.008c0,0.414-0.336,0.75-0.75,0.75h-80.191
									c-9.328,0-14.579,4.4-16.03,13.447h96.741c0.414,0,0.75,0.336,0.75,0.75v18.714c0,27.923-15.295,42.081-45.46,42.081
									H618.943z"/>
							</g>
							<g>
								<path fill="#050609" d="M738.774,163v23.008h-80.191c-9.965,0-15.597,4.984-16.896,14.947h97.607v18.714
									c0,27.555-14.903,41.331-44.71,41.331h-75.641v-23.267h80.71c4.852,0,8.644-1.252,11.373-3.77
									c2.729-2.511,4.483-6.151,5.267-10.917h-97.35v-18.716c0-27.551,14.9-41.331,44.709-41.331H738.774 M738.774,161.5h-75.122
									c-30.662,0-46.209,14.41-46.209,42.831v18.716c0,0.829,0.672,1.5,1.5,1.5h95.524c-0.835,3.565-2.33,6.357-4.457,8.313
									c-2.428,2.239-5.912,3.374-10.357,3.374h-80.71c-0.828,0-1.5,0.671-1.5,1.5V261c0,0.829,0.672,1.5,1.5,1.5h75.641
									c30.663,0,46.21-14.411,46.21-42.831v-18.714c0-0.829-0.672-1.5-1.5-1.5h-95.845c1.58-8.034,6.546-11.947,15.134-11.947
									h80.191c0.828,0,1.5-0.671,1.5-1.5V163C740.274,162.171,739.603,161.5,738.774,161.5L738.774,161.5z"/>
							</g>
						</g>
						<g id="Y_48_">
							<g>
								<path fill="#1093BF" d="M473.639,261.75c-0.414,0-0.75-0.336-0.75-0.75v-23.267c0-0.414,0.336-0.75,0.75-0.75h79.409
									c7.095,0,12.533-1.205,16.161-3.58c3.342-2.192,5.734-5.377,7.123-9.475H473.639c-0.414,0-0.75-0.336-0.75-0.75V163
									c0-0.414,0.336-0.75,0.75-0.75h23.912c0.414,0,0.75,0.336,0.75,0.75v37.205h79.601V163c0-0.414,0.336-0.75,0.75-0.75h23.915
									c0.414,0,0.75,0.336,0.75,0.75v49.26c0,7.673-1.107,14.646-3.291,20.724c-2.196,6.1-5.471,11.352-9.731,15.612
									c-4.254,4.257-9.527,7.551-15.674,9.792c-6.122,2.231-13.205,3.362-21.053,3.362H473.639z"/>
							</g>
							<g>
								<path fill="#050609" d="M602.566,163v49.26c0,7.625-1.084,14.45-3.247,20.47c-2.168,6.021-5.354,11.134-9.556,15.335
									c-4.203,4.206-9.335,7.406-15.4,9.617c-6.065,2.21-12.995,3.317-20.796,3.317h-79.929v-23.267h79.409
									c7.276,0,12.803-1.235,16.572-3.703c3.77-2.473,6.346-6.085,7.733-10.853H473.639V163h23.912v37.955h81.101V163H602.566
									 M602.566,161.5h-23.915c-0.828,0-1.5,0.671-1.5,1.5v36.455h-78.101V163c0-0.829-0.672-1.5-1.5-1.5h-23.912
									c-0.829,0-1.5,0.671-1.5,1.5v60.178c0,0.829,0.671,1.5,1.5,1.5h101.623c-1.366,3.488-3.494,6.149-6.465,8.098
									c-3.503,2.294-8.802,3.457-15.749,3.457h-79.409c-0.829,0-1.5,0.671-1.5,1.5V261c0,0.829,0.671,1.5,1.5,1.5h79.929
									c7.936,0,15.105-1.146,21.31-3.408c6.25-2.278,11.615-5.631,15.947-9.966c4.34-4.338,7.673-9.684,9.906-15.888
									c2.214-6.161,3.336-13.218,3.336-20.979V163C604.066,162.171,603.395,161.5,602.566,161.5L602.566,161.5z"/>
							</g>
						</g>
						<g id="S_70_">
							<path fill="#1093BF" d="M336,261.75c-0.414,0-0.75-0.336-0.75-0.75v-23.267c0-0.414,0.336-0.75,0.75-0.75h80.712
								c4.639,0,8.294-1.201,10.864-3.571c2.426-2.232,4.063-5.465,4.875-9.616H336c-0.414,0-0.75-0.336-0.75-0.75v-18.716
								c0-27.923,15.295-42.081,45.46-42.081h75.124c0.414,0,0.75,0.336,0.75,0.75v23.008c0,0.414-0.336,0.75-0.75,0.75h-80.191
								c-9.328,0-14.579,4.4-16.03,13.447h96.742c0.414,0,0.75,0.336,0.75,0.75v18.714c0,27.923-15.295,42.081-45.46,42.081H336z"/>
							<path fill="#050609" d="M455.834,163v23.008h-80.191c-9.967,0-15.596,4.984-16.896,14.947h97.609v18.714
								c0,27.555-14.905,41.331-44.71,41.331H336v-23.267h80.712c4.852,0,8.643-1.252,11.372-3.77
								c2.729-2.511,4.486-6.151,5.263-10.917H336v-18.716C336,176.78,350.902,163,380.71,163H455.834 M455.834,161.5H380.71
								c-30.663,0-46.21,14.41-46.21,42.831v18.716c0,0.829,0.671,1.5,1.5,1.5h95.524c-0.831,3.562-2.326,6.354-4.456,8.313
								c-2.428,2.239-5.912,3.374-10.356,3.374H336c-0.829,0-1.5,0.671-1.5,1.5V261c0,0.829,0.671,1.5,1.5,1.5h75.645
								c30.663,0,46.21-14.411,46.21-42.831v-18.714c0-0.829-0.671-1.5-1.5-1.5h-95.846c1.581-8.034,6.546-11.947,15.134-11.947
								h80.191c0.829,0,1.5-0.671,1.5-1.5V163C457.334,162.171,456.663,161.5,455.834,161.5L455.834,161.5z"/>
						</g>
					</g>
					<g id="Byrne_23_">
						<g id="E_47_">
							<g>
								<path fill="#446191" d="M919.805,143.972c-7.633,0-14.618-1.158-20.764-3.441c-6.167-2.29-11.484-5.643-15.804-9.965
									c-4.321-4.319-7.673-9.592-9.963-15.671c-2.283-6.056-3.441-12.998-3.441-20.632V44.778c0-0.414,0.336-0.75,0.75-0.75
									H995.66c0.414,0,0.75,0.336,0.75,0.75v23.109c0,0.414-0.336,0.75-0.75,0.75H895.354v13.517h85.029
									c0.414,0,0.75,0.336,0.75,0.75v22.194c0,0.414-0.336,0.75-0.75,0.75h-83.452c1.394,4.127,3.8,7.352,7.163,9.594
									c3.642,2.428,9.102,3.66,16.229,3.66h75.336c0.414,0,0.75,0.336,0.75,0.75v23.37c0,0.414-0.336,0.75-0.75,0.75H919.805z"/>
							</g>
							<g>
								<path fill="#050609" d="M995.66,44.778v23.109H894.604v15.017h85.779v22.194H895.91c1.392,4.789,3.981,8.443,7.769,10.968
									c3.787,2.525,9.338,3.786,16.646,3.786h75.336v23.37h-75.855c-7.574,0-14.408-1.13-20.502-3.395
									c-6.093-2.262-11.272-5.526-15.535-9.792c-4.265-4.263-7.529-9.399-9.791-15.405c-2.265-6.006-3.394-12.797-3.394-20.368
									V44.778H995.66 M995.66,43.278H870.583c-0.828,0-1.5,0.671-1.5,1.5v49.484c0,7.725,1.174,14.756,3.49,20.897
									c2.327,6.179,5.736,11.541,10.134,15.937c4.396,4.399,9.804,7.81,16.073,10.137c6.229,2.314,13.302,3.488,21.024,3.488
									h75.855c0.828,0,1.5-0.671,1.5-1.5v-23.37c0-0.829-0.672-1.5-1.5-1.5h-75.336c-6.977,0-12.297-1.189-15.813-3.534
									c-2.995-1.997-5.138-4.697-6.511-8.22h82.384c0.828,0,1.5-0.671,1.5-1.5V82.904c0-0.829-0.672-1.5-1.5-1.5h-84.279V69.387
									h99.556c0.828,0,1.5-0.671,1.5-1.5V44.778C997.16,43.95,996.488,43.278,995.66,43.278L995.66,43.278z"/>
							</g>
						</g>
						<g id="N_24_">
							<g>
								<path fill="#446191" d="M827.761,143.972c-0.24,0-0.466-0.115-0.607-0.31c-13.401-18.494-26.786-33.786-39.783-45.449
									c-12.976-11.639-25.924-20.025-38.484-24.925l-3.05-1.105l-2.374-0.851c0.206,2.918,0.31,4.875,0.31,5.826v66.063
									c0,0.414-0.336,0.75-0.75,0.75h-23.37c-0.414,0-0.75-0.336-0.75-0.75V44.778c0-0.414,0.336-0.75,0.75-0.75h20.63
									c0.078,0,0.156,0.012,0.23,0.036c7.853,2.533,15.689,5.866,23.294,9.908c7.61,4.045,15.106,8.698,22.282,13.828
									c7.167,5.126,14.196,10.812,20.893,16.896c6.69,6.084,13.163,12.514,19.238,19.111l2.827,3.082
									c-0.142-1.832-0.211-3.24-0.211-4.272V44.778c0-0.414,0.336-0.75,0.75-0.75h23.505c0.414,0,0.75,0.336,0.75,0.75v98.443
									c0,0.414-0.336,0.75-0.75,0.75H827.761z"/>
							</g>
							<g>
								<path fill="#050609" d="M853.09,44.778v98.443h-25.329c-13.496-18.625-26.792-33.813-39.89-45.567
									c-13.101-11.75-26.004-20.107-38.713-25.066c-0.958-0.347-1.98-0.718-3.067-1.111c-1.089-0.392-2.242-0.802-3.459-1.24
									c0.261,3.57,0.39,5.876,0.39,6.921v66.063h-23.37V44.778h20.63c7.833,2.526,15.56,5.81,23.173,9.856
									c7.616,4.049,15.015,8.64,22.197,13.775c7.182,5.137,14.123,10.751,20.824,16.842c6.702,6.094,13.101,12.45,19.191,19.064
									l4.312,4.699c-0.261-2.872-0.394-5.003-0.394-6.397V44.778H853.09 M853.09,43.278h-23.505c-0.828,0-1.5,0.671-1.5,1.5
									v57.839c0,0.603,0.023,1.331,0.07,2.191l-1.383-1.507c-6.092-6.615-12.581-13.061-19.288-19.16
									c-6.717-6.105-13.77-11.809-20.96-16.952c-7.202-5.149-14.728-9.819-22.366-13.88c-7.644-4.063-15.522-7.413-23.416-9.959
									c-0.149-0.048-0.305-0.072-0.461-0.072h-20.63c-0.828,0-1.5,0.671-1.5,1.5v98.443c0,0.829,0.672,1.5,1.5,1.5h23.37
									c0.828,0,1.5-0.671,1.5-1.5V77.158c0-0.85-0.076-2.407-0.232-4.733l1.294,0.464l1.735,0.628L748.647,74
									c12.442,4.854,25.313,13.193,38.222,24.772c12.958,11.627,26.307,26.879,39.677,45.331c0.282,0.389,0.734,0.62,1.215,0.62
									h25.329c0.828,0,1.5-0.671,1.5-1.5V44.778C854.59,43.95,853.918,43.278,853.09,43.278L853.09,43.278z"/>
							</g>
						</g>
						<g id="R_24_">
							<g>
								<path fill="#446191" d="M674.476,143.972c-0.199,0-0.391-0.08-0.531-0.221l-37.773-37.902h-29.587
									c-0.414,0-0.75-0.336-0.75-0.75V82.904c0-0.414,0.336-0.75,0.75-0.75h55.881c4.653,0,8.326-1.228,10.914-3.65
									c2.441-2.287,4.09-5.604,4.907-9.867h-82.05v74.584c0,0.414-0.336,0.75-0.75,0.75h-24.022c-0.414,0-0.75-0.336-0.75-0.75
									V44.778c0-0.414,0.336-0.75,0.75-0.75h130.824c0.414,0,0.75,0.336,0.75,0.75V63.58c0,24.699-11.924,38.72-35.444,41.695
									L704,142.699c0.211,0.216,0.271,0.537,0.153,0.815c-0.117,0.277-0.389,0.458-0.69,0.458H674.476z"/>
							</g>
							<g>
								<path fill="#050609" d="M702.288,44.778V63.58c0,24.895-12.1,38.604-36.296,41.125l37.471,38.517h-28.987l-37.993-38.123
									h-29.898V82.904h55.881c4.873,0,8.683-1.285,11.427-3.852c2.74-2.568,4.504-6.288,5.288-11.165h-83.693v75.334h-24.022
									V44.778H702.288 M702.288,43.278H571.464c-0.828,0-1.5,0.671-1.5,1.5v98.443c0,0.829,0.672,1.5,1.5,1.5h24.022
									c0.828,0,1.5-0.671,1.5-1.5V69.387h80.377c-0.836,3.676-2.345,6.554-4.497,8.57c-2.444,2.287-5.944,3.447-10.401,3.447
									h-55.881c-0.828,0-1.5,0.671-1.5,1.5v22.194c0,0.829,0.672,1.5,1.5,1.5h29.275l37.554,37.682
									c0.281,0.283,0.664,0.441,1.063,0.441h28.987c0.603,0,1.147-0.361,1.382-0.917c0.234-0.555,0.114-1.197-0.307-1.629
									l-35.372-36.359c22.977-3.421,34.622-17.617,34.622-42.236V44.778C703.788,43.95,703.116,43.278,702.288,43.278
									L702.288,43.278z"/>
							</g>
						</g>
						<g id="Y_47_">
							<g>
								<path fill="#446191" d="M424.579,143.972c-0.414,0-0.75-0.336-0.75-0.75v-23.37c0-0.414,0.336-0.75,0.75-0.75h79.773
									c7.131,0,12.593-1.21,16.235-3.599c3.361-2.202,5.767-5.403,7.16-9.525H424.579c-0.414,0-0.75-0.336-0.75-0.75v-60.45
									c0-0.414,0.336-0.75,0.75-0.75h24.023c0.414,0,0.75,0.336,0.75,0.75v37.376h79.971V44.778c0-0.414,0.336-0.75,0.75-0.75
									h24.024c0.414,0,0.75,0.336,0.75,0.75v49.484c0,7.708-1.113,14.713-3.308,20.818c-2.203,6.126-5.49,11.403-9.771,15.683
									c-4.283,4.279-9.581,7.588-15.747,9.834c-6.144,2.239-13.258,3.375-21.146,3.375H424.579z"/>
							</g>
							<g>
								<path fill="#050609" d="M554.098,44.778v49.484c0,7.66-1.089,14.515-3.264,20.564c-2.176,6.051-5.374,11.186-9.595,15.406
									c-4.226,4.222-9.382,7.441-15.474,9.66c-6.093,2.221-13.056,3.329-20.889,3.329h-80.298v-23.37h79.773
									c7.313,0,12.861-1.24,16.646-3.721c3.786-2.48,6.378-6.113,7.771-10.903h-104.19v-60.45h24.023v38.126h81.471V44.778
									H554.098 M554.098,43.278h-24.024c-0.828,0-1.5,0.671-1.5,1.5v36.626h-78.471V44.778c0-0.829-0.671-1.5-1.5-1.5h-24.023
									c-0.829,0-1.5,0.671-1.5,1.5v60.45c0,0.829,0.671,1.5,1.5,1.5H526.68c-1.373,3.512-3.513,6.189-6.503,8.148
									c-3.519,2.307-8.842,3.476-15.824,3.476h-79.773c-0.829,0-1.5,0.671-1.5,1.5v23.37c0,0.829,0.671,1.5,1.5,1.5h80.298
									c7.976,0,15.177-1.15,21.402-3.42c6.27-2.284,11.659-5.651,16.021-10.008c4.358-4.359,7.705-9.729,9.945-15.959
									c2.225-6.187,3.353-13.276,3.353-21.072V44.778C555.598,43.95,554.926,43.278,554.098,43.278L554.098,43.278z"/>
							</g>
						</g>
						<g id="B_24_">
							<g>
								<path fill="#446191" d="M276,143.972c-0.414,0-0.75-0.336-0.75-0.75V44.778c0-0.414,0.336-0.75,0.75-0.75h104.06
									c18.344,0,27.645,8.643,27.645,25.688c0,6.927-1.521,12.46-4.521,16.446c-2.48,3.291-5.884,5.617-10.145,6.939
									c4.197,1.373,7.583,3.848,10.09,7.386c3.036,4.288,4.576,10.276,4.576,17.799c0,17.043-9.301,25.686-27.645,25.686H276z
									 M373.661,119.624c4.922,0,7.215-2.126,7.215-6.692c0-5.278-2.292-7.736-7.215-7.736h-56.793c-0.414,0-0.75-0.336-0.75-0.75
									v-20.89c0-0.414,0.336-0.75,0.75-0.75h56.793c4.922,0,7.215-2.437,7.215-7.667c0-4.435-2.292-6.501-7.215-6.501h-72.885
									v50.987H373.661z"/>
							</g>
							<g>
								<path fill="#050609" d="M380.06,44.778c17.931,0,26.895,8.313,26.895,24.938c0,6.79-1.455,12.122-4.37,15.995
									c-2.919,3.873-7.118,6.333-12.601,7.377c5.396,1.043,9.572,3.655,12.533,7.833c2.958,4.178,4.438,9.967,4.438,17.365
									c0,16.625-8.964,24.936-26.895,24.936H276V44.778H380.06 M300.026,120.374h73.635c5.31,0,7.965-2.48,7.965-7.442
									c0-5.658-2.655-8.486-7.965-8.486h-56.793v-20.89h56.793c5.31,0,7.965-2.804,7.965-8.417c0-4.833-2.655-7.251-7.965-7.251
									h-73.635V120.374 M380.06,43.278H276c-0.829,0-1.5,0.671-1.5,1.5v98.443c0,0.829,0.671,1.5,1.5,1.5h104.06
									c18.841,0,28.395-8.894,28.395-26.436c0-7.681-1.586-13.815-4.713-18.232c-2.206-3.113-5.063-5.432-8.529-6.933
									c3.513-1.43,6.384-3.607,8.57-6.508c3.101-4.119,4.672-9.804,4.672-16.897C408.454,52.173,398.901,43.278,380.06,43.278
									L380.06,43.278z M301.526,69.387h72.135c4.471,0,6.465,1.773,6.465,5.751c0,4.784-1.994,6.917-6.465,6.917h-56.793
									c-0.829,0-1.5,0.671-1.5,1.5v20.89c0,0.829,0.671,1.5,1.5,1.5h56.793c4.471,0,6.465,2.155,6.465,6.986
									c0,4.11-1.994,5.942-6.465,5.942h-72.135V69.387L301.526,69.387z"/>
							</g>
						</g>
					</g>
				</g>
			</g>
			<defs>
				<filter id="Adobe_OpacityMaskFilter" filterUnits="userSpaceOnUse" x="274.5" y="43.278" width="1021.001" height="219.222">
					<feFlood  style="flood-color:white;flood-opacity:1" result="back"/>
					<feBlend  in="SourceGraphic" in2="back" mode="normal"/>
				</filter>
			</defs>
			<mask maskUnits="userSpaceOnUse" x="274.5" y="43.278" width="1021.001" height="219.222" id="SVGID_1_">
				<g filter="url(#Adobe_OpacityMaskFilter)">
					
						<image overflow="visible" width="4271" height="931" xlink:href="26E91FA5.jpg"  transform="matrix(0.24 0 0 0.24 272.5 41.2783)">
					</image>
				</g>
			</mask>
			<g opacity="0.75" mask="url(#SVGID_1_)">
				<g>
					<g id="Systems_20_">
						<g id="S_63_">
							<g>
								<path d="M1173.65,261.75c-0.414,0-0.75-0.336-0.75-0.75v-23.267c0-0.414,0.336-0.75,0.75-0.75h80.708
									c4.639,0,8.294-1.202,10.864-3.571c2.424-2.229,4.062-5.46,4.876-9.616h-96.448c-0.414,0-0.75-0.336-0.75-0.75v-18.716
									c0-27.923,15.294-42.081,45.457-42.081h75.124c0.414,0,0.75,0.336,0.75,0.75v23.008c0,0.414-0.336,0.75-0.75,0.75h-80.193
									c-9.328,0-14.579,4.4-16.028,13.447h96.741c0.414,0,0.75,0.336,0.75,0.75v18.714c0,27.923-15.296,42.081-45.462,42.081
									H1173.65z"/>
							</g>
							<g>
								<path d="M1293.481,163v23.008h-80.193c-9.963,0-15.597,4.984-16.895,14.947h97.607v18.714
									c0,27.555-14.905,41.331-44.712,41.331h-75.639v-23.267h80.708c4.854,0,8.643-1.252,11.373-3.77
									c2.73-2.511,4.483-6.151,5.264-10.917h-97.345v-18.716c0-27.551,14.9-41.331,44.707-41.331H1293.481 M1293.481,161.5
									h-75.124c-30.661,0-46.207,14.41-46.207,42.831v18.716c0,0.829,0.672,1.5,1.5,1.5h95.521
									c-0.833,3.565-2.327,6.357-4.455,8.313c-2.429,2.239-5.913,3.374-10.357,3.374h-80.708c-0.828,0-1.5,0.671-1.5,1.5V261
									c0,0.829,0.672,1.5,1.5,1.5h75.639c30.664,0,46.212-14.411,46.212-42.831v-18.714c0-0.829-0.672-1.5-1.5-1.5h-95.845
									c1.578-8.034,6.543-11.947,15.132-11.947h80.193c0.828,0,1.5-0.671,1.5-1.5V163
									C1294.981,162.171,1294.31,161.5,1293.481,161.5L1293.481,161.5z"/>
							</g>
						</g>
						<g id="M_21_">
							<g>
								<path d="M1132.319,261.75c-0.414,0-0.75-0.336-0.75-0.75v-49.13c0-16.897-7.991-25.112-24.43-25.112h-73.757V261
									c0,0.414-0.336,0.75-0.75,0.75h-23.913c-0.414,0-0.75-0.336-0.75-0.75v-98c0-0.414,0.336-0.75,0.75-0.75h98.473
									c7.325,0,14.128,1.108,20.218,3.294c6.094,2.189,11.389,5.347,15.739,9.385c4.347,4.036,7.776,8.908,10.194,14.482
									c2.416,5.58,3.641,11.781,3.641,18.432V261c0,0.414-0.336,0.75-0.75,0.75H1132.319z M1068.894,261.75
									c-0.414,0-0.75-0.336-0.75-0.75v-62.903c0-0.414,0.336-0.75,0.75-0.75h23.916c0.414,0,0.75,0.336,0.75,0.75V261
									c0,0.414-0.336,0.75-0.75,0.75H1068.894z"/>
							</g>
							<g>
								<path d="M1107.192,163c7.281,0,13.938,1.087,19.965,3.25c6.029,2.167,11.189,5.245,15.482,9.229
									c4.292,3.985,7.63,8.729,10.016,14.231c2.384,5.505,3.579,11.548,3.579,18.133V261h-23.915v-49.13
									c0-17.238-8.396-25.862-25.18-25.862h-74.507V261h-23.913v-98H1107.192 M1092.81,198.097V261h-23.916v-62.903H1092.81
									 M1107.192,161.5h-98.473c-0.828,0-1.5,0.671-1.5,1.5v98c0,0.829,0.672,1.5,1.5,1.5h23.913c0.828,0,1.5-0.671,1.5-1.5
									v-73.492h73.007c15.934,0,23.68,7.969,23.68,24.362V261c0,0.829,0.672,1.5,1.5,1.5h23.915c0.828,0,1.5-0.671,1.5-1.5
									v-53.156c0-6.754-1.246-13.056-3.703-18.729c-2.459-5.67-5.948-10.627-10.371-14.734c-4.426-4.108-9.808-7.318-15.996-9.542
									C1121.492,162.624,1114.604,161.5,1107.192,161.5L1107.192,161.5z M1092.81,196.597h-23.916c-0.828,0-1.5,0.671-1.5,1.5V261
									c0,0.829,0.672,1.5,1.5,1.5h23.916c0.828,0,1.5-0.671,1.5-1.5v-62.903C1094.31,197.268,1093.638,196.597,1092.81,196.597
									L1092.81,196.597z"/>
							</g>
						</g>
						<g id="E_42_">
							<g>
								<path d="M919.82,261.75c-7.597,0-14.55-1.153-20.667-3.428c-6.128-2.272-11.423-5.61-15.736-9.919
									c-4.299-4.299-7.636-9.548-9.919-15.602c-2.273-6.028-3.427-12.939-3.427-20.541V163c0-0.414,0.336-0.75,0.75-0.75h124.51
									c0.414,0,0.75,0.336,0.75,0.75v23.008c0,0.414-0.336,0.75-0.75,0.75h-99.845v13.447h84.64c0.414,0,0.75,0.336,0.75,0.75
									v22.091c0,0.414-0.336,0.75-0.75,0.75h-83.07c1.391,4.108,3.786,7.316,7.131,9.543c3.618,2.418,9.053,3.644,16.153,3.644
									h74.991c0.414,0,0.75,0.336,0.75,0.75V261c0,0.414-0.336,0.75-0.75,0.75H919.82z"/>
							</g>
							<g>
								<path d="M995.331,163v23.008H894.736v14.947h85.39v22.091h-84.092c1.388,4.766,3.966,8.406,7.736,10.917
									c3.767,2.517,9.29,3.77,16.569,3.77h74.991V261H919.82c-7.537,0-14.343-1.126-20.405-3.381
									c-6.068-2.25-11.222-5.504-15.468-9.747c-4.245-4.245-7.493-9.359-9.747-15.336c-2.255-5.978-3.379-12.739-3.379-20.276V163
									H995.331 M995.331,161.5h-124.51c-0.828,0-1.5,0.671-1.5,1.5v49.26c0,7.692,1.169,14.692,3.476,20.805
									c2.32,6.154,5.715,11.493,10.09,15.867c4.391,4.387,9.775,7.783,16.007,10.093c6.199,2.306,13.24,3.475,20.927,3.475h75.511
									c0.828,0,1.5-0.671,1.5-1.5v-23.267c0-0.829-0.672-1.5-1.5-1.5H920.34c-6.949,0-12.244-1.183-15.736-3.517
									c-2.978-1.983-5.109-4.668-6.479-8.17h82.001c0.828,0,1.5-0.671,1.5-1.5v-22.091c0-0.829-0.672-1.5-1.5-1.5h-83.89v-11.947
									h99.095c0.828,0,1.5-0.671,1.5-1.5V163C996.831,162.171,996.159,161.5,995.331,161.5L995.331,161.5z"/>
							</g>
						</g>
						<g id="T_21_">
							<g>
								<path d="M793.358,261.75c-0.414,0-0.75-0.336-0.75-0.75v-74.242H750.34c-0.414,0-0.75-0.336-0.75-0.75V163
									c0-0.414,0.336-0.75,0.75-0.75h109.696c0.414,0,0.75,0.336,0.75,0.75v23.008c0,0.414-0.336,0.75-0.75,0.75h-42.01V261
									c0,0.414-0.336,0.75-0.75,0.75H793.358z"/>
							</g>
							<g>
								<path d="M860.036,163v23.008h-42.76V261h-23.918v-74.992H750.34V163H860.036 M860.036,161.5H750.34
									c-0.828,0-1.5,0.671-1.5,1.5v23.008c0,0.829,0.672,1.5,1.5,1.5h41.519V261c0,0.829,0.672,1.5,1.5,1.5h23.918
									c0.828,0,1.5-0.671,1.5-1.5v-73.492h41.26c0.828,0,1.5-0.671,1.5-1.5V163C861.536,162.171,860.864,161.5,860.036,161.5
									L860.036,161.5z"/>
							</g>
						</g>
						<g id="S_62_">
							<g>
								<path d="M618.943,261.75c-0.414,0-0.75-0.336-0.75-0.75v-23.267c0-0.414,0.336-0.75,0.75-0.75h80.71
									c4.64,0,8.295-1.201,10.864-3.571c2.423-2.229,4.062-5.461,4.878-9.616h-96.452c-0.414,0-0.75-0.336-0.75-0.75v-18.716
									c0-27.923,15.295-42.081,45.459-42.081h75.122c0.414,0,0.75,0.336,0.75,0.75v23.008c0,0.414-0.336,0.75-0.75,0.75h-80.191
									c-9.328,0-14.579,4.4-16.03,13.447h96.741c0.414,0,0.75,0.336,0.75,0.75v18.714c0,27.923-15.295,42.081-45.46,42.081
									H618.943z"/>
							</g>
							<g>
								<path d="M738.774,163v23.008h-80.191c-9.965,0-15.597,4.984-16.896,14.947h97.607v18.714
									c0,27.555-14.903,41.331-44.71,41.331h-75.641v-23.267h80.71c4.852,0,8.644-1.252,11.373-3.77
									c2.729-2.511,4.483-6.151,5.267-10.917h-97.35v-18.716c0-27.551,14.9-41.331,44.709-41.331H738.774 M738.774,161.5h-75.122
									c-30.662,0-46.209,14.41-46.209,42.831v18.716c0,0.829,0.672,1.5,1.5,1.5h95.524c-0.835,3.565-2.33,6.357-4.457,8.313
									c-2.428,2.239-5.912,3.374-10.357,3.374h-80.71c-0.828,0-1.5,0.671-1.5,1.5V261c0,0.829,0.672,1.5,1.5,1.5h75.641
									c30.663,0,46.21-14.411,46.21-42.831v-18.714c0-0.829-0.672-1.5-1.5-1.5h-95.845c1.58-8.034,6.546-11.947,15.134-11.947
									h80.191c0.828,0,1.5-0.671,1.5-1.5V163C740.274,162.171,739.603,161.5,738.774,161.5L738.774,161.5z"/>
							</g>
						</g>
						<g id="Y_42_">
							<g>
								<path d="M473.639,261.75c-0.414,0-0.75-0.336-0.75-0.75v-23.267c0-0.414,0.336-0.75,0.75-0.75h79.409
									c7.095,0,12.533-1.205,16.161-3.58c3.342-2.192,5.734-5.377,7.123-9.475H473.639c-0.414,0-0.75-0.336-0.75-0.75V163
									c0-0.414,0.336-0.75,0.75-0.75h23.912c0.414,0,0.75,0.336,0.75,0.75v37.205h79.601V163c0-0.414,0.336-0.75,0.75-0.75h23.915
									c0.414,0,0.75,0.336,0.75,0.75v49.26c0,7.673-1.107,14.646-3.291,20.724c-2.196,6.1-5.471,11.352-9.731,15.612
									c-4.254,4.257-9.527,7.551-15.674,9.792c-6.122,2.231-13.205,3.362-21.053,3.362H473.639z"/>
							</g>
							<g>
								<path d="M602.566,163v49.26c0,7.625-1.084,14.45-3.247,20.47c-2.168,6.021-5.354,11.134-9.556,15.335
									c-4.203,4.206-9.335,7.406-15.4,9.617c-6.065,2.21-12.995,3.317-20.796,3.317h-79.929v-23.267h79.409
									c7.276,0,12.803-1.235,16.572-3.703c3.77-2.473,6.346-6.085,7.733-10.853H473.639V163h23.912v37.955h81.101V163H602.566
									 M602.566,161.5h-23.915c-0.828,0-1.5,0.671-1.5,1.5v36.455h-78.101V163c0-0.829-0.672-1.5-1.5-1.5h-23.912
									c-0.829,0-1.5,0.671-1.5,1.5v60.178c0,0.829,0.671,1.5,1.5,1.5h101.623c-1.366,3.488-3.494,6.149-6.465,8.098
									c-3.503,2.294-8.802,3.457-15.749,3.457h-79.409c-0.829,0-1.5,0.671-1.5,1.5V261c0,0.829,0.671,1.5,1.5,1.5h79.929
									c7.936,0,15.105-1.146,21.31-3.408c6.25-2.278,11.615-5.631,15.947-9.966c4.34-4.338,7.673-9.684,9.906-15.888
									c2.214-6.161,3.336-13.218,3.336-20.979V163C604.066,162.171,603.395,161.5,602.566,161.5L602.566,161.5z"/>
							</g>
						</g>
						<g id="S_61_">
							<path d="M336,261.75c-0.414,0-0.75-0.336-0.75-0.75v-23.267c0-0.414,0.336-0.75,0.75-0.75h80.712
								c4.639,0,8.294-1.201,10.864-3.571c2.426-2.232,4.063-5.465,4.875-9.616H336c-0.414,0-0.75-0.336-0.75-0.75v-18.716
								c0-27.923,15.295-42.081,45.46-42.081h75.124c0.414,0,0.75,0.336,0.75,0.75v23.008c0,0.414-0.336,0.75-0.75,0.75h-80.191
								c-9.328,0-14.579,4.4-16.03,13.447h96.742c0.414,0,0.75,0.336,0.75,0.75v18.714c0,27.923-15.295,42.081-45.46,42.081H336z"/>
							<path d="M455.834,163v23.008h-80.191c-9.967,0-15.596,4.984-16.896,14.947h97.609v18.714
								c0,27.555-14.905,41.331-44.71,41.331H336v-23.267h80.712c4.852,0,8.643-1.252,11.372-3.77
								c2.729-2.511,4.486-6.151,5.263-10.917H336v-18.716C336,176.78,350.902,163,380.71,163H455.834 M455.834,161.5H380.71
								c-30.663,0-46.21,14.41-46.21,42.831v18.716c0,0.829,0.671,1.5,1.5,1.5h95.524c-0.831,3.562-2.326,6.354-4.456,8.313
								c-2.428,2.239-5.912,3.374-10.356,3.374H336c-0.829,0-1.5,0.671-1.5,1.5V261c0,0.829,0.671,1.5,1.5,1.5h75.645
								c30.663,0,46.21-14.411,46.21-42.831v-18.714c0-0.829-0.671-1.5-1.5-1.5h-95.846c1.581-8.034,6.546-11.947,15.134-11.947
								h80.191c0.829,0,1.5-0.671,1.5-1.5V163C457.334,162.171,456.663,161.5,455.834,161.5L455.834,161.5z"/>
						</g>
					</g>
					<g id="Byrne_20_">
						<g id="E_41_">
							<g>
								<path d="M919.805,143.972c-7.633,0-14.618-1.158-20.764-3.441c-6.167-2.29-11.484-5.643-15.804-9.965
									c-4.321-4.319-7.673-9.592-9.963-15.671c-2.283-6.056-3.441-12.998-3.441-20.632V44.778c0-0.414,0.336-0.75,0.75-0.75
									H995.66c0.414,0,0.75,0.336,0.75,0.75v23.109c0,0.414-0.336,0.75-0.75,0.75H895.354v13.517h85.029
									c0.414,0,0.75,0.336,0.75,0.75v22.194c0,0.414-0.336,0.75-0.75,0.75h-83.452c1.394,4.127,3.8,7.352,7.163,9.594
									c3.642,2.428,9.102,3.66,16.229,3.66h75.336c0.414,0,0.75,0.336,0.75,0.75v23.37c0,0.414-0.336,0.75-0.75,0.75H919.805z"/>
							</g>
							<g>
								<path d="M995.66,44.778v23.109H894.604v15.017h85.779v22.194H895.91c1.392,4.789,3.981,8.443,7.769,10.968
									c3.787,2.525,9.338,3.786,16.646,3.786h75.336v23.37h-75.855c-7.574,0-14.408-1.13-20.502-3.395
									c-6.093-2.262-11.272-5.526-15.535-9.792c-4.265-4.263-7.529-9.399-9.791-15.405c-2.265-6.006-3.394-12.797-3.394-20.368
									V44.778H995.66 M995.66,43.278H870.583c-0.828,0-1.5,0.671-1.5,1.5v49.484c0,7.725,1.174,14.756,3.49,20.897
									c2.327,6.179,5.736,11.541,10.134,15.937c4.396,4.399,9.804,7.81,16.073,10.137c6.229,2.314,13.302,3.488,21.024,3.488
									h75.855c0.828,0,1.5-0.671,1.5-1.5v-23.37c0-0.829-0.672-1.5-1.5-1.5h-75.336c-6.977,0-12.297-1.189-15.813-3.534
									c-2.995-1.997-5.138-4.697-6.511-8.22h82.384c0.828,0,1.5-0.671,1.5-1.5V82.904c0-0.829-0.672-1.5-1.5-1.5h-84.279V69.387
									h99.556c0.828,0,1.5-0.671,1.5-1.5V44.778C997.16,43.95,996.488,43.278,995.66,43.278L995.66,43.278z"/>
							</g>
						</g>
						<g id="N_21_">
							<g>
								<path d="M827.761,143.972c-0.24,0-0.466-0.115-0.607-0.31c-13.401-18.494-26.786-33.786-39.783-45.449
									c-12.976-11.639-25.924-20.025-38.484-24.925l-3.05-1.105l-2.374-0.851c0.206,2.918,0.31,4.875,0.31,5.826v66.063
									c0,0.414-0.336,0.75-0.75,0.75h-23.37c-0.414,0-0.75-0.336-0.75-0.75V44.778c0-0.414,0.336-0.75,0.75-0.75h20.63
									c0.078,0,0.156,0.012,0.23,0.036c7.853,2.533,15.689,5.866,23.294,9.908c7.61,4.045,15.106,8.698,22.282,13.828
									c7.167,5.126,14.196,10.812,20.893,16.896c6.69,6.084,13.163,12.514,19.238,19.111l2.827,3.082
									c-0.142-1.832-0.211-3.24-0.211-4.272V44.778c0-0.414,0.336-0.75,0.75-0.75h23.505c0.414,0,0.75,0.336,0.75,0.75v98.443
									c0,0.414-0.336,0.75-0.75,0.75H827.761z"/>
							</g>
							<g>
								<path d="M853.09,44.778v98.443h-25.329c-13.496-18.625-26.792-33.813-39.89-45.567
									c-13.101-11.75-26.004-20.107-38.713-25.066c-0.958-0.347-1.98-0.718-3.067-1.111c-1.089-0.392-2.242-0.802-3.459-1.24
									c0.261,3.57,0.39,5.876,0.39,6.921v66.063h-23.37V44.778h20.63c7.833,2.526,15.56,5.81,23.173,9.856
									c7.616,4.049,15.015,8.64,22.197,13.775c7.182,5.137,14.123,10.751,20.824,16.842c6.702,6.094,13.101,12.45,19.191,19.064
									l4.312,4.699c-0.261-2.872-0.394-5.003-0.394-6.397V44.778H853.09 M853.09,43.278h-23.505c-0.828,0-1.5,0.671-1.5,1.5
									v57.839c0,0.603,0.023,1.331,0.07,2.191l-1.383-1.507c-6.092-6.615-12.581-13.061-19.288-19.16
									c-6.717-6.105-13.77-11.809-20.96-16.952c-7.202-5.149-14.728-9.819-22.366-13.88c-7.644-4.063-15.522-7.413-23.416-9.959
									c-0.149-0.048-0.305-0.072-0.461-0.072h-20.63c-0.828,0-1.5,0.671-1.5,1.5v98.443c0,0.829,0.672,1.5,1.5,1.5h23.37
									c0.828,0,1.5-0.671,1.5-1.5V77.158c0-0.85-0.076-2.407-0.232-4.733l1.294,0.464l1.735,0.628L748.647,74
									c12.442,4.854,25.313,13.193,38.222,24.772c12.958,11.627,26.307,26.879,39.677,45.331c0.282,0.389,0.734,0.62,1.215,0.62
									h25.329c0.828,0,1.5-0.671,1.5-1.5V44.778C854.59,43.95,853.918,43.278,853.09,43.278L853.09,43.278z"/>
							</g>
						</g>
						<g id="R_21_">
							<g>
								<path d="M674.476,143.972c-0.199,0-0.391-0.08-0.531-0.221l-37.773-37.902h-29.587c-0.414,0-0.75-0.336-0.75-0.75V82.904
									c0-0.414,0.336-0.75,0.75-0.75h55.881c4.653,0,8.326-1.228,10.914-3.65c2.441-2.287,4.09-5.604,4.907-9.867h-82.05v74.584
									c0,0.414-0.336,0.75-0.75,0.75h-24.022c-0.414,0-0.75-0.336-0.75-0.75V44.778c0-0.414,0.336-0.75,0.75-0.75h130.824
									c0.414,0,0.75,0.336,0.75,0.75V63.58c0,24.699-11.924,38.72-35.444,41.695L704,142.699c0.211,0.216,0.271,0.537,0.153,0.815
									c-0.117,0.277-0.389,0.458-0.69,0.458H674.476z"/>
							</g>
							<g>
								<path d="M702.288,44.778V63.58c0,24.895-12.1,38.604-36.296,41.125l37.471,38.517h-28.987l-37.993-38.123h-29.898V82.904
									h55.881c4.873,0,8.683-1.285,11.427-3.852c2.74-2.568,4.504-6.288,5.288-11.165h-83.693v75.334h-24.022V44.778H702.288
									 M702.288,43.278H571.464c-0.828,0-1.5,0.671-1.5,1.5v98.443c0,0.829,0.672,1.5,1.5,1.5h24.022c0.828,0,1.5-0.671,1.5-1.5
									V69.387h80.377c-0.836,3.676-2.345,6.554-4.497,8.57c-2.444,2.287-5.944,3.447-10.401,3.447h-55.881
									c-0.828,0-1.5,0.671-1.5,1.5v22.194c0,0.829,0.672,1.5,1.5,1.5h29.275l37.554,37.682c0.281,0.283,0.664,0.441,1.063,0.441
									h28.987c0.603,0,1.147-0.361,1.382-0.917c0.234-0.555,0.114-1.197-0.307-1.629l-35.372-36.359
									c22.977-3.421,34.622-17.617,34.622-42.236V44.778C703.788,43.95,703.116,43.278,702.288,43.278L702.288,43.278z"/>
							</g>
						</g>
						<g id="Y_41_">
							<g>
								<path d="M424.579,143.972c-0.414,0-0.75-0.336-0.75-0.75v-23.37c0-0.414,0.336-0.75,0.75-0.75h79.773
									c7.131,0,12.593-1.21,16.235-3.599c3.361-2.202,5.767-5.403,7.16-9.525H424.579c-0.414,0-0.75-0.336-0.75-0.75v-60.45
									c0-0.414,0.336-0.75,0.75-0.75h24.023c0.414,0,0.75,0.336,0.75,0.75v37.376h79.971V44.778c0-0.414,0.336-0.75,0.75-0.75
									h24.024c0.414,0,0.75,0.336,0.75,0.75v49.484c0,7.708-1.113,14.713-3.308,20.818c-2.203,6.126-5.49,11.403-9.771,15.683
									c-4.283,4.279-9.581,7.588-15.747,9.834c-6.144,2.239-13.258,3.375-21.146,3.375H424.579z"/>
							</g>
							<g>
								<path d="M554.098,44.778v49.484c0,7.66-1.089,14.515-3.264,20.564c-2.176,6.051-5.374,11.186-9.595,15.406
									c-4.226,4.222-9.382,7.441-15.474,9.66c-6.093,2.221-13.056,3.329-20.889,3.329h-80.298v-23.37h79.773
									c7.313,0,12.861-1.24,16.646-3.721c3.786-2.48,6.378-6.113,7.771-10.903h-104.19v-60.45h24.023v38.126h81.471V44.778
									H554.098 M554.098,43.278h-24.024c-0.828,0-1.5,0.671-1.5,1.5v36.626h-78.471V44.778c0-0.829-0.671-1.5-1.5-1.5h-24.023
									c-0.829,0-1.5,0.671-1.5,1.5v60.45c0,0.829,0.671,1.5,1.5,1.5H526.68c-1.373,3.512-3.513,6.189-6.503,8.148
									c-3.519,2.307-8.842,3.476-15.824,3.476h-79.773c-0.829,0-1.5,0.671-1.5,1.5v23.37c0,0.829,0.671,1.5,1.5,1.5h80.298
									c7.976,0,15.177-1.15,21.402-3.42c6.27-2.284,11.659-5.651,16.021-10.008c4.358-4.359,7.705-9.729,9.945-15.959
									c2.225-6.187,3.353-13.276,3.353-21.072V44.778C555.598,43.95,554.926,43.278,554.098,43.278L554.098,43.278z"/>
							</g>
						</g>
						<g id="B_21_">
							<g>
								<path d="M276,143.972c-0.414,0-0.75-0.336-0.75-0.75V44.778c0-0.414,0.336-0.75,0.75-0.75h104.06
									c18.344,0,27.645,8.643,27.645,25.688c0,6.927-1.521,12.46-4.521,16.446c-2.48,3.291-5.884,5.617-10.145,6.939
									c4.197,1.373,7.583,3.848,10.09,7.386c3.036,4.288,4.576,10.276,4.576,17.799c0,17.043-9.301,25.686-27.645,25.686H276z
									 M373.661,119.624c4.922,0,7.215-2.126,7.215-6.692c0-5.278-2.292-7.736-7.215-7.736h-56.793c-0.414,0-0.75-0.336-0.75-0.75
									v-20.89c0-0.414,0.336-0.75,0.75-0.75h56.793c4.922,0,7.215-2.437,7.215-7.667c0-4.435-2.292-6.501-7.215-6.501h-72.885
									v50.987H373.661z"/>
							</g>
							<g>
								<path d="M380.06,44.778c17.931,0,26.895,8.313,26.895,24.938c0,6.79-1.455,12.122-4.37,15.995
									c-2.919,3.873-7.118,6.333-12.601,7.377c5.396,1.043,9.572,3.655,12.533,7.833c2.958,4.178,4.438,9.967,4.438,17.365
									c0,16.625-8.964,24.936-26.895,24.936H276V44.778H380.06 M300.026,120.374h73.635c5.31,0,7.965-2.48,7.965-7.442
									c0-5.658-2.655-8.486-7.965-8.486h-56.793v-20.89h56.793c5.31,0,7.965-2.804,7.965-8.417c0-4.833-2.655-7.251-7.965-7.251
									h-73.635V120.374 M380.06,43.278H276c-0.829,0-1.5,0.671-1.5,1.5v98.443c0,0.829,0.671,1.5,1.5,1.5h104.06
									c18.841,0,28.395-8.894,28.395-26.436c0-7.681-1.586-13.815-4.713-18.232c-2.206-3.113-5.063-5.432-8.529-6.933
									c3.513-1.43,6.384-3.607,8.57-6.508c3.101-4.119,4.672-9.804,4.672-16.897C408.454,52.173,398.901,43.278,380.06,43.278
									L380.06,43.278z M301.526,69.387h72.135c4.471,0,6.465,1.773,6.465,5.751c0,4.784-1.994,6.917-6.465,6.917h-56.793
									c-0.829,0-1.5,0.671-1.5,1.5v20.89c0,0.829,0.671,1.5,1.5,1.5h56.793c4.471,0,6.465,2.155,6.465,6.986
									c0,4.11-1.994,5.942-6.465,5.942h-72.135V69.387L301.526,69.387z"/>
							</g>
						</g>
					</g>
				</g>
			</g>
		</g>
	</g>
</g>
<g id="Logo">
	<g id="Border__x28_Black_x29_">
		<path fill="#050609" d="M134.398,25.037l110.398,63.911v128.077L134.398,281L24,217.025V88.948L134.398,25.037 M134.398,23.537
			c-0.26,0-0.519,0.067-0.751,0.202L23.249,87.65c-0.463,0.269-0.749,0.763-0.749,1.298v128.077c0,0.535,0.285,1.03,0.748,1.298
			l110.398,63.975c0.232,0.135,0.492,0.202,0.752,0.202s0.52-0.067,0.752-0.202l110.398-63.975c0.463-0.268,0.748-0.763,0.748-1.298
			V88.948c0-0.535-0.285-1.03-0.749-1.298L135.15,23.739C134.917,23.604,134.658,23.537,134.398,23.537L134.398,23.537z"/>
	</g>
	<g id="Center_2_">
		<radialGradient id="Right_2_" cx="133.9429" cy="152.8472" r="64.2104" gradientUnits="userSpaceOnUse">
			<stop  offset="0" style="stop-color:#43BED0"/>
			<stop  offset="0.7" style="stop-color:#3AA7B2"/>
		</radialGradient>
		<polygon id="Right_4_" fill="url(#Right_2_)" points="134.398,217.025 134.398,152.631 189.753,121.385 189.753,184.936 		"/>
		<radialGradient id="Left_2_" cx="134.835" cy="152.8394" r="64.4937" gradientUnits="userSpaceOnUse">
			<stop  offset="0" style="stop-color:#43BED0"/>
			<stop  offset="0.7" style="stop-color:#33919B"/>
		</radialGradient>
		<polygon id="Left_4_" fill="url(#Left_2_)" points="134.398,217.025 134.398,152.631 79.367,121.373 79.374,184.936 		"/>
		<radialGradient id="Top_2_" cx="134.8936" cy="152.4556" r="63.2445" gradientUnits="userSpaceOnUse">
			<stop  offset="0" style="stop-color:#43BED0"/>
			<stop  offset="0.7" style="stop-color:#39A3B3"/>
		</radialGradient>
		<polygon id="Top_4_" fill="url(#Top_2_)" points="134.398,88.947 79.367,121.373 134.398,152.631 189.753,121.385 		"/>
	</g>
	<g id="Inner__x28_Shadowed_x29_">
		<linearGradient id="SVGID_2_" gradientUnits="userSpaceOnUse" x1="94.7339" y1="84.2642" x2="106.6544" y2="104.9111">
			<stop  offset="0" style="stop-color:#EFF9FB"/>
			<stop  offset="1" style="stop-color:#BBC4C8"/>
		</linearGradient>
		<polygon fill="url(#SVGID_2_)" points="134.398,61.363 55.189,107.371 79.367,121.373 134.398,88.948 		"/>
		<linearGradient id="SVGID_3_" gradientUnits="userSpaceOnUse" x1="161.4634" y1="200.3242" x2="174.7507" y2="223.3385">
			<stop  offset="0" style="stop-color:#78A2A3"/>
			<stop  offset="1" style="stop-color:#98CBCB"/>
		</linearGradient>
		<polygon fill="url(#SVGID_3_)" points="134.398,245.623 213.898,198.967 189.753,184.936 134.398,217.025 		"/>
		
			<linearGradient id="SVGID_4_" gradientUnits="userSpaceOnUse" x1="160.4404" y1="603.9785" x2="173.8169" y2="627.1473" gradientTransform="matrix(0.5 0.866 -0.866 0.5 550.3725 -240.6793)">
			<stop  offset="0" style="stop-color:#78A2A3"/>
			<stop  offset="1" style="stop-color:#98CBCB"/>
		</linearGradient>
		<polygon fill="url(#SVGID_4_)" points="55.189,199.061 134.398,245.623 134.398,217.025 79.374,184.936 		"/>
		
			<linearGradient id="SVGID_5_" gradientUnits="userSpaceOnUse" x1="93.896" y1="488.4453" x2="105.7432" y2="508.9653" gradientTransform="matrix(0.5 0.866 -0.866 0.5 550.2182 -241.2096)">
			<stop  offset="0" style="stop-color:#EFF9FB"/>
			<stop  offset="1" style="stop-color:#BBC4C8"/>
		</linearGradient>
		<polygon fill="url(#SVGID_5_)" points="213.898,107.371 134.398,61.363 134.422,88.947 189.753,121.385 		"/>
		<linearGradient id="SVGID_6_" gradientUnits="userSpaceOnUse" x1="55.189" y1="153.2158" x2="79.374" y2="153.2158">
			<stop  offset="0" style="stop-color:#CAE9F0"/>
			<stop  offset="1" style="stop-color:#9FB9BF"/>
		</linearGradient>
		<polygon fill="url(#SVGID_6_)" points="55.189,107.371 55.189,199.061 79.374,184.936 79.367,121.373 		"/>
		
			<linearGradient id="SVGID_7_" gradientUnits="userSpaceOnUse" x1="754.4063" y1="153.1689" x2="778.5508" y2="153.1689" gradientTransform="matrix(-1 0 0 1 968.3047 0)">
			<stop  offset="0" style="stop-color:#CAE9F0"/>
			<stop  offset="1" style="stop-color:#9FB9BF"/>
		</linearGradient>
		<polygon fill="url(#SVGID_7_)" points="213.898,107.371 213.898,198.967 189.753,184.936 189.753,121.385 		"/>
	</g>
	<g id="Outer_2_">
		
			<radialGradient id="Right_3_" cx="243.0171" cy="215.4741" r="73.9167" fx="239.1614" fy="214.8823" gradientTransform="matrix(-0.9397 -0.342 0.4282 -1.1764 379.1194 552.0708)" gradientUnits="userSpaceOnUse">
			<stop  offset="0.1827" style="stop-color:#2E4D7D"/>
			<stop  offset="0.4083" style="stop-color:#2E4F7E"/>
			<stop  offset="0.6131" style="stop-color:#315283"/>
			<stop  offset="0.8092" style="stop-color:#35588C"/>
			<stop  offset="1" style="stop-color:#396098"/>
		</radialGradient>
		<polygon id="Right_1_" fill="url(#Right_3_)" points="244.796,88.948 213.898,107.371 213.898,198.967 134.398,245.623 
			134.398,281 244.796,217.025 		"/>
		
			<radialGradient id="Left_3_" cx="25.6147" cy="215.9741" r="69.4549" fx="22.565" fy="210.2481" gradientTransform="matrix(-4.371139e-008 -1 0.8571 -3.746328e-008 -159.488 241.5889)" gradientUnits="userSpaceOnUse">
			<stop  offset="0.45" style="stop-color:#26436D"/>
			<stop  offset="1" style="stop-color:#2F507F"/>
		</radialGradient>
		<polygon id="Left_1_" fill="url(#Left_3_)" points="24,88.948 55.189,107.371 55.189,199.061 134.398,245.623 134.398,281 
			24,217.025 		"/>
		
			<radialGradient id="Top_3_" cx="134.3984" cy="26.3101" r="77.6809" gradientTransform="matrix(1.937906e-004 1 -1.5081 2.922575e-004 174.0508 -108.0961)" gradientUnits="userSpaceOnUse">
			<stop  offset="0.4038" style="stop-color:#33528E"/>
			<stop  offset="1" style="stop-color:#4068B1"/>
		</radialGradient>
		<polygon id="Top_1_" fill="url(#Top_3_)" points="55.189,107.371 24,88.948 134.398,25.037 244.796,88.948 213.898,107.371 
			134.398,61.363 		"/>
	</g>
</g>
<g id="Shine">
</g>
<g id="_x7B_Guides_x7D_">
</g>
</svg>
