<?xml version="1.0" encoding="utf-8"?>
<!-- Generator: Adobe Illustrator 14.0.0, SVG Export Plug-In . SVG Version: 6.00 Build 43363)  -->
<!DOCTYPE svg PUBLIC "-//W3C//DTD SVG 1.1//EN" "http://www.w3.org/Graphics/SVG/1.1/DTD/svg11.dtd">
<svg version="1.1" xmlns="http://www.w3.org/2000/svg" xmlns:xlink="http://www.w3.org/1999/xlink" x="0px" y="0px" width="128px"
	 height="128px" viewBox="0 0 128 128" enable-background="new 0 0 128 128" xml:space="preserve">
<g id="Grid_Lines">
</g>
<g id="Border">
	<rect x="3.522" y="3.528" fill="none" stroke="#C4D8EE" stroke-width="7" width="120.981" height="120.945"/>
</g>
<g id="Icon">
	<path fill="none" stroke="#C4D8EE" stroke-width="3" d="M106.939,56.538h-9.523c-0.876-3.935-2.438-7.612-4.542-10.915l6.747-6.752
		c1.567-1.563,0.485-5.2-2.428-8.108c-2.903-2.909-6.535-3.991-8.108-2.423l-6.752,6.747c-3.298-2.104-6.979-3.672-10.909-4.547
		v-9.519c0-2.22-3.339-4.021-7.453-4.021s-7.45,1.801-7.45,4.021v9.519c-3.938,0.875-7.614,2.443-10.917,4.547l-6.748-6.747
		c-1.567-1.568-5.202-0.486-8.112,2.423c-2.909,2.908-3.993,6.545-2.428,8.108l6.75,6.752c-2.104,3.303-3.667,6.98-4.542,10.915
		h-9.524c-2.216,0-4.019,3.338-4.019,7.455c0,4.107,1.803,7.445,4.019,7.445h9.524c0.874,3.94,2.437,7.617,4.542,10.92l-6.75,6.747
		c-1.565,1.573-0.481,5.2,2.428,8.108c2.908,2.913,6.545,4.001,8.112,2.428l6.75-6.747c3.301,2.109,6.978,3.662,10.915,4.542v9.523
		c0,2.216,3.336,4.021,7.45,4.021s7.453-1.806,7.453-4.021V97.44c3.93-0.881,7.611-2.438,10.909-4.547l6.752,6.747
		c1.573,1.573,5.205,0.485,8.108-2.428c2.913-2.908,3.995-6.535,2.428-8.108l-6.747-6.747c2.104-3.303,3.666-6.979,4.542-10.92
		h9.523c2.216,0,4.021-3.338,4.021-7.445C110.961,59.876,109.155,56.538,106.939,56.538z M63.974,80.987
		c-9.373,0-16.995-7.628-16.995-16.995c0-9.372,7.622-16.994,16.995-16.994c9.366,0,16.994,7.622,16.994,16.994
		C80.968,73.359,73.34,80.987,63.974,80.987z"/>
</g>
</svg>
