<?xml version="1.0" encoding="utf-8"?>
<!-- Generator: Adobe Illustrator 14.0.0, SVG Export Plug-In . SVG Version: 6.00 Build 43363)  -->
<!DOCTYPE svg PUBLIC "-//W3C//DTD SVG 1.1//EN" "http://www.w3.org/Graphics/SVG/1.1/DTD/svg11.dtd">
<svg version="1.1" id="Layered" xmlns="http://www.w3.org/2000/svg" xmlns:xlink="http://www.w3.org/1999/xlink" x="0px" y="0px"
	 width="504px" height="472.042px" viewBox="0 14.958 504 472.042" enable-background="new 0 14.958 504 472.042"
	 xml:space="preserve">
<g id="Screen_1">
	<g id="Shadow">
		<image overflow="visible" width="565" height="363" xlink:href="65F3C02B.png"  transform="matrix(1 0 0 1 -30 153)">
		</image>
	</g>
	<g id="Screen_3_">
		<polygon id="Botton_Screen" fill="#F7AF21" points="379.3,307.98 236.63,380.38 302.18,421.46 444.7,348.7 		"/>
		<polygon id="Top_Screen" fill="#F2C91C" points="47.69,262.23 236.63,380.38 379.3,307.98 190.646,190.957 		"/>
	</g>
	<g id="Case">
		<g id="Case_1_">
			<path id="Face_1_" fill="#2D2D2D" d="M495.81,360.184L388.523,293.84L186.825,168.243c-0.543-0.338-1.704-0.267-2.228-0.006
				L12.712,253.763c-1.915,1.034-2.415,2.894-2.556,4.187l309.82,194.105c4.181,2.352,8.931,1.32,11.49-0.076l167.363-85.669
				C498.927,365.328,498.875,362.344,495.81,360.184z M302.18,421.46L47.69,262.23l142.956-71.273L444.7,348.7L302.18,421.46z"/>
			<path id="Edge_3_" d="M497.229,367.129c1.584-0.707,1.448-2.837,1.448-2.837s0.261,1.161,0.152,2.018l-3.233,21.944
				c-0.174,1.262-0.58,1.684-1.201,2.038l-165.799,85.313c-3.252,1.864-10.314,1.427-13.576-0.635L8.74,283.17
				c-0.617-0.418-1.363-1.764-1.225-3.26l2.641-21.961c0.05-0.376,0.132-0.813,0.38-1.657c-0.156,0.772-0.021,1.849,0.62,2.239
				l308.422,193.308c3.391,1.974,7.797,2.224,11.888,0.14L497.229,367.129z"/>
		</g>
		<path id="Button_1_" fill="#3F3F3F" stroke="#262626" d="M386.572,393.883c-3.488,2.618-1.4,6.514,2.432,8.225
			c3.288,1.674,9.83,2.227,13.104,0.518c4.601-2.166,3.018-6.749-1.445-8.742C396.209,391.792,389.084,391.667,386.572,393.883z"/>
	</g>
	<g id="Apps_2_">
		<g id="Cube">
			<g>
				<g enable-background="new    ">
					<defs>
						<polygon id="SVGID_1_" enable-background="new    " points="223.18,346.895 98.799,276.737 201.125,221.4 325.506,291.557 
													"/>
					</defs>
					<clipPath id="SVGID_2_">
						<use xlink:href="#SVGID_1_"  overflow="visible"/>
					</clipPath>
					<g clip-path="url(#SVGID_2_)">
						<g>
							<g>
								<g>
									<polyline fill="#46BCCE" points="181.509,265.948 170.566,288.354 212.405,284.307 223,261.69 181.509,265.948 									
										"/>
									<polyline fill="#368E98" points="170.566,288.354 200.801,306.318 242.272,302.051 212.405,284.307 170.566,288.354 
																			"/>
									<polyline fill="#3DA6B1" points="223,261.69 212.405,284.307 242.272,302.051 253.241,279.652 223,261.69 									"/>
									<polyline fill="#C9E9EF" points="154.73,289.886 197.35,315.21 200.801,306.318 170.566,288.354 154.73,289.886 									
										"/>
									<polyline fill="#D1ECF2" points="227.008,253.127 223,261.69 253.241,279.652 269.628,278.451 227.008,253.127 									
										"/>
									<polyline fill="#EDF7FA" points="169.708,258.938 181.509,265.948 223,261.69 227.008,253.127 169.708,258.938 									
										"/>
									<polyline fill="#EDF7FA" points="169.708,258.938 154.73,289.886 170.566,288.354 181.509,265.948 169.708,258.938 
																			"/>
									<polyline fill="#98CBCB" points="200.801,306.318 197.35,315.21 254.513,309.322 242.272,302.051 200.801,306.318 
																			"/>
									<polyline fill="#98CBCB" points="253.241,279.652 242.272,302.051 254.513,309.322 269.628,278.451 253.241,279.652 
																			"/>
									<polyline fill="#4069B1" points="151.602,248.182 129.772,292.264 154.73,289.886 169.708,258.938 227.008,253.127 
										233.246,239.632 151.602,248.182 									"/>
									<polyline fill="#2E5080" points="129.661,292.316 190.424,328.418 272.69,320.119 254.513,309.322 197.35,315.21 
										154.73,289.886 129.661,292.316 									"/>
									<polyline fill="#386098" points="233.35,239.576 227.008,253.127 269.628,278.451 254.513,309.322 272.69,320.119 
										294.113,275.679 233.35,239.576 									"/>
								</g>
							</g>
						</g>
					</g>
				</g>
			</g>
		</g>
		<g id="Cog">
			<g>
				<g enable-background="new    ">
					<defs>
						<polygon id="SVGID_3_" enable-background="new    " points="343.401,381.574 306.363,360.683 341.166,341.861 
							378.204,362.753 						"/>
					</defs>
					<clipPath id="SVGID_4_">
						<use xlink:href="#SVGID_3_"  overflow="visible"/>
					</clipPath>
					<g clip-path="url(#SVGID_4_)">
						<g>
							<g>
								<g>
									<path fill="#DDDDDD" d="M338.861,359.784c-1.778,0.962-1.686,2.612,0.201,3.676c1.893,1.067,4.877,1.153,6.655,0.191
										s1.681-2.608-0.212-3.676C343.619,358.912,340.641,358.822,338.861,359.784"/>
									<path fill="#B7B7B7" d="M345.718,363.651c-1.778,0.962-4.763,0.876-6.655-0.191c-1.887-1.063-1.979-2.714-0.201-3.676
										c1.779-0.962,4.758-0.872,6.645,0.191C347.398,361.043,347.496,362.689,345.718,363.651 M338.135,359.374
										c-2.154,1.165-2.048,3.163,0.244,4.455c2.292,1.293,5.912,1.397,8.066,0.232c2.153-1.165,2.035-3.162-0.257-4.455
										S340.288,358.21,338.135,359.374"/>
									<path fill="#DDDDDD" d="M350.865,366.555c-4.449,2.406-11.912,2.195-16.646-0.476c-4.729-2.667-4.96-6.795-0.511-9.201
										c4.443-2.403,11.913-2.188,16.641,0.479C355.083,360.026,355.309,364.151,350.865,366.555 M326.211,350.752l-3.316,1.794
										c-0.246,0.133-0.233,0.358,0.028,0.506l1.572,0.887c0.608,0.343,0.801,0.935,0.43,1.337l-2.495,3.658
										c-0.057,0.139-0.219,0.299-0.458,0.428c-0.376,0.203-0.877,0.315-1.385,0.301l-2.147-0.063
										c-0.166-0.004-0.326,0.033-0.441,0.096c-0.113,0.062-0.186,0.147-0.18,0.241l0.157,2.679
										c0.005,0.099,0.079,0.188,0.204,0.259s0.286,0.113,0.457,0.114l2.337,0.074c0.832,0.021,1.723,0.393,2.001,0.85
										l2.607,3.191c0.422,0.395,0.309,0.977-0.282,1.296l-1.563,0.845c-0.239,0.13-0.227,0.354,0.035,0.503l3.529,1.99
										c0.262,0.148,0.669,0.16,0.908,0.03l1.563-0.846c0.585-0.316,1.64-0.373,2.402-0.127l6.708,1.668
										c0.768,0.128,1.448,0.613,1.481,1.088l0.063,1.232c0.011,0.189,0.318,0.362,0.668,0.369l4.839,0.14
										c0.178,0.007,0.338-0.03,0.453-0.092c0.112-0.062,0.182-0.147,0.176-0.241l-0.068-1.316
										c-0.016-0.287,0.202-0.572,0.591-0.782c0.228-0.123,0.502-0.213,0.797-0.257l5.685-1.2
										c0.687-0.197,1.745-0.083,2.367,0.268l1.631,0.92c0.262,0.147,0.668,0.159,0.914,0.026l3.317-1.794
										c0.24-0.13,0.233-0.358-0.028-0.506l-1.631-0.919c-0.622-0.352-0.807-0.938-0.418-1.345l2.445-3.551
										c0.056-0.139,0.225-0.295,0.464-0.425c0.376-0.203,0.883-0.317,1.392-0.303l2.109,0.067
										c0.167,0.003,0.325-0.035,0.44-0.098s0.188-0.149,0.187-0.242l-0.15-2.682c-0.012-0.096-0.087-0.185-0.212-0.255
										c-0.13-0.074-0.291-0.117-0.456-0.122l-2.229-0.061c-0.864-0.032-1.735-0.408-2.008-0.86l-2.664-3.291
										c-0.414-0.384-0.301-0.966,0.282-1.296l1.446-0.782c0.24-0.13,0.228-0.354-0.027-0.499l-3.529-1.99
										c-0.263-0.148-0.669-0.16-0.909-0.03l-1.44,0.779c-0.591,0.319-1.646,0.377-2.401,0.127l-6.772-1.67
										c-0.781-0.143-1.455-0.631-1.475-1.098l-0.063-1.109c-0.011-0.197-0.312-0.367-0.667-0.377l-4.847-0.144
										c-0.168-0.003-0.323,0.035-0.438,0.098c-0.117,0.063-0.191,0.152-0.189,0.249l0.073,1.205
										c0.013,0.287-0.238,0.585-0.622,0.793c-0.221,0.119-0.485,0.209-0.771,0.25l-5.614,1.191
										c-0.688,0.197-1.752,0.086-2.374-0.265l-1.571-0.887C326.864,350.631,326.452,350.622,326.211,350.752"/>
									<path fill="#B7B7B7" d="M350.139,366.145c-4.068,2.2-10.902,2.004-15.23-0.438c-4.329-2.442-4.535-6.216-0.467-8.416
										s10.896-2.007,15.225,0.435C353.994,360.167,354.206,363.944,350.139,366.145 M333.708,356.878
										c-4.449,2.406-4.218,6.534,0.511,9.201c4.734,2.671,12.197,2.882,16.646,0.476c4.443-2.403,4.218-6.528-0.517-9.198
										C345.621,354.689,338.151,354.475,333.708,356.878 M321.972,359.361c0.239-0.129,0.401-0.289,0.458-0.428l2.495-3.658
										c0.371-0.402,0.179-0.994-0.43-1.337l-1.572-0.887c-0.262-0.147-0.274-0.373-0.028-0.506l3.316-1.794
										c0.241-0.13,0.653-0.121,0.916,0.026l1.571,0.887c0.622,0.351,1.687,0.462,2.374,0.265l5.614-1.191
										c0.285-0.041,0.55-0.131,0.771-0.25c0.384-0.208,0.635-0.506,0.622-0.793l-0.073-1.205
										c-0.002-0.097,0.072-0.187,0.189-0.249c0.115-0.063,0.271-0.101,0.438-0.098l4.847,0.144
										c0.355,0.01,0.656,0.18,0.667,0.377l0.063,1.109c0.02,0.467,0.693,0.955,1.475,1.098l6.772,1.67
										c0.755,0.25,1.811,0.192,2.401-0.127l1.44-0.779c0.24-0.13,0.646-0.118,0.909,0.03l3.529,1.99
										c0.255,0.145,0.268,0.369,0.027,0.499l-1.446,0.782c-0.583,0.33-0.696,0.912-0.282,1.296l2.664,3.291
										c0.272,0.452,1.144,0.828,2.008,0.86l2.229,0.061c0.165,0.005,0.326,0.048,0.456,0.122c0.125,0.07,0.2,0.159,0.212,0.255
										l0.15,2.682c0.002,0.093-0.071,0.18-0.187,0.242s-0.273,0.101-0.44,0.098l-2.109-0.067c-0.509-0.015-1.016,0.1-1.392,0.303
										c-0.239,0.13-0.408,0.286-0.464,0.425l-2.445,3.551c-0.389,0.406-0.204,0.993,0.418,1.345l1.631,0.919
										c0.262,0.147,0.269,0.376,0.028,0.506l-3.317,1.794c-0.246,0.133-0.652,0.121-0.914-0.026l-1.631-0.92
										c-0.622-0.351-1.681-0.465-2.367-0.268l-5.685,1.2c-0.295,0.044-0.569,0.134-0.797,0.257
										c-0.389,0.21-0.606,0.495-0.591,0.782l0.068,1.316c0.006,0.094-0.063,0.18-0.176,0.241
										c-0.115,0.062-0.275,0.099-0.453,0.092l-4.839-0.14c-0.35-0.007-0.657-0.18-0.668-0.369l-0.063-1.232
										c-0.033-0.475-0.714-0.96-1.481-1.088l-6.708-1.668c-0.763-0.246-1.817-0.189-2.402,0.127l-1.563,0.846
										c-0.239,0.13-0.646,0.118-0.908-0.03l-3.529-1.99c-0.262-0.148-0.274-0.373-0.035-0.503l1.563-0.845
										c0.591-0.319,0.704-0.901,0.282-1.296l-2.607-3.191c-0.278-0.457-1.169-0.829-2.001-0.85l-2.337-0.074
										c-0.171-0.001-0.332-0.044-0.457-0.114s-0.199-0.16-0.204-0.259l-0.157-2.679c-0.006-0.094,0.066-0.18,0.18-0.241
										c0.115-0.063,0.275-0.1,0.441-0.096l2.147,0.063C321.095,359.677,321.596,359.564,321.972,359.361 M325.484,350.342
										l-3.316,1.794c-0.622,0.336-0.59,0.912,0.072,1.285l1.571,0.887c0.288,0.162,0.396,0.495,0.198,0.71l-2.537,3.716
										c-0.029,0.077-0.113,0.15-0.228,0.213c-0.188,0.102-0.459,0.171-0.696,0.164l-2.134-0.062
										c-0.438-0.013-0.844,0.082-1.136,0.24s-0.472,0.38-0.458,0.622l0.15,2.675c0.014,0.246,0.198,0.479,0.519,0.66
										c0.327,0.178,0.745,0.285,1.177,0.297l2.331,0.07c0.419,0.013,0.9,0.216,1.054,0.466l2.655,3.244
										c0.214,0.203,0.149,0.514-0.134,0.666l-1.563,0.846c-0.614,0.333-0.583,0.908,0.078,1.281l3.529,1.991
										c0.662,0.373,1.704,0.402,2.319,0.07l1.563-0.846c0.283-0.153,0.865-0.186,1.278-0.055l6.817,1.697
										c0.39,0.063,0.754,0.33,0.766,0.547l0.069,1.229c0.028,0.499,0.787,0.928,1.696,0.957l4.845,0.136
										c0.436,0.015,0.843-0.081,1.135-0.239c0.294-0.158,0.473-0.38,0.453-0.619l-0.067-1.31
										c-0.012-0.139,0.087-0.285,0.29-0.395c0.12-0.065,0.278-0.118,0.473-0.147l5.777-1.222c0.344-0.099,0.924-0.037,1.219,0.13
										l1.631,0.92c0.661,0.372,1.703,0.402,2.325,0.066l3.316-1.794c0.622-0.336,0.59-0.912-0.071-1.285l-1.631-0.92
										c-0.301-0.17-0.396-0.487-0.186-0.71l2.479-3.612c0.035-0.076,0.12-0.148,0.233-0.21c0.191-0.104,0.463-0.173,0.703-0.166
										l2.107,0.061c0.438,0.012,0.842-0.081,1.133-0.238s0.469-0.378,0.455-0.621l-0.15-2.682
										c-0.007-0.242-0.197-0.472-0.519-0.653c-0.32-0.181-0.732-0.291-1.177-0.304l-2.217-0.061
										c-0.426-0.016-0.9-0.222-1.055-0.472l-2.718-3.349c-0.207-0.199-0.142-0.509,0.141-0.669l1.44-0.778
										c0.621-0.336,0.583-0.909-0.072-1.278l-3.529-1.991c-0.661-0.373-1.696-0.405-2.318-0.069l-1.439,0.778
										c-0.289,0.156-0.859,0.189-1.285,0.051l-6.873-1.694c-0.398-0.075-0.762-0.334-0.773-0.559l-0.057-1.113
										c-0.035-0.502-0.794-0.93-1.696-0.956l-4.846-0.136c-0.437-0.015-0.842,0.078-1.136,0.236
										c-0.291,0.158-0.472,0.381-0.465,0.629l0.074,1.204c0.008,0.139-0.097,0.292-0.307,0.405
										c-0.118,0.063-0.271,0.115-0.455,0.145l-5.722,1.206c-0.336,0.103-0.917,0.039-1.211-0.126l-1.572-0.887
										C327.148,350.036,326.106,350.006,325.484,350.342"/>
								</g>
							</g>
						</g>
					</g>
				</g>
			</g>
		</g>
	</g>
	<polygon id="Shimmer" opacity="0.3" fill="#FFFFFF" points="47.69,262.23 190.646,190.957 444.7,348.7 	"/>
</g>
<g id="Screen_2">
	<g id="Screen_1_">
		<g id="Screen_2_">
			<polygon id="Screen__x28_1_x29_" fill="#EA6A63" points="118.356,226.732 275.16,323.88 343.061,289.98 185.832,192.387 			"/>
			<polygon id="Screen__x28_0_x29_" fill="#73E5A1" points="174.303,115.59 45.133,180.429 110.092,220.78 240.583,156.333 			"/>
			<polygon id="Screen__x28_2_x29_" fill="#05D3BF" points="264.25,232.313 317.73,205.473 248.56,161.952 194,188.2 			"/>
			<polygon id="Screen__x28_3_x29_" fill="#F39C12" points="323.626,209.211 270.125,236.063 350.08,286.51 403.17,259.23 			"/>
			<path id="Edge_5_" fill="#F7E9B0" d="M28.771,177.708l-0.788,7.671c-0.164,1.308-0.023,2.151,1.101,3.083l245.284,152.729
				c3.07,1.893,7.653,2.038,10.484,0.677c0,0,131.702-67.074,132.397-67.438c1.349-0.686,1.82-2.14,2.093-3.194
				c0,0,1.262-7.766,1.19-8.134c-0.021,0.379,0.124,0.555-0.485,1.129l-134.949,68.876c-3.129,1.144-6.379,0.8-9.323-1
				L28.771,177.708z"/>
			<path id="Frame" fill="#F2E29C" d="M418.733,260.264L171.375,106.875c-1.146-0.688-3.833-1-5.25-0.25l-136.014,68.93
				c-0.302,0.151-1.548,1.097-1.34,2.153l246.508,154.108c3.189,1.934,6.263,2.684,10.417,1.072l134.351-68.658
				C421.125,263.469,420.313,261.344,418.733,260.264z M317.73,205.473l-53.48,26.839L194,188.2l54.56-26.248L317.73,205.473z
				 M45.133,180.429l129.17-64.839l66.28,40.743L110.092,220.78L45.133,180.429z M275.16,323.88l-156.804-97.148l67.475-34.345
				l157.229,97.594L275.16,323.88z M350.08,286.51l-79.955-50.447l53.501-26.852l-0.292-0.184l0.292,0.184l0,0l0,0l79.544,50.02
				L350.08,286.51z"/>
		</g>
	</g>
	<g id="Apps_1_">
		<g id="Correspondence" opacity="0.8">
			<g>
				<g enable-background="new    ">
					<defs>
						<polygon id="SVGID_5_" enable-background="new    " points="335.633,264.454 301.961,245.462 333.599,228.352 
							367.271,247.344 						"/>
					</defs>
					<clipPath id="SVGID_6_">
						<use xlink:href="#SVGID_5_"  overflow="visible"/>
					</clipPath>
					<g clip-path="url(#SVGID_6_)">
						<g>
							<g>
								<g>
									<path fill="#A95C8D" d="M320.573,248.427l17.994-9.731c0.899-0.479,2.373-0.437,3.321,0.092l2.64,1.488
										c0.374,0.218,0.6,0.508,0.616,0.817l0.289,4.467l12.067,0.34c0.578,0.02,1.118,0.162,1.512,0.383
										c0.393,0.222,0.638,0.523,0.656,0.839c0.018,0.323-0.201,0.608-0.57,0.808c-0.363,0.196-0.883,0.311-1.468,0.294
										l-12.588-0.362l-8.024,4.339l0.408,6.949c0.019,0.323-0.2,0.607-0.569,0.808c-0.363,0.196-0.883,0.311-1.467,0.294
										c-0.578-0.014-1.106-0.162-1.5-0.383c-0.393-0.222-0.65-0.517-0.662-0.837l-0.374-6.67l-8.074-0.257
										c-0.578-0.013-1.112-0.158-1.512-0.383l-0.046-0.026l-2.548-1.437C319.739,249.724,319.688,248.913,320.573,248.427
										 M318.144,237.115c-0.794,0.43-1.268,1.04-1.229,1.728v0.015l-1.29,12.917c0.035,0.646,0.51,1.302,1.421,1.823
										l15.964,9.004c1.441,0.806,3.684,0.874,5.031,0.146l26.088-14.109c1.342-0.726,1.271-1.968-0.157-2.781l-15.964-9.004
										l0.172-0.093l-0.172,0.093c-0.918-0.518-2.103-0.79-3.27-0.823l-23.416,0.444l-0.02-0.004
										C320.052,236.438,318.938,236.686,318.144,237.115"/>
									<path fill="#824973" d="M320.939,248.633l17.994-9.731c0.708-0.383,1.864-0.35,2.61,0.071l2.633,1.485
										c0.282,0.166,0.459,0.381,0.473,0.62l-0.006,0.003l0.296,4.601c0.004,0.078,0.122,0.144,0.256,0.144l12.321,0.355
										c0.45,0.009,0.85,0.119,1.151,0.289c0.301,0.17,0.491,0.393,0.498,0.642c0.015,0.246-0.151,0.458-0.435,0.611
										c-0.277,0.15-0.671,0.241-1.116,0.228l-12.689-0.365l-0.169,0.034l-8.167,4.417l-0.071,0.096l0.413,7.005
										c0.014,0.246-0.158,0.462-0.441,0.615c-0.277,0.149-0.671,0.239-1.116,0.227c-0.443-0.013-0.844-0.122-1.145-0.292
										c-0.302-0.17-0.491-0.393-0.505-0.639l-0.383-6.812c0.002-0.073-0.116-0.14-0.255-0.144l-8.322-0.261
										c-0.444-0.013-0.843-0.122-1.15-0.296l-0.04-0.021l-0.006-0.004l-2.548-1.437
										C320.273,249.651,320.237,249.013,320.939,248.633 M338.567,238.695l-17.994,9.731c-0.886,0.486-0.834,1.297,0.102,1.833
										l2.548,1.437l0.046,0.026c0.399,0.225,0.934,0.37,1.512,0.383l8.074,0.257l0.374,6.67c0.012,0.32,0.27,0.615,0.662,0.837
										c0.394,0.221,0.922,0.369,1.5,0.383c0.584,0.017,1.104-0.098,1.467-0.294c0.369-0.2,0.588-0.484,0.569-0.808l-0.408-6.949
										l8.024-4.339l12.588,0.362c0.585,0.017,1.104-0.098,1.468-0.294c0.369-0.2,0.588-0.484,0.57-0.808
										c-0.019-0.316-0.264-0.618-0.656-0.839c-0.394-0.222-0.934-0.363-1.512-0.383l-12.067-0.34l-0.289-4.467
										c-0.017-0.309-0.242-0.599-0.616-0.817l-2.64-1.488C340.94,238.258,339.467,238.216,338.567,238.695 M317.777,236.909
										c-0.881,0.476-1.4,1.155-1.357,1.92h0.004l-1.297,12.904l0.001,0.014c0.028,0.716,0.558,1.456,1.58,2.033l15.964,9.005
										c0.819,0.461,1.866,0.713,2.901,0.738c1.036,0.033,2.071-0.157,2.834-0.57l26.088-14.108
										c1.532-0.829,1.446-2.251-0.185-3.17l-15.965-9.005l-0.166,0.09l-0.172,0.093l15.964,9.004
										c1.429,0.813,1.499,2.055,0.157,2.781l-26.088,14.109c-1.348,0.729-3.59,0.66-5.031-0.146l-15.964-9.004
										c-0.911-0.521-1.386-1.178-1.421-1.823l1.29-12.917v-0.015c-0.039-0.688,0.435-1.298,1.229-1.728
										c0.794-0.429,1.908-0.677,3.159-0.645l0.02,0.004l23.416-0.444c1.167,0.033,2.352,0.306,3.27,0.823l0.172-0.093l0.166-0.09
										c-1.021-0.576-2.352-0.885-3.646-0.915l-0.025,0l-23.386,0.444l-0.001-0.002
										C319.903,236.156,318.657,236.433,317.777,236.909"/>
								</g>
							</g>
						</g>
					</g>
				</g>
			</g>
		</g>
		<g id="Education">
			<g>
				<g enable-background="new    ">
					<defs>
						<polygon id="SVGID_7_" enable-background="new    " points="250.884,211.958 224.029,196.811 258.443,178.199 
							285.299,193.347 						"/>
					</defs>
					<clipPath id="SVGID_8_">
						<use xlink:href="#SVGID_7_"  overflow="visible"/>
					</clipPath>
					<g clip-path="url(#SVGID_8_)">
						<g>
							<g>
								<g>
									<path fill="#3B6AB3" d="M255.877,195.389l5.325-6.91l12.307,4.501c0,0,1.375,4.393-6.512,9.042
										c-8.692,4.317-15.802,3.047-15.802,3.047l-8.478-6.557l12.488-2.76l-0.006-0.003c0.157-0.027,0.295-0.065,0.418-0.132
										s0.2-0.145,0.247-0.228L255.877,195.389 M235.934,198.664l-2.037,0.429l8.459-10.956l20.017-4.444l-8.472,10.956
										l-16.531,3.622l8.574-8.124c0.526-0.477-0.262-0.67-0.632-0.47c-0.034,0.018-0.063,0.039-0.089,0.063L235.934,198.664
										 M241.236,187.505l-10.592,12.493l-0.012,0.021l-0.018,0.017h0.013c-0.134,0.217-0.037,0.476,0.297,0.664
										c0.327,0.185,0.793,0.244,1.196,0.178l-0.006,0.003l0.038-0.006l0.031-0.01l4.853-1.098l5.923,4.307
										c-0.318,0.446,1.167,1.583,0.926,3.514c0.592-0.167,2.778-0.135,3.604-0.582c0.036-0.02,0.07-0.04,0.101-0.062
										c-0.313-1.292-0.877-2.398-1.8-2.919c-0.53-0.299-1.248-0.432-1.925-0.406l-5.601-4.104l3.209-0.788l9.024,7.817
										c0.951,0.224,10.467-0.039,17.594-3.893c6.997-3.784,8.485-9.588,8.152-10.081l-14.512-4.697l3.887-5.09l0.012-0.014
										l0.012-0.021l-0.006,0.003c0.133-0.224,0.029-0.479-0.298-0.664c-0.334-0.188-0.794-0.25-1.195-0.178l-0.001-0.007
										l-0.031,0.01l-0.031,0.002L241.236,187.505"/>
								</g>
							</g>
						</g>
					</g>
				</g>
			</g>
		</g>
		<g id="Phone_Call">
			<g id="Phone_Call_1_">
				<g>
					<g enable-background="new    ">
						<defs>
							<polygon id="SVGID_9_" enable-background="new    " points="282.856,303.274 255.923,288.083 280.805,274.627 
								307.738,289.818 							"/>
						</defs>
						<clipPath id="SVGID_10_">
							<use xlink:href="#SVGID_9_"  overflow="visible"/>
						</clipPath>
						<g clip-path="url(#SVGID_10_)">
							<g>
								<g>
									<g>
										<path fill="#EDEDED" d="M280.752,287.143c-0.535,0.289-0.515,0.771,0.017,1.083c0.544,0.321,1.422,0.36,1.964,0.081
											l0.195,0.09l-0.177-0.1c0.511-0.276,0.496-0.76-0.041-1.069C282.166,286.906,281.288,286.867,280.752,287.143
											 M276.083,284.4c-0.221,0.119-0.216,0.313,0.006,0.438c0.224,0.134,0.586,0.146,0.801,0.037
											c2.639-1.354,6.948-1.174,9.624,0.396c0.104,0.066,0.246,0.105,0.398,0.109c0.152,0.005,0.29-0.02,0.395-0.076
											l0.195,0.097l-0.183-0.104c0.21-0.113,0.206-0.306-0.012-0.435c-1.515-0.889-3.511-1.43-5.627-1.515
											C279.558,283.26,277.568,283.634,276.083,284.4 M270.247,280.965c-0.216,0.117-0.211,0.317,0.013,0.442
											c0.104,0.066,0.246,0.105,0.399,0.11c0.151,0.004,0.29-0.021,0.401-0.073c2.811-1.447,6.557-2.149,10.561-1.985
											c3.998,0.168,7.776,1.185,10.629,2.861c0.112,0.063,0.254,0.102,0.4,0.109c0.152,0.005,0.296-0.022,0.401-0.079l0.189,0.1
											l-0.184-0.103c0.209-0.113,0.21-0.31-0.012-0.436c-3.069-1.806-7.132-2.9-11.441-3.08
											C277.302,278.655,273.267,279.412,270.247,280.965 M300.201,292.578c-0.746,0.381-1.637,0.66-2.655,0.82l-0.226,0.05
											c-9.992,1.381-20.976,0.925-30.972-1.273c-0.116-0.038-0.199-0.065-0.283-0.085c-1.016-0.239-1.923-0.588-2.677-1.034
											c-2.925-1.718-2.625-4.274-0.993-5.156l0.049-0.026c0.283-0.146,0.62-0.147,0.753-0.14
											c0.045,0.005,0.115,0.01,0.243,0.027l0.121,0.021l8.734,0.963l0.172,0.009c0.16,0.008,0.479,0.045,0.754,0.207
											c0.138,0.077,0.232,0.179,0.276,0.284l0.018,1.445c-0.018,0.487,0.307,0.948,0.896,1.295
											c0.552,0.324,1.305,0.531,2.067,0.574l0.147,0.021c3.36,0.434,6.817,0.575,10.296,0.416l0.114-0.004
											c0.787,0.022,1.521-0.121,2.069-0.403c0.572-0.31,0.861-0.704,0.862-1.132l0.003-0.066l-0.029-1.431
											c0.043-0.133,0.127-0.221,0.257-0.291c0.289-0.149,0.605-0.154,0.765-0.146l0.185,0.002l8.686-0.24l0.133-0.007
											c0.14-0.01,0.196-0.012,0.234-0.012c0.178,0.006,0.496,0.043,0.772,0.205l0.104,0.06c1.541,1.004,1.997,3.492-0.766,4.986
											L300.201,292.578 M261.632,285.4c-2.24,1.212-2.271,4.166,0.955,6.067c0.879,0.516,1.923,0.921,3.111,1.204l0.16,0.036
											l0.008,0.018c10.325,2.288,21.645,2.758,31.926,1.321l0.144-0.041c1.169-0.184,2.21-0.501,3.078-0.949l0.124-0.066
											c3.033-1.641,2.898-4.498,0.78-5.849l-0.144-0.081c-0.426-0.248-0.979-0.396-1.563-0.42
											c-0.147-0.008-0.305-0.002-0.495,0.014l-8.725,0.239c-0.622-0.024-1.174,0.079-1.587,0.294
											c-0.345,0.194-0.541,0.409-0.603,0.667l0.034,1.645h-0.012c-0.038,0.229-0.211,0.439-0.5,0.596
											c-0.381,0.199-0.878,0.286-1.387,0.265l-0.208,0.012c-3.346,0.152-6.683,0.018-9.927-0.405l-0.243-0.027
											c-0.495-0.021-0.985-0.154-1.346-0.365c-0.314-0.185-0.505-0.414-0.551-0.657l-0.006-0.004l-0.002-0.035v-0.108
											l-0.017-1.524c-0.064-0.248-0.274-0.495-0.616-0.694c-0.425-0.248-0.979-0.396-1.563-0.421l-8.755-0.967
											c-0.21-0.03-0.37-0.053-0.517-0.054C262.597,285.082,262.044,285.185,261.632,285.4"/>
										<path fill="#D3D3D3" d="M282.928,288.396l-0.195-0.09c-0.542,0.279-1.42,0.24-1.964-0.081
											c-0.531-0.313-0.552-0.794-0.017-1.083c0.536-0.275,1.414-0.236,1.958,0.085c0.537,0.31,0.552,0.793,0.041,1.069
											L282.928,288.396 M280.36,286.949c-0.694,0.376-0.665,1.032,0.058,1.46c0.74,0.432,1.935,0.479,2.662,0.107l0.031-0.017
											c0.695-0.376,0.672-1.028-0.043-1.452C282.32,286.605,281.125,286.558,280.36,286.949 M287.502,285.401l-0.195-0.097
											c-0.104,0.057-0.242,0.081-0.395,0.076c-0.152-0.004-0.295-0.043-0.398-0.109c-2.676-1.57-6.985-1.75-9.624-0.396
											c-0.215,0.109-0.577,0.097-0.801-0.037c-0.222-0.125-0.227-0.318-0.006-0.438c1.485-0.767,3.475-1.141,5.598-1.052
											c2.116,0.085,4.112,0.626,5.627,1.515c0.218,0.129,0.222,0.321,0.012,0.435L287.502,285.401 M275.711,284.197
											c-0.4,0.216-0.387,0.577,0.027,0.824c0.425,0.247,1.1,0.273,1.513,0.064c2.44-1.255,6.433-1.091,8.911,0.368
											c0.196,0.118,0.467,0.189,0.753,0.201c0.285,0.011,0.55-0.037,0.753-0.141l0.018-0.01
											c0.395-0.213,0.381-0.581-0.033-0.821c-1.606-0.946-3.73-1.52-5.98-1.612S277.307,283.377,275.711,284.197
											 M299.952,292.314l-0.111,0.054c-0.69,0.358-1.521,0.611-2.468,0.763c-0.102,0.018-0.208,0.039-0.252,0.056
											c-9.847,1.36-20.722,0.911-30.576-1.255c-0.098-0.034-0.2-0.064-0.31-0.093c-0.951-0.224-1.794-0.549-2.496-0.966
											c-2.682-1.573-2.437-3.978-0.978-4.767l-0.184-0.104l0.221,0.083c0.153-0.083,0.325-0.081,0.389-0.079l0.146,0.021
											l0.18,0.026l8.734,0.962l0.223,0.018c0.09,0.002,0.255,0.021,0.406,0.106c0.064,0.036,0.106,0.087,0.127,0.112
											l0.011,1.434c-0.015,0.536,0.365,1.076,1.047,1.481c0.649,0.38,1.499,0.614,2.485,0.682
											c3.411,0.441,6.933,0.585,10.505,0.417c0.915,0.027,1.769-0.138,2.465-0.493c0.615-0.333,0.951-0.789,0.955-1.283
											l-0.004-0.077l-0.034-1.406c0.021-0.049,0.063-0.093,0.138-0.133c0.142-0.077,0.307-0.079,0.396-0.076l0.234,0.003
											l8.712-0.24l0.171-0.013l0.139-0.003c0.089,0.002,0.256,0.021,0.4,0.109l0.116,0.06
											C302.142,288.634,302.438,290.97,299.952,292.314 M262.444,285.873l-0.049,0.026c-1.632,0.882-1.932,3.438,0.993,5.156
											c0.754,0.446,1.661,0.795,2.677,1.034c0.084,0.02,0.167,0.047,0.283,0.085c9.996,2.198,20.979,2.654,30.972,1.273
											l0.226-0.05c1.019-0.16,1.909-0.439,2.655-0.82l0.111-0.061c2.763-1.494,2.307-3.982,0.766-4.986l-0.104-0.06
											c-0.276-0.162-0.595-0.199-0.772-0.205c-0.038,0-0.095,0.002-0.234,0.012l-0.133,0.007l-8.686,0.24l-0.185-0.002
											c-0.159-0.008-0.476-0.003-0.765,0.146c-0.13,0.07-0.214,0.158-0.257,0.291l0.029,1.431l-0.003,0.066
											c-0.001,0.428-0.29,0.822-0.862,1.132c-0.548,0.282-1.282,0.426-2.069,0.403l-0.114,0.004
											c-3.479,0.159-6.936,0.018-10.296-0.416l-0.147-0.021c-0.763-0.043-1.516-0.25-2.067-0.574
											c-0.59-0.347-0.914-0.808-0.896-1.295l-0.018-1.445c-0.044-0.105-0.139-0.207-0.276-0.284
											c-0.275-0.162-0.594-0.199-0.754-0.207l-0.172-0.009l-8.734-0.963l-0.121-0.021c-0.128-0.018-0.198-0.022-0.243-0.027
											C263.064,285.726,262.728,285.727,262.444,285.873 M293.241,282.45l-0.189-0.1c-0.105,0.057-0.249,0.084-0.401,0.079
											c-0.146-0.008-0.288-0.046-0.4-0.109c-2.853-1.677-6.631-2.693-10.629-2.861c-4.004-0.164-7.75,0.538-10.561,1.985
											c-0.111,0.053-0.25,0.077-0.401,0.073c-0.153-0.005-0.295-0.044-0.399-0.11c-0.224-0.125-0.229-0.325-0.013-0.442
											c3.02-1.553,7.055-2.31,11.357-2.133c4.31,0.18,8.372,1.274,11.441,3.08c0.222,0.126,0.221,0.322,0.012,0.436
											L293.241,282.45 M269.874,280.762c-0.394,0.213-0.372,0.585,0.034,0.829c0.196,0.117,0.474,0.191,0.753,0.2
											c0.286,0.012,0.55-0.037,0.753-0.14c2.718-1.397,6.339-2.075,10.209-1.919c3.871,0.165,7.516,1.146,10.276,2.771
											c0.203,0.115,0.468,0.188,0.753,0.201c0.286,0.012,0.557-0.041,0.759-0.144l0.013-0.007
											c0.395-0.213,0.38-0.581-0.026-0.824c-3.168-1.861-7.353-2.991-11.795-3.171
											C277.166,278.375,273.006,279.155,269.874,280.762 M301.014,293.057c-0.868,0.448-1.909,0.766-3.078,0.949l-0.144,0.041
											c-10.281,1.437-21.601,0.967-31.926-1.321l-0.008-0.018l-0.16-0.036c-1.188-0.283-2.232-0.688-3.111-1.204
											c-3.227-1.901-3.195-4.855-0.955-6.067c0.412-0.216,0.965-0.318,1.556-0.292c0.146,0.001,0.307,0.023,0.517,0.054
											l8.755,0.967c0.584,0.024,1.139,0.173,1.563,0.421c0.342,0.199,0.552,0.446,0.616,0.694l0.017,1.524v0.108l0.002,0.035
											l0.006,0.004c0.046,0.243,0.236,0.473,0.551,0.657c0.36,0.211,0.851,0.344,1.346,0.365l0.243,0.027
											c3.244,0.423,6.581,0.558,9.927,0.405l0.208-0.012c0.509,0.021,1.006-0.065,1.387-0.265
											c0.289-0.156,0.462-0.366,0.5-0.596h0.012l-0.034-1.645c0.062-0.258,0.258-0.473,0.603-0.667
											c0.413-0.215,0.965-0.318,1.587-0.294l8.725-0.239c0.19-0.016,0.348-0.021,0.495-0.014
											c0.584,0.023,1.138,0.172,1.563,0.42l0.144,0.081c2.118,1.351,2.253,4.208-0.78,5.849L301.014,293.057 M261.277,285.188
											l-0.073,0.04c-2.333,1.261-2.392,4.403,1.038,6.42c0.886,0.52,1.936,0.935,3.125,1.232l-0.005,0.024l0.174,0.036
											c10.525,2.36,22.093,2.84,32.562,1.354l0.168-0.048c1.174-0.193,2.215-0.525,3.097-0.979l0.136-0.073
											c3.28-1.774,3.035-4.904,0.628-6.315l-0.189-0.101c-0.489-0.242-1.094-0.386-1.729-0.411
											c-0.185-0.009-0.38-0.004-0.582,0.012l-8.667,0.245c-0.725-0.035-1.403,0.093-1.951,0.374
											c-0.388,0.21-0.626,0.484-0.709,0.818l0.032,1.364l-0.02-0.004l0.021,0.162c0.02,0.214-0.104,0.41-0.393,0.566
											c-0.308,0.16-0.768,0.22-1.221,0.161l-0.37-0.045l0.03,0.085c-3.113,0.127-6.221,0.006-9.248-0.375l0.039-0.087
											l-0.366,0.018c-0.456,0.022-0.917-0.075-1.245-0.267c-0.282-0.166-0.435-0.395-0.402-0.622l0.016-0.182l-0.02,0.003
											l-0.013-1.347c-0.088-0.328-0.353-0.634-0.772-0.877c-0.511-0.303-1.187-0.486-1.879-0.517l-8.704-0.959
											c-0.217-0.034-0.415-0.058-0.605-0.063C262.46,284.801,261.782,284.929,261.277,285.188"/>
									</g>
								</g>
							</g>
						</g>
					</g>
				</g>
			</g>
			<g id="Path">
				<g>
					<g enable-background="new    ">
						<defs>
							<polygon id="SVGID_11_" enable-background="new    " points="258.293,274.891 208.099,246.579 214.819,242.944 
								265.014,271.256 							"/>
						</defs>
						<clipPath id="SVGID_12_">
							<use xlink:href="#SVGID_11_"  overflow="visible"/>
						</clipPath>
						<g clip-path="url(#SVGID_12_)">
							<g>
								<g>
									<g>
										<path fill="#EDEDED" d="M260.617,273.033l-0.6-0.284c-1.029,0.535-2.739,0.461-3.788-0.157
											c-1.023-0.605-1.063-1.531-0.022-2.094c0.499-0.256,1.171-0.38,1.883-0.353c0.718,0.031,1.395,0.216,1.899,0.514
											c1.03,0.608,1.068,1.535,0.084,2.067L260.617,273.033 M255.139,269.868l-0.074,0.04c-1.539,0.832-1.489,2.281,0.111,3.224
											c1.639,0.966,4.296,1.078,5.911,0.248l0.073-0.04c1.539-0.832,1.489-2.274-0.117-3.222
											c-0.793-0.468-1.849-0.75-2.955-0.797C256.969,269.275,255.921,269.467,255.139,269.868"/>
										<path fill="#EDEDED" d="M246.248,264.562l-0.599-0.284c-0.5,0.256-1.17,0.388-1.889,0.355
											c-0.719-0.031-1.395-0.215-1.9-0.514c-1.023-0.604-1.063-1.53-0.022-2.093c0.5-0.256,1.171-0.38,1.889-0.349
											c0.712,0.027,1.388,0.211,1.893,0.51c1.03,0.608,1.063,1.531,0.078,2.063L246.248,264.562 M240.775,261.399l-0.074,0.04
											c-1.539,0.832-1.495,2.277,0.105,3.221c0.794,0.469,1.849,0.751,2.968,0.797c1.112,0.05,2.16-0.148,2.943-0.549
											l0.074-0.04c1.539-0.832,1.483-2.278-0.117-3.222c-0.794-0.468-1.849-0.75-2.956-0.797
											C242.6,260.804,241.559,260.998,240.775,261.399"/>
										<path fill="#EDEDED" d="M231.879,256.089l-0.6-0.283c-0.5,0.255-1.17,0.387-1.889,0.355
											c-0.718-0.031-1.394-0.215-1.899-0.514c-1.023-0.604-1.063-1.531-0.023-2.093c0.5-0.256,1.171-0.38,1.883-0.353
											c0.718,0.031,1.395,0.215,1.899,0.514c1.03,0.608,1.069,1.534,0.084,2.066L231.879,256.089 M226.4,252.924l-0.074,0.04
											c-1.538,0.832-1.489,2.281,0.111,3.225c0.794,0.468,1.85,0.751,2.968,0.797c1.112,0.05,2.16-0.148,2.943-0.55l0.074-0.04
											c1.539-0.832,1.489-2.274-0.118-3.221c-0.793-0.468-1.849-0.751-2.962-0.801
											C228.231,252.332,227.184,252.522,226.4,252.924"/>
										<path fill="#EDEDED" d="M217.51,247.617l-0.599-0.284c-1.036,0.531-2.739,0.461-3.788-0.158
											c-1.023-0.604-1.056-1.534-0.022-2.093c0.499-0.256,1.171-0.38,1.882-0.353c0.718,0.031,1.395,0.215,1.899,0.514
											c1.03,0.608,1.063,1.531,0.078,2.063L217.51,247.617 M212.032,244.452l-0.068,0.037c-1.545,0.835-1.495,2.285,0.105,3.228
											c1.639,0.965,4.296,1.077,5.911,0.247l0.074-0.04c1.539-0.832,1.489-2.274-0.117-3.221c-0.793-0.468-1.849-0.75-2.962-0.8
											C213.856,243.856,212.814,244.051,212.032,244.452"/>
									</g>
								</g>
							</g>
						</g>
					</g>
				</g>
			</g>
			<g id="User">
				<g>
					<g enable-background="new    ">
						<defs>
							<polygon id="SVGID_13_" enable-background="new    " points="185.269,247.212 148.625,226.543 183.057,207.922 
								219.701,228.591 							"/>
						</defs>
						<clipPath id="SVGID_14_">
							<use xlink:href="#SVGID_13_"  overflow="visible"/>
						</clipPath>
						<g clip-path="url(#SVGID_14_)">
							<g>
								<g>
									<g>
										<path fill="#EDEDED" d="M172.646,221.517c1.12-0.605,1.483-1.026,1.781-1.361c0.203-0.226,0.334-0.376,0.672-0.559
											l0.074-0.041c0.875-0.452,2.142-0.58,3.575-0.363c1.701,0.252,3.542,0.957,5.469,2.099
											c4.132,2.439,4.617,3.393,5.352,4.84l0.1,0.192c0.191,0.359,0.384,0.748,0.663,1.19c0.552,0.91,1.451,1.56,2.676,1.931
											c1.575,0.487,3.612,0.514,6.403,0.083c2.256-0.352,5.224-0.358,7.313-0.301l0.273,0.011l-0.017,0.147
											c-0.324,2.924-2.507,5.617-6.138,7.581c-0.135,0.073-0.271,0.139-0.406,0.212c-3.828,1.961-8.954,3.041-14.408,3.038
											l-0.292-0.001l0.022-0.157c0.245-2.194,0.729-3.05,2.069-4.932c1.458-2.047,0.278-3.739-3.247-4.64
											c-0.676-0.177-1.381-0.316-1.997-0.439c-2.488-0.499-5.221-1.047-9.234-3.414c-4.486-2.652-2.94-3.916-1.143-4.887
											L172.646,221.517 M183.972,240.157l-0.235-0.01c-5.91-0.334-11.469-1.879-15.652-4.348
											c-8.902-5.262-9.165-13.006-0.596-17.641c0.131-0.071,0.264-0.141,0.399-0.21c8.876-4.54,23.387-3.923,32.366,1.379
											c4.132,2.439,6.526,5.565,6.746,8.796l0.014,0.137l-0.248-0.003c-2.261-0.065-5.469-0.06-7.958,0.325
											c-2.294,0.358-3.942,0.367-5.046,0.023c-0.793-0.244-1.37-0.677-1.761-1.333c-0.287-0.467-0.5-0.873-0.685-1.243
											l-0.05-0.096c-0.784-1.537-1.354-2.647-5.8-5.278c-6.689-3.95-10.791-2.224-11.542-1.839l-0.099,0.054
											c-0.529,0.286-0.756,0.532-0.982,0.792c-0.263,0.294-0.542,0.619-1.502,1.138l-0.363,0.196
											c-1.477,0.799-4.948,2.676,1.145,6.276c4.322,2.554,7.419,3.172,9.908,3.671l0.135,0.028
											c0.635,0.127,1.238,0.25,1.791,0.392c1.255,0.32,2.058,0.725,2.46,1.238c0.45,0.574,0.375,1.259-0.23,2.107
											c-1.328,1.869-1.929,2.802-2.194,5.317L183.972,240.157 M166.634,217.208c-0.142,0.077-0.289,0.156-0.431,0.233
											c-9.226,4.989-8.947,13.333,0.641,18.992c9.667,5.711,25.297,6.375,34.846,1.486c0.154-0.076,0.295-0.153,0.443-0.233
											c9.065-4.902,8.783-13.425-0.642-18.992C191.824,212.983,176.188,212.315,166.634,217.208"/>
										<path fill="#D3D3D3" d="M200.473,236.759c-0.128,0.069-0.258,0.138-0.391,0.206c-3.679,1.889-8.579,2.939-13.809,2.975
											c0.247-2.05,0.716-2.847,2.026-4.691c1.569-2.208,0.281-4.037-3.541-5.016c-0.695-0.174-1.407-0.317-2.112-0.457
											c-2.359-0.475-5.027-1.007-8.937-3.321c-4.178-2.465-2.845-3.577-1.134-4.502l0.431-0.233
											c1.175-0.636,1.556-1.073,1.873-1.425c0.166-0.19,0.263-0.321,0.521-0.46c0.039-0.021,0.082-0.042,0.128-0.064
											c0.758-0.388,1.861-0.5,3.128-0.31c1.579,0.231,3.381,0.928,5.218,2.012c4.033,2.384,4.504,3.309,5.217,4.717l0.1,0.192
											c0.185,0.362,0.385,0.754,0.67,1.2c0.601,0.985,1.584,1.69,2.934,2.104c1.703,0.526,3.861,0.56,6.785,0.107
											c2.193-0.34,5.149-0.339,6.889-0.296C206.086,232.299,203.975,234.865,200.473,236.759 M175.174,219.556l-0.074,0.041
											c-0.338,0.183-0.47,0.333-0.672,0.559c-0.298,0.335-0.662,0.756-1.781,1.361l-0.438,0.229
											c-1.797,0.972-3.343,2.235,1.143,4.887c4.013,2.366,6.746,2.915,9.234,3.414c0.616,0.123,1.321,0.263,1.997,0.439
											c3.525,0.901,4.705,2.593,3.247,4.64c-1.34,1.882-1.824,2.738-2.069,4.932l-0.022,0.157l0.292,0.001
											c5.454,0.003,10.58-1.077,14.408-3.038c0.135-0.073,0.271-0.139,0.406-0.212c3.631-1.964,5.814-4.656,6.138-7.581
											l0.017-0.147l-0.273-0.011c-2.089-0.057-5.057-0.051-7.313,0.301c-2.792,0.432-4.829,0.404-6.403-0.083
											c-1.226-0.372-2.125-1.021-2.676-1.931c-0.278-0.442-0.472-0.831-0.663-1.19l-0.1-0.192
											c-0.735-1.447-1.219-2.401-5.352-4.84c-1.928-1.142-3.769-1.847-5.469-2.099
											C177.316,218.977,176.049,219.104,175.174,219.556 M183.498,239.856c-5.682-0.35-11.023-1.853-15.063-4.24
											c-8.695-5.139-8.947-12.727-0.596-17.243c0.133-0.072,0.271-0.145,0.409-0.215c8.672-4.444,22.872-3.839,31.647,1.349
											c3.987,2.351,6.325,5.355,6.594,8.465c-2.267-0.054-5.392-0.036-7.85,0.346c-2.163,0.337-3.684,0.35-4.664,0.048
											c-0.665-0.205-1.155-0.583-1.505-1.162c-0.28-0.464-0.493-0.863-0.678-1.232l-0.043-0.092
											c-0.776-1.519-1.396-2.718-5.934-5.4c-7.024-4.152-11.435-2.289-12.255-1.874l-0.104,0.057
											c-0.584,0.316-0.829,0.593-1.08,0.873c-0.25,0.28-0.5,0.575-1.399,1.061l-0.363,0.196c-1.44,0.779-5.28,2.856,1.148,6.658
											c4.419,2.609,7.588,3.24,10.134,3.751l0.062-0.128l0.073,0.156c0.622,0.127,1.206,0.245,1.752,0.384
											c1.119,0.285,1.83,0.638,2.178,1.079c0.39,0.499,0.311,1.12-0.242,1.896C184.391,236.45,183.779,237.396,183.498,239.856
											 M167.488,218.158c-8.568,4.634-8.306,12.379,0.596,17.641c4.184,2.469,9.743,4.014,15.652,4.348l0.235,0.01l0.018-0.133
											c0.265-2.516,0.866-3.448,2.194-5.317c0.605-0.848,0.681-1.533,0.23-2.107c-0.403-0.513-1.206-0.918-2.46-1.238
											c-0.553-0.142-1.156-0.265-1.791-0.392l-0.135-0.028c-2.488-0.5-5.585-1.118-9.908-3.671
											c-6.093-3.6-2.622-5.477-1.145-6.276l0.363-0.196c0.96-0.519,1.24-0.844,1.502-1.138c0.226-0.26,0.454-0.506,0.982-0.792
											l0.099-0.054c0.752-0.385,4.853-2.11,11.542,1.839c4.447,2.631,5.017,3.741,5.8,5.278l0.05,0.096
											c0.186,0.37,0.398,0.776,0.685,1.243c0.392,0.656,0.968,1.09,1.761,1.333c1.104,0.344,2.752,0.335,5.046-0.023
											c2.489-0.384,5.697-0.39,7.958-0.325l0.248,0.003l-0.014-0.137c-0.22-3.231-2.614-6.356-6.746-8.796
											c-8.979-5.302-23.49-5.919-32.366-1.379C167.751,218.018,167.619,218.087,167.488,218.158 M202.133,237.686
											c-0.148,0.08-0.289,0.157-0.443,0.233c-9.549,4.888-25.178,4.225-34.846-1.486c-9.588-5.66-9.866-14.003-0.641-18.992
											c0.142-0.077,0.289-0.156,0.431-0.233c9.554-4.892,25.19-4.225,34.857,1.486
											C210.917,224.261,211.198,232.784,202.133,237.686 M165.847,217.229c-9.396,5.082-9.141,13.604,0.647,19.386
											c9.857,5.826,25.811,6.501,35.557,1.514c0.148-0.08,0.289-0.156,0.45-0.236c9.25-5.002,8.952-13.697-0.664-19.378
											c-9.857-5.825-25.805-6.505-35.557-1.514C166.133,217.077,165.989,217.152,165.847,217.229"/>
									</g>
								</g>
							</g>
						</g>
					</g>
				</g>
			</g>
		</g>
		<g id="Gaming">
			<g>
				<g enable-background="new    ">
					<defs>
						<polygon id="SVGID_15_" enable-background="new    " points="140.827,194.504 98.099,170.403 154.256,140.033 
							196.984,164.134 						"/>
					</defs>
					<clipPath id="SVGID_16_">
						<use xlink:href="#SVGID_15_"  overflow="visible"/>
					</clipPath>
					<g clip-path="url(#SVGID_16_)">
						<g>
							<g>
								<g>
									<path fill="#F68121" d="M161.753,163.11c-1.948,0.887-4.899,0.718-6.779-0.343c-0.098-0.055-0.19-0.114-0.282-0.173
										c-1.771-1.155-1.723-2.78,0.05-3.738c0.092-0.05,0.191-0.096,0.29-0.143c1.948-0.88,4.906-0.721,6.792,0.343
										c0.091,0.052,0.19,0.114,0.282,0.173c1.764,1.158,1.703,2.783-0.063,3.738C161.95,163.018,161.852,163.064,161.753,163.11
										l-0.422-0.279L161.753,163.11 M166.083,156.999c-1.948,0.887-4.899,0.718-6.778-0.342
										c-0.098-0.055-0.203-0.114-0.295-0.173c-1.757-1.155-1.716-2.776,0.057-3.735c0.092-0.05,0.191-0.096,0.296-0.146
										c1.942-0.876,4.893-0.722,6.779,0.342c0.098,0.055,0.19,0.114,0.282,0.173c1.771,1.155,1.716,2.784-0.05,3.739
										C166.281,156.906,166.182,156.953,166.083,156.999l-0.428-0.275L166.083,156.999 M153.676,157.827
										c-1.954,0.883-4.899,0.718-6.785-0.346c-0.098-0.055-0.19-0.114-0.283-0.172c-1.764-1.152-1.715-2.777,0.057-3.735
										c0.092-0.05,0.191-0.096,0.29-0.142c1.948-0.88,4.899-0.725,6.785,0.339c0.099,0.055,0.19,0.114,0.282,0.173
										c1.765,1.158,1.71,2.787-0.056,3.742C153.874,157.734,153.775,157.78,153.676,157.827l-0.421-0.278L153.676,157.827
										 M124.262,168.937l-3.278-2.148l-0.316-0.206c-0.118-0.073-0.174-0.166-0.167-0.257c0.012-0.082,0.068-0.155,0.165-0.207
										c0.014-0.008,0.028-0.015,0.044-0.021l0.352-0.162l4.075-1.849l0.353-0.162c0.253-0.116,0.655-0.086,0.885,0.064
										l0.322,0.209l3.278,2.148l3.617-1.645l0.353-0.155c0.117-0.056,0.287-0.083,0.452-0.071
										c0.166,0.012,0.327,0.062,0.433,0.135l0.323,0.209l3.686,2.413l0.316,0.205c0.219,0.143,0.212,0.35-0.008,0.469
										c-0.011,0.006-0.022,0.012-0.035,0.017l-0.353,0.162l-3.61,1.642l3.271,2.145l0.323,0.209
										c0.219,0.143,0.212,0.35-0.013,0.472c-0.011,0.006-0.023,0.012-0.036,0.018l-0.346,0.158l-4.075,1.849l-0.359,0.158
										c-0.253,0.115-0.654,0.086-0.885-0.064l-0.323-0.209l-3.271-2.145l-3.618,1.638l-0.353,0.162
										c-0.253,0.115-0.654,0.086-0.885-0.064l-0.322-0.209l-3.687-2.413l-0.316-0.206c-0.112-0.077-0.174-0.166-0.161-0.26
										c0.007-0.08,0.062-0.152,0.163-0.206c0.015-0.008,0.03-0.016,0.046-0.023l0.346-0.158L124.262,168.937 M115.646,161.934
										c-0.009,0.005-0.017,0.009-0.026,0.014c-1.464,0.792-2.675,1.816-3.354,3.174c-0.672,1.355-0.806,3.041-0.084,5.154
										c2.602,7.615,10.857,13.243,15.788,16.024c1.971,1.112,3.409,1.767,3.722,1.909l0.059,0.026l0.039,0.015
										c1.773,0.864,3.566,1.399,5.216,1.527c1.656,0.125,3.22-0.128,4.722-0.933l0.025-0.014c0.005-0.002,0.01-0.005,0.015-0.007
										c0.555-0.3,1.063-0.972,1.417-1.823c0.364-0.862,0.604-1.903,0.747-2.958c0.3-2.102,0.231-4.242,0.197-5.084
										c-0.014-0.239-0.028-0.376-0.028-0.376c-0.029-0.404,0.144-0.823,0.433-1.218c0.288-0.395,0.699-0.762,1.204-1.035
										c0.074-0.04,0.148-0.08,0.228-0.116l19.088-8.666c0.575-0.26,1.351-0.441,2.164-0.541c0.819-0.103,1.673-0.124,2.446-0.028
										c0,0,0.185,0.023,0.517,0.061c0.338,0.041,0.83,0.094,1.43,0.16c1.206,0.129,2.864,0.296,4.698,0.447
										c3.65,0.297,8.013,0.521,10.597,0.252c0.738-0.081,1.321-0.194,1.681-0.331c0.379-0.14,0.707-0.288,0.996-0.444
										c1.175-0.643,1.635-1.376,1.575-2.219c-0.079-0.84-0.709-1.794-1.817-2.779l-0.021-0.018l-0.034-0.033l-0.101-0.097
										c-0.087-0.09-0.228-0.217-0.409-0.387c-0.367-0.33-0.92-0.812-1.664-1.401c-1.486-1.171-3.726-2.774-6.712-4.459
										c-4.747-2.678-11.391-5.575-19.962-7.364l0.185-0.324l-0.185,0.324c-4.401-0.919-7.929-1.073-10.779-0.776
										c-2.843,0.293-5.021,1.037-6.701,1.946c-3.748,2.02-4.945,4.88-5.066,5.207l-0.011,0.028
										c-0.264,0.729-1.13,1.573-2.101,2.105c-0.093,0.05-0.185,0.1-0.278,0.143l-0.006,0.004l-3.185,1.44
										c-0.556,0.257-1.306,0.467-2.102,0.623c-0.804,0.152-1.635,0.254-2.389,0.257l-0.07,0.001l-0.234,0.003
										c-0.215,0.008-0.525,0.017-0.911,0.037c-0.771,0.041-1.856,0.129-3.091,0.29
										C121.049,160.006,118.005,160.658,115.646,161.934"/>
									<path fill="#D86B21" d="M154.742,158.856c-1.772,0.958-1.82,2.583-0.05,3.738c0.092,0.059,0.184,0.118,0.282,0.173
										c1.879,1.061,4.831,1.229,6.779,0.343l-0.422-0.279l-0.427-0.275c-1.453,0.663-3.66,0.54-5.068-0.254
										c-0.072-0.041-0.145-0.088-0.21-0.132c-1.33-0.866-1.283-2.077,0.04-2.793c0.068-0.037,0.136-0.073,0.216-0.109
										c1.447-0.659,3.667-0.536,5.075,0.258c0.071,0.041,0.144,0.081,0.209,0.125c1.33,0.866,1.277,2.087-0.04,2.8
										c-0.067,0.037-0.142,0.069-0.222,0.105l0.427,0.275l0.422,0.279c0.099-0.046,0.197-0.093,0.29-0.143
										c1.766-0.956,1.827-2.58,0.063-3.738c-0.092-0.059-0.191-0.121-0.282-0.173c-1.886-1.064-4.844-1.223-6.792-0.343
										C154.933,158.76,154.834,158.806,154.742,158.856 M159.066,152.748c-1.772,0.959-1.814,2.581-0.057,3.735
										c0.092,0.059,0.197,0.118,0.295,0.173c1.879,1.061,4.831,1.229,6.778,0.342l-0.428-0.275l-0.421-0.279
										c-1.459,0.667-3.661,0.54-5.068-0.254c-0.079-0.044-0.151-0.085-0.217-0.129c-1.323-0.869-1.283-2.077,0.04-2.792
										c0.074-0.04,0.142-0.076,0.216-0.109c1.453-0.663,3.666-0.543,5.074,0.251c0.072,0.041,0.145,0.088,0.217,0.129
										c1.316,0.865,1.277,2.087-0.04,2.8c-0.074,0.04-0.148,0.073-0.222,0.105l0.421,0.279l0.428,0.275
										c0.099-0.046,0.198-0.092,0.29-0.142c1.766-0.955,1.821-2.583,0.05-3.739c-0.092-0.059-0.184-0.118-0.282-0.173
										c-1.886-1.064-4.837-1.219-6.779-0.342C159.257,152.652,159.158,152.698,159.066,152.748 M146.665,153.573
										c-1.772,0.958-1.821,2.583-0.057,3.735c0.092,0.058,0.185,0.117,0.283,0.172c1.886,1.064,4.831,1.229,6.785,0.346
										l-0.421-0.278l-0.428-0.275c-1.453,0.663-3.654,0.537-5.075-0.258c-0.072-0.041-0.138-0.084-0.21-0.132
										c-1.323-0.862-1.284-2.077,0.04-2.793c0.067-0.037,0.148-0.073,0.222-0.105c1.447-0.659,3.667-0.543,5.074,0.251
										c0.072,0.041,0.145,0.088,0.21,0.132c1.323,0.862,1.271,2.083-0.046,2.796c-0.068,0.037-0.135,0.073-0.216,0.109
										l0.428,0.275l0.421,0.278c0.099-0.046,0.198-0.092,0.29-0.143c1.766-0.955,1.821-2.583,0.056-3.742
										c-0.092-0.059-0.184-0.118-0.282-0.173c-1.886-1.064-4.837-1.219-6.785-0.339
										C146.856,153.477,146.757,153.523,146.665,153.573 M125.617,169.262c0.225-0.122,0.226-0.326,0-0.472l-3.595-2.351
										l3.848-1.747l3.6,2.354c0.23,0.15,0.625,0.183,0.885,0.063l3.965-1.799l3.475,2.274l-3.964,1.799
										c-0.012,0.006-0.023,0.012-0.035,0.018c-0.225,0.122-0.227,0.325-0.013,0.472l3.601,2.355l-3.841,1.743l-3.6-2.354
										c-0.23-0.15-0.631-0.18-0.885-0.064l-3.965,1.799l-3.474-2.273l3.963-1.799
										C125.593,169.274,125.605,169.268,125.617,169.262 M120.666,166.119c-0.097,0.052-0.153,0.125-0.165,0.207
										c-0.007,0.091,0.048,0.184,0.167,0.257l0.316,0.206l3.278,2.148l-3.611,1.642l-0.346,0.158
										c-0.017,0.007-0.032,0.015-0.046,0.023c-0.101,0.054-0.156,0.126-0.163,0.206c-0.014,0.094,0.049,0.184,0.161,0.26
										l0.316,0.206l3.687,2.413l0.322,0.209c0.23,0.15,0.631,0.179,0.885,0.064l0.353-0.162l3.618-1.638l3.271,2.145l0.323,0.209
										c0.23,0.151,0.631,0.18,0.885,0.064l0.359-0.158l4.075-1.849l0.346-0.158c0.012-0.005,0.024-0.012,0.036-0.018
										c0.226-0.122,0.232-0.329,0.013-0.472l-0.323-0.209l-3.271-2.145l3.61-1.642l0.353-0.162
										c0.012-0.005,0.024-0.011,0.035-0.017c0.22-0.119,0.227-0.326,0.008-0.469l-0.316-0.205l-3.686-2.413l-0.323-0.209
										c-0.105-0.073-0.267-0.123-0.433-0.135c-0.166-0.012-0.335,0.015-0.452,0.071l-0.353,0.155l-3.617,1.645l-3.278-2.148
										l-0.322-0.209c-0.23-0.15-0.632-0.18-0.885-0.064l-0.353,0.162l-4.075,1.849l-0.352,0.162
										C120.694,166.104,120.68,166.111,120.666,166.119 M114.697,161.427c-1.587,0.859-2.919,1.991-3.642,3.46
										c-0.73,1.465-0.863,3.267-0.112,5.458c2.685,7.838,11.124,13.577,16.166,16.421c2.305,1.3,3.905,1.998,3.917,2.006
										l0.002-0.001c1.895,0.917,3.893,1.541,5.908,1.696c2.009,0.159,3.997-0.179,5.684-1.092
										c0.008-0.004,0.016-0.009,0.024-0.013l0.025-0.014l0.006-0.003c0.48-0.267,0.84-0.628,1.152-1.057
										c1.051-1.501,1.411-3.896,1.543-5.942c0.12-2.047-0.013-3.727-0.013-3.733c-0.015-0.267,0.111-0.618,0.347-0.94
										c0.242-0.326,0.586-0.628,0.949-0.825l0.161-0.079l19.083-8.663c0.383-0.178,1.021-0.335,1.694-0.417
										c0.667-0.086,1.383-0.097,1.901-0.029c0.012,0,3.939,0.488,8.358,0.805c2.216,0.155,4.536,0.267,6.584,0.252
										c1.02-0.009,1.969-0.045,2.801-0.133s1.548-0.215,2.119-0.43c0.422-0.156,0.806-0.328,1.145-0.511
										c0.008-0.004,0.016-0.008,0.024-0.013c1.38-0.747,1.979-1.691,1.885-2.698c-0.082-1.006-0.812-2.063-1.996-3.118
										c-0.05-0.048-3.069-3.118-9.149-6.547c-4.852-2.737-11.658-5.706-20.461-7.55l-0.178,0.328l-0.185,0.324
										c8.572,1.789,15.215,4.686,19.962,7.364c2.986,1.685,5.226,3.288,6.712,4.459c0.743,0.589,1.296,1.071,1.664,1.401
										c0.181,0.17,0.321,0.297,0.409,0.387l0.101,0.097l0.034,0.033l0.021,0.018c1.107,0.985,1.738,1.939,1.817,2.779
										c0.06,0.843-0.4,1.576-1.575,2.219c-0.29,0.156-0.617,0.305-0.996,0.444c-0.36,0.137-0.943,0.25-1.681,0.331
										c-2.584,0.269-6.947,0.045-10.597-0.252c-1.834-0.151-3.493-0.318-4.698-0.447c-0.6-0.066-1.091-0.119-1.43-0.16
										c-0.332-0.038-0.517-0.061-0.517-0.061c-0.773-0.096-1.627-0.075-2.446,0.028c-0.813,0.099-1.589,0.28-2.164,0.541
										l-19.088,8.666c-0.08,0.037-0.154,0.076-0.228,0.116c-0.505,0.273-0.916,0.64-1.204,1.035
										c-0.289,0.395-0.462,0.814-0.433,1.218c0,0,0.014,0.137,0.028,0.376c0.035,0.842,0.104,2.982-0.197,5.084
										c-0.144,1.054-0.383,2.096-0.747,2.958c-0.354,0.852-0.862,1.523-1.417,1.823c-0.005,0.002-0.01,0.005-0.015,0.007
										l-0.025,0.014c-1.502,0.805-3.066,1.058-4.722,0.933c-1.649-0.128-3.442-0.663-5.216-1.527l-0.039-0.015l-0.059-0.026
										c-0.313-0.142-1.751-0.797-3.722-1.909c-4.931-2.781-13.186-8.41-15.788-16.024c-0.722-2.113-0.587-3.799,0.084-5.154
										c0.678-1.358,1.889-2.382,3.354-3.174c0.009-0.005,0.017-0.009,0.026-0.014c2.359-1.276,5.404-1.927,7.868-2.258
										c1.234-0.161,2.32-0.249,3.091-0.29c0.386-0.021,0.696-0.029,0.911-0.037l0.234-0.003l0.07-0.001
										c0.754-0.003,1.585-0.105,2.389-0.257c0.796-0.156,1.545-0.366,2.102-0.623l3.185-1.44l0.006-0.004
										c0.093-0.042,0.185-0.092,0.278-0.143c0.971-0.533,1.837-1.377,2.101-2.105l0.011-0.028
										c0.121-0.326,1.318-3.187,5.066-5.207c1.68-0.909,3.857-1.652,6.701-1.946c2.85-0.296,6.378-0.143,10.779,0.776
										l0.185-0.324l0.178-0.328c-4.582-0.959-8.37-1.131-11.466-0.81c-3.108,0.321-5.49,1.139-7.294,2.114
										c-4.283,2.323-5.383,5.537-5.395,5.565c-0.177,0.54-0.986,1.343-1.761,1.762c-0.008,0.004-0.015,0.008-0.022,0.012
										c-0.074,0.04-0.142,0.077-0.216,0.11l-3.185,1.44l-0.006,0.003c-0.396,0.185-1.057,0.376-1.753,0.514
										c-0.696,0.138-1.439,0.222-1.985,0.22c-0.038-0.001-1.997,0.002-4.597,0.351
										C120.527,159.344,117.282,160.036,114.697,161.427"/>
								</g>
							</g>
						</g>
					</g>
				</g>
			</g>
		</g>
	</g>
	<path id="Shimmer_1_" opacity="0.3" fill="#FFFFFF" d="M29.044,176.572c0.502-0.76,1.066-1.017,1.066-1.017l136.014-68.93
		l5.25,0.25l247.358,153.389L29.044,176.572z"/>
</g>
<g id="Screen_3">
	<g id="Screen">
		<path id="Menu__x28_Edge_x29_" fill="#E2CDBF" d="M419.456,180.432c0,0,1.626-8.292,1.708-9.016
			c-0.151,0.643,0.117,0.833-1.658,1.916l-7.131,3.982l-1.506,8.992l7.27-3.788C418.139,182.519,419.15,181.99,419.456,180.432z"/>
		<path id="Menu__x28_Button_5_x29_" fill="#FBDDC9" d="M372.505,152.569l11.354-5.979c0,0,35.136,21.717,35.927,22.292
			c1.881,1.326,1.419,3.034,1.019,3.576c-0.274,0.462-8.43,4.856-8.43,4.856L372.505,152.569z"/>
		<polygon id="Menu__x28_Button_4_x29_" fill="#FFDE52" points="316.71,117.939 327.99,112.03 383.859,146.59 372.505,152.569 		"/>
		<polygon id="Menu__x28_Button_3_x29_" fill="#E67E22" points="260.23,82.884 271.514,77.06 327.99,112.03 316.71,117.939 		"/>
		<polygon id="Menu__x28_Button_2_x29_" fill="#05D3BF" points="204.204,48.11 215.542,42.346 271.514,77.06 260.23,82.884 		"/>
		<path id="Menu__x28_Button_1_x29_" fill="#73E5A1" d="M157.85,19.34c0,0,5.462-2.763,6.535-3.21c2.428-1.108,5.49-1.317,8.315,0
			c0.966,0.537,42.842,26.216,42.842,26.216l-11.338,5.764L157.85,19.34z"/>
		<g id="Phone">
			<polygon id="Screen__x28_3_x29__1_" fill="#05D3BF" points="162.93,31.3 48.52,88.85 181.313,171.156 295.609,113.26 			"/>
			<polygon id="Screen__x28_2_x29__1_" fill="#E67E22" points="290.91,178.65 236.97,205.99 281.563,233.813 335.21,206.42 			"/>
			<polygon id="Screen__x28_1_x29__1_" fill="#FFDE52" points="241.96,148.12 188.2,175.78 228.85,201 282.74,173.61 			"/>
			<polygon id="Screen__x28_0_x29__1_" fill="#73E5A1" points="302.41,117.68 248.56,144.81 343.311,203.78 397.04,176.32 			"/>
			<path id="Edge_4_" fill="#B73628" d="M286.91,241.124c4.757-2.412,125.465-63.809,125.465-63.809l-1.506,8.992
				c0,0-122.431,62.598-124.443,63.558c-4.849,2.108-7.509,2.198-11.911-0.372C273.278,248.818,29.18,96.195,29.18,96.195
				s-1.024-0.32-0.856-2.819l0.86-6.917c0,0,244.945,152.849,247.75,154.579C280.704,242.833,283.417,242.667,286.91,241.124z"/>
			<path fill="#EC4E3E" d="M157.85,19.34c0,0-125.379,62.66-126.139,63.1c-1.758,1.045-2.526,1.8-2.526,4.019
				c0,0,246.301,153.814,247.75,154.579c2.94,1.588,6.315,2.005,9.976,0.087c1.577-0.774,125.465-63.809,125.465-63.809
				L157.85,19.34z M48.52,88.85L162.93,31.3l132.679,81.96l-114.297,57.896L48.52,88.85z M188.2,175.78l53.76-27.66l40.78,25.49
				L228.85,201L188.2,175.78z M281.563,233.813L236.97,205.99l53.94-27.34l44.3,27.77L281.563,233.813z M248.56,144.81l53.85-27.13
				l94.63,58.64l-53.729,27.46L248.56,144.81z"/>
		</g>
	</g>
	<g id="Apps">
		<g id="Image">
			<g>
				<g enable-background="new    ">
					<defs>
						<polygon id="SVGID_17_" enable-background="new    " points="287.026,219.057 262.365,205.146 286.453,192.12 311.114,206.03 
													"/>
					</defs>
					<clipPath id="SVGID_18_">
						<use xlink:href="#SVGID_17_"  overflow="visible"/>
					</clipPath>
					<g clip-path="url(#SVGID_18_)">
						<g>
							<g>
								<g>
									<path fill="#73E5A1" d="M280.934,205.414c-0.209,0.113-0.34,0.264-0.337,0.421l-0.135,3.953l1.256,0.772l0.04,0.029
										c0.504,0.284,1.299,0.318,1.799,0.077l13.432-6.534l-8.687-0.439c-0.351-0.021-0.651,0.041-0.867,0.158
										c-0.19,0.103-0.303,0.244-0.312,0.415l-0.048,1.082c-0.001,0.037-0.027,0.07-0.069,0.093
										c-0.049,0.026-0.118,0.041-0.196,0.036l-4.96-0.248l-0.006,0.003C281.513,205.21,281.175,205.284,280.934,205.414
										 M286.418,198.484l-0.05,0.027c-0.536,0.29-0.54,0.784,0.019,1.126l0.052,0.029c0.563,0.325,1.46,0.361,2.034,0.087
										l0.05-0.027c0.535-0.29,0.532-0.788-0.013-1.122l-0.059-0.033C287.881,198.25,286.985,198.206,286.418,198.484
										 M269.44,204.207c0.002-0.001,0.004-0.003,0.006-0.004c0.004-0.002,0.008-0.004,0.012-0.006l16.814-8.174
										c0.691-0.338,1.785-0.285,2.473,0.103l0.065,0.037l11.877,7.338c0.67,0.412,0.665,1.008,0.019,1.357l-0.067,0.037
										l-16.814,8.174c-0.691,0.331-1.771,0.286-2.466-0.106l-0.066-0.037l-11.876-7.338c-0.66-0.406-0.678-1.001-0.03-1.351
										c0.004-0.002,0.007-0.004,0.011-0.006L269.44,204.207 M265.804,203.707l-0.086,0.046c-0.917,0.496-0.914,1.341,0.025,1.918
										l18.347,11.327l0.085,0.055c0.976,0.55,2.508,0.619,3.477,0.146l20.024-9.729l0.086-0.046
										c0.917-0.496,0.914-1.341-0.025-1.918l-18.346-11.328l-0.086-0.055c-0.976-0.55-2.508-0.619-3.477-0.146L265.804,203.707"
										/>
									<path fill="#2490B2" d="M280.462,209.789l0.135-3.953c-0.003-0.158,0.128-0.309,0.337-0.421
										c0.241-0.13,0.579-0.204,0.91-0.181l0.006-0.003l4.96,0.248c0.078,0.004,0.147-0.01,0.196-0.036
										c0.042-0.023,0.068-0.056,0.069-0.093l0.048-1.082c0.009-0.171,0.121-0.312,0.312-0.415
										c0.216-0.117,0.517-0.178,0.867-0.158l8.687,0.439l-13.432,6.534c-0.5,0.241-1.295,0.208-1.799-0.077l-0.04-0.029
										L280.462,209.789 M280.555,205.2c-0.283,0.153-0.48,0.368-0.479,0.614l-0.001-0.007l-0.136,4.009l0.069,0.107l1.333,0.82
										l0.06,0.04c0.707,0.399,1.813,0.445,2.523,0.104l13.889-6.751c0.067-0.037,0.096-0.095,0.055-0.152
										s-0.132-0.095-0.24-0.102l-9.323-0.479v0.003c-0.493-0.027-0.937,0.062-1.249,0.23c-0.276,0.149-0.448,0.358-0.454,0.6
										l0.006-0.003l-0.049,0.945l-4.704-0.234l-0.006,0.14l0.006-0.14C281.351,204.914,280.887,205.02,280.555,205.2
										 M286.387,199.637c-0.559-0.342-0.555-0.836-0.019-1.126l0.05-0.027c0.567-0.278,1.463-0.234,2.033,0.087l0.059,0.033
										c0.545,0.334,0.548,0.833,0.013,1.122l-0.05,0.027c-0.574,0.274-1.471,0.238-2.034-0.087L286.387,199.637 M286.056,198.26
										l-0.067,0.036c-0.727,0.393-0.721,1.063,0.021,1.522l0.066,0.044c0.778,0.433,1.986,0.488,2.759,0.114l0.067-0.036
										c0.726-0.393,0.721-1.063-0.022-1.522l-0.072-0.041C288.035,197.942,286.827,197.886,286.056,198.26 M300.277,204.67
										l-16.813,8.174c-0.495,0.238-1.258,0.202-1.748-0.075l-0.046-0.026l-11.877-7.338c-0.479-0.291-0.478-0.711-0.017-0.961
										l0.044-0.023l16.813-8.174c0.494-0.238,1.264-0.206,1.755,0.071l0.045,0.026l11.877,7.338
										c0.479,0.291,0.478,0.711,0.016,0.961L300.277,204.67 M269.446,204.203c-0.002,0.001-0.004,0.003-0.006,0.004l-0.044,0.023
										c-0.004,0.002-0.007,0.004-0.011,0.006c-0.647,0.35-0.63,0.945,0.03,1.351l11.876,7.338l0.066,0.037
										c0.694,0.392,1.774,0.437,2.466,0.106l16.814-8.174l0.067-0.037c0.646-0.349,0.651-0.945-0.019-1.357l-11.877-7.338
										l-0.065-0.037c-0.688-0.388-1.781-0.44-2.473-0.103l-16.814,8.174C269.454,204.199,269.45,204.201,269.446,204.203
										 M284.09,216.998l-18.347-11.327c-0.939-0.577-0.942-1.422-0.025-1.918l0.086-0.046l20.024-9.729
										c0.969-0.474,2.501-0.405,3.477,0.146l0.086,0.055l18.346,11.328c0.939,0.577,0.942,1.422,0.025,1.918l-0.086,0.046
										l-20.024,9.729c-0.969,0.473-2.501,0.404-3.477-0.146L284.09,216.998 M265.442,203.482l-0.104,0.057
										c-1.108,0.599-1.102,1.616,0.028,2.314l18.347,11.328l0.105,0.066c1.172,0.661,3.022,0.746,4.201,0.173l20.018-9.726
										l0.104-0.057c1.108-0.599,1.102-1.616-0.028-2.314l-18.347-11.328l-0.105-0.066c-1.172-0.661-3.021-0.746-4.2-0.174
										L265.442,203.482"/>
								</g>
							</g>
						</g>
					</g>
				</g>
			</g>
		</g>
		<g id="Message_1_">
			<g>
				<g enable-background="new    ">
					<defs>
						<polygon id="SVGID_19_" enable-background="new    " points="235.829,187.084 216.494,174.926 239.83,162.518 
							259.165,174.676 						"/>
					</defs>
					<clipPath id="SVGID_20_">
						<use xlink:href="#SVGID_19_"  overflow="visible"/>
					</clipPath>
					<g clip-path="url(#SVGID_20_)">
						<g>
							<g>
								<g>
									<path fill="#1F6E8F" d="M243.253,171.979c-0.012,0.006-0.024,0.013-0.037,0.019c-0.865,0.431-2.193,0.366-2.962-0.147
										c-0.767-0.505-0.714-1.257,0.098-1.689c0.016-0.008,0.031-0.017,0.048-0.025c0.858-0.435,2.18-0.366,2.962,0.147
										C244.12,170.791,244.076,171.542,243.253,171.979 M237.655,174.797c-0.012,0.007-0.024,0.013-0.037,0.02
										c-0.864,0.431-2.193,0.366-2.962-0.148c-0.77-0.507-0.72-1.261,0.104-1.699c0.012-0.006,0.024-0.013,0.037-0.019
										c0.864-0.431,2.187-0.362,2.968,0.152C238.522,173.609,238.479,174.359,237.655,174.797 M232.063,177.612
										c-0.012,0.006-0.024,0.013-0.036,0.019c-0.871,0.434-2.193,0.366-2.968-0.145c-0.761-0.508-0.714-1.257,0.104-1.692
										c0.016-0.009,0.032-0.017,0.049-0.025c0.852-0.431,2.173-0.363,2.955,0.151
										C232.931,176.423,232.881,177.177,232.063,177.612 M218.782,173.709c-1.065,0.566-1.132,1.536-0.143,2.188l11.356,7.519
										c1.005,0.662,2.715,0.748,3.833,0.189l3.011-1.514l2.803,1.854c0.502,0.331,1.354,0.375,1.907,0.096
										c0.008-0.005,0.017-0.009,0.025-0.013c0.27-0.144,0.409-0.332,0.424-0.528l0.354-4.189l11.046-5.556
										c0.016-0.008,0.033-0.017,0.049-0.025c1.059-0.563,1.132-1.536,0.143-2.189l-11.364-7.515
										c-0.999-0.666-2.714-0.748-3.826-0.193l-19.57,9.851C218.815,173.692,218.798,173.701,218.782,173.709"/>
								</g>
							</g>
						</g>
					</g>
				</g>
			</g>
		</g>
		<g id="Web">
			<g>
				<g enable-background="new    ">
					<defs>
						<polygon id="SVGID_21_" enable-background="new    " points="173.724,139.431 97.232,96.286 165.126,59.569 241.617,102.714 
													"/>
					</defs>
					<clipPath id="SVGID_22_">
						<use xlink:href="#SVGID_21_"  overflow="visible"/>
					</clipPath>
					<g clip-path="url(#SVGID_22_)">
						<g>
							<g>
								<g>
									<path fill="#FEFDFD" d="M172.127,94.36l36.407,20.536l-0.546-9.848c0.001-0.072,0.05-0.141,0.138-0.188
										c0.019-0.01,0.039-0.019,0.06-0.026c0.118-0.049,0.288-0.062,0.442-0.029l19.934,4.022l1.915-3.619l-19.184-3.878
										c-0.166-0.033-0.297-0.107-0.341-0.206c-0.05-0.097-0.005-0.193,0.112-0.256l11.57-6.257L172.127,94.36"/>
									<path fill="#D1D1D1" d="M208.534,114.896L172.127,94.36l50.506,0.25l-11.57,6.257c-0.117,0.063-0.162,0.16-0.112,0.256
										c0.043,0.099,0.175,0.173,0.341,0.206l19.184,3.878l-1.915,3.619l-19.934-4.022c-0.154-0.033-0.324-0.02-0.442,0.029
										c-0.021,0.008-0.041,0.017-0.06,0.026c-0.087,0.047-0.137,0.116-0.138,0.188L208.534,114.896 M170.592,93.873
										c-0.046,0.025-0.083,0.057-0.106,0.092c-0.064,0.1-0.014,0.217,0.131,0.298l0.344-0.187l0.035,0.278l-0.035-0.278
										l-0.344,0.187l38.111,21.497c0.151,0.085,0.368,0.112,0.55,0.079c0.058-0.013,0.109-0.032,0.152-0.055
										c0.091-0.049,0.145-0.118,0.145-0.192l-0.569-10.14l19.767,3.99c0.185,0.038,0.376,0.014,0.5-0.052
										c0.051-0.028,0.091-0.063,0.113-0.105l2.184-4.14c0.04-0.072,0.023-0.143-0.044-0.215c-0.067-0.065-0.171-0.117-0.3-0.142
										l-18.876-3.813l11.884-6.427c0.142-0.077,0.179-0.198,0.091-0.302c-0.088-0.104-0.283-0.18-0.485-0.179l-52.918-0.264
										C170.794,93.801,170.677,93.828,170.592,93.873"/>
									<path fill="#579CFF" d="M184.403,117.889l-0.902,0.191c-9.469,2.01-20.481,1.693-30.213-0.866l-0.927-0.244l0.842-0.252
										c4.672-1.383,9.562-3.167,14.528-5.303l0.31-0.131l0.319,0.146c5.235,2.436,10.341,4.507,15.165,6.161L184.403,117.889
										 M163.635,109.16l-0.452,0.194c-5.575,2.342-11.225,4.276-16.332,5.583l-0.269,0.066l-0.253-0.102
										c-1.85-0.758-3.577-1.589-5.129-2.465c-1.565-0.883-3.034-1.854-4.367-2.891l-0.179-0.142l0.125-0.147
										c2.469-2.789,6.088-5.868,10.458-8.904l0.348-0.246l0.408,0.257c2.406,1.521,4.886,3,7.381,4.408
										c2.482,1.4,5.104,2.797,7.805,4.157L163.635,109.16 M133.208,106.167l-0.416-0.513c-4.433-5.431-4.775-11.519-0.938-16.705
										l0.366-0.494l0.522,0.492c2.904,2.706,6.546,5.569,10.833,8.503l0.264,0.183l-0.25,0.165
										c-3.958,2.697-7.296,5.356-9.905,7.91L133.208,106.167 M182.256,79.642l-0.842,0.252
										c-4.665,1.387-9.555,3.171-14.533,5.306l-0.31,0.131l-0.319-0.146c-5.229-2.432-10.335-4.503-15.171-6.164l-0.867-0.298
										l0.902-0.191c9.469-2.01,20.482-1.693,30.22,0.869L182.256,79.642 M147.318,95.367l-0.383-0.27
										c-4.719-3.294-8.689-6.587-11.493-9.536l-0.141-0.155l0.17-0.128c1.224-0.967,2.574-1.849,4.061-2.653
										c1.477-0.799,3.088-1.52,4.844-2.17l0.243-0.087l0.271,0.084c5.342,1.626,11.072,3.831,17.02,6.547l0.481,0.217
										l-0.432,0.206c-2.545,1.202-4.993,2.439-7.363,3.721c-2.369,1.281-4.66,2.607-6.89,3.987L147.318,95.367 M131.912,78.34
										c-0.519,0.281-1.024,0.569-1.512,0.861c-0.448,0.264-0.871,0.536-1.28,0.808c-13.51,8.875-13.827,22.201-0.829,32.449
										l0.246,0.193c0.345,0.269,0.676,0.517,1.013,0.762l0.191,0.135c0.383,0.277,0.779,0.555,1.188,0.826l0.75,0.484
										c0.237,0.161,0.481,0.319,0.73,0.473c0.532,0.327,1.083,0.652,1.646,0.969c0.557,0.314,1.125,0.621,1.701,0.918
										c0.333,0.167,0.666,0.335,0.998,0.495l0.704,0.343c0.501,0.242,1.016,0.471,1.522,0.696l0.176,0.079
										c0.56,0.248,1.125,0.484,1.689,0.714c16.928,6.849,39.17,7.489,55.371,1.6l0.199-0.071l0.167-0.062
										c0.36-0.137,0.727-0.277,1.093-0.417c0.242-0.095,0.484-0.197,0.725-0.298c0.335-0.138,0.657-0.275,0.985-0.417
										c0.242-0.108,0.482-0.217,0.723-0.333l0.427-0.194c0.173-0.079,0.346-0.158,0.519-0.245
										c0.476-0.229,0.944-0.467,1.406-0.71l-7.596-4.285c-1.404,0.745-2.969,1.433-4.64,2.054l-0.243,0.087l-0.271-0.085
										c-5.271-1.606-11.161-3.868-17.019-6.546l-0.475-0.213l0.432-0.205c2.458-1.163,4.857-2.374,7.135-3.598l-4.034-2.275
										c-2.499,1.351-5.059,2.634-7.61,3.826l-0.328,0.148l-0.333-0.167c-2.786-1.388-5.583-2.87-8.32-4.414
										c-2.744-1.548-5.375-3.127-7.835-4.698l-0.296-0.188l0.282-0.174c2.296-1.439,4.784-2.884,7.366-4.28
										c2.535-1.371,5.161-2.696,7.791-3.924l0.322-0.145l0.548,0.268c0.934-0.201,1.961-0.301,2.989-0.299l4.263,0.024
										c-0.98-0.512-2.025-1.047-3.16-1.619l-0.457-0.231l0.452-0.194c5.582-2.346,11.244-4.279,16.351-5.587l0.269-0.065
										l0.253,0.102c1.85,0.758,3.577,1.589,5.142,2.472c1.539,0.868,3.001,1.835,4.34,2.883l0.18,0.142l-0.125,0.147
										c-0.602,0.68-1.268,1.366-1.971,2.057l5.569,0.027l-0.006,0.003l10.301,0.051c-1.448-1.857-3.255-3.651-5.397-5.336
										l-0.173-0.138c-0.299-0.236-0.604-0.47-0.92-0.696c-0.166-0.127-0.337-0.251-0.516-0.373
										c-0.304-0.219-0.614-0.435-0.93-0.647c-0.244-0.165-0.494-0.326-0.75-0.491l-0.178-0.121
										c-0.204-0.128-0.395-0.257-0.611-0.385c-0.545-0.335-1.096-0.666-1.666-0.988c-0.563-0.317-1.139-0.628-1.72-0.929
										c-0.274-0.141-0.555-0.279-0.835-0.417l-0.867-0.421c-0.482-0.231-0.977-0.456-1.471-0.673l-0.234-0.105
										c-0.468-0.21-0.936-0.406-1.416-0.602l-0.292-0.117c-18.278-7.392-42.405-7.498-58.682-0.258
										c-0.575,0.253-1.076,0.481-1.557,0.719C132.964,77.786,132.431,78.059,131.912,78.34"/>
									<path fill="#5D87B5" d="M182.176,117.748c-8.719,1.691-18.665,1.405-27.59-0.794c4.357-1.329,8.887-2.997,13.494-4.96
										C172.93,114.233,177.661,116.167,182.176,117.748 M152.361,116.971l0.927,0.244c9.731,2.559,20.744,2.875,30.213,0.866
										l0.902-0.191l-0.879-0.298c-4.824-1.653-9.93-3.725-15.165-6.161l-0.319-0.146l-0.31,0.131
										c-4.966,2.136-9.856,3.919-14.528,5.303L152.361,116.971 M162.084,109.094c-5.28,2.196-10.605,4.013-15.456,5.269
										c-1.708-0.711-3.305-1.483-4.745-2.295c-1.454-0.82-2.817-1.718-4.069-2.676c2.368-2.648,5.77-5.551,9.863-8.424
										c2.287,1.433,4.643,2.836,7.013,4.173C157.041,106.467,159.532,107.797,162.084,109.094 M147.584,100.106l-0.348,0.246
										c-4.37,3.036-7.989,6.115-10.458,8.904l-0.125,0.147l0.179,0.142c1.333,1.038,2.802,2.008,4.367,2.891
										c1.552,0.875,3.279,1.707,5.129,2.465l0.253,0.102l0.269-0.066c5.107-1.308,10.756-3.241,16.332-5.583l0.452-0.194
										l-0.457-0.23c-2.701-1.36-5.322-2.757-7.805-4.157c-2.495-1.408-4.975-2.888-7.381-4.408L147.584,100.106 M133.284,104.939
										c-3.786-4.978-4.095-10.476-0.85-15.248c2.773,2.53,6.175,5.183,10.12,7.905
										C138.903,100.092,135.782,102.561,133.284,104.939 M132.219,88.455l-0.366,0.494c-3.836,5.186-3.495,11.274,0.938,16.705
										l0.416,0.513l0.475-0.46c2.609-2.554,5.947-5.213,9.905-7.91l0.25-0.165l-0.264-0.183
										c-4.287-2.935-7.928-5.798-10.833-8.503L132.219,88.455 M180.031,79.658c-4.351,1.333-8.893,3-13.5,4.964
										c-4.837-2.239-9.574-4.169-14.089-5.758C161.154,77.177,171.101,77.463,180.031,79.658 M150.214,78.723l0.867,0.298
										c4.836,1.661,9.943,3.732,15.171,6.164l0.319,0.146l0.31-0.131c4.978-2.135,9.868-3.919,14.533-5.306l0.842-0.252
										l-0.92-0.24c-9.738-2.562-20.751-2.879-30.22-0.869L150.214,78.723 M147.314,94.508c-4.43-3.118-8.168-6.226-10.849-9.016
										c1.149-0.894,2.408-1.71,3.788-2.457c1.371-0.741,2.861-1.414,4.483-2.023c4.994,1.539,10.542,3.668,16.098,6.184
										c-2.406,1.145-4.722,2.32-6.969,3.535C151.619,91.947,149.441,93.202,147.314,94.508 M139.532,82.625
										c-1.486,0.804-2.836,1.686-4.061,2.653l-0.17,0.128l0.141,0.155c2.804,2.948,6.774,6.242,11.493,9.536l0.383,0.27
										l0.387-0.237c2.23-1.38,4.521-2.706,6.89-3.987c2.37-1.281,4.817-2.519,7.363-3.721l0.432-0.206l-0.481-0.217
										c-5.948-2.716-11.678-4.921-17.02-6.547l-0.271-0.084l-0.243,0.087C142.62,81.105,141.009,81.827,139.532,82.625
										 M202.459,118.398c-0.461,0.243-0.93,0.481-1.406,0.71c-0.173,0.086-0.346,0.166-0.519,0.245l-0.427,0.194
										c-0.241,0.116-0.481,0.225-0.723,0.333c-0.328,0.142-0.65,0.279-0.985,0.417c-0.241,0.102-0.483,0.204-0.725,0.298
										c-0.366,0.14-0.732,0.28-1.093,0.417l-0.167,0.062l-0.199,0.071c-16.201,5.889-38.443,5.249-55.371-1.6
										c-0.564-0.23-1.129-0.467-1.689-0.714l-0.176-0.079c-0.507-0.225-1.021-0.454-1.522-0.696l-0.704-0.343
										c-0.333-0.16-0.666-0.328-0.998-0.495c-0.575-0.297-1.144-0.604-1.701-0.918c-0.563-0.317-1.114-0.642-1.646-0.969
										c-0.25-0.154-0.493-0.312-0.73-0.473l-0.75-0.484c-0.409-0.271-0.805-0.549-1.188-0.826l-0.191-0.135
										c-0.337-0.245-0.668-0.493-1.013-0.762l-0.246-0.193c-12.998-10.248-12.681-23.573,0.829-32.449
										c0.409-0.272,0.832-0.544,1.28-0.808c0.488-0.292,0.993-0.581,1.512-0.861s1.052-0.554,1.596-0.819
										c0.481-0.238,0.982-0.466,1.557-0.719c16.277-7.24,40.404-7.134,58.682,0.258l0.292,0.117
										c0.48,0.196,0.948,0.392,1.416,0.602l0.234,0.105c0.494,0.217,0.989,0.442,1.471,0.673l0.867,0.421
										c0.281,0.138,0.561,0.275,0.835,0.417c0.581,0.301,1.156,0.612,1.72,0.929c0.57,0.322,1.121,0.653,1.666,0.988
										c0.216,0.128,0.408,0.257,0.611,0.385l0.178,0.121c0.256,0.165,0.506,0.326,0.75,0.491c0.316,0.212,0.626,0.428,0.93,0.647
										c0.178,0.121,0.35,0.245,0.516,0.373c0.317,0.226,0.622,0.459,0.92,0.696l0.173,0.138c2.143,1.685,3.949,3.479,5.397,5.336
										l-10.301-0.051l0.006-0.003l-5.569-0.027c0.703-0.691,1.369-1.377,1.971-2.057l0.125-0.147l-0.18-0.142
										c-1.339-1.048-2.801-2.015-4.34-2.883c-1.565-0.883-3.292-1.714-5.142-2.472l-0.253-0.102l-0.269,0.065
										c-5.107,1.308-10.769,3.241-16.351,5.587l-0.452,0.194l0.457,0.231c1.135,0.572,2.18,1.107,3.16,1.619l-4.263-0.024
										c-1.027-0.001-2.055,0.099-2.989,0.299l-0.548-0.268l-0.322,0.145c-2.629,1.229-5.255,2.553-7.791,3.924
										c-2.583,1.396-5.07,2.841-7.366,4.28l-0.282,0.174l0.296,0.188c2.46,1.571,5.091,3.15,7.835,4.698
										c2.737,1.544,5.534,3.026,8.32,4.414l0.333,0.167l0.328-0.148c2.552-1.192,5.111-2.475,7.61-3.826l4.034,2.275
										c-2.278,1.225-4.676,2.435-7.135,3.598l-0.432,0.205l0.475,0.213c5.857,2.678,11.748,4.94,17.019,6.546l0.271,0.085
										l0.243-0.087c1.671-0.622,3.236-1.309,4.64-2.054L202.459,118.398 M131.179,77.928c-0.53,0.287-1.046,0.583-1.543,0.884
										c-0.448,0.271-0.876,0.546-1.274,0.805l-0.086,0.053c-13.717,9.01-14.045,22.594-0.827,33.048l0.12,0.094
										c0.385,0.306,0.795,0.612,1.206,0.911l0.191,0.135c0.396,0.285,0.799,0.566,1.214,0.848l0.756,0.488
										c0.25,0.162,0.5,0.33,0.757,0.488c0.545,0.334,1.102,0.663,1.679,0.988c0.569,0.321,1.145,0.632,1.739,0.94
										c0.333,0.167,0.678,0.335,1.011,0.502l0.717,0.35c0.515,0.243,1.028,0.479,1.549,0.711l0.188,0.079
										c0.566,0.251,1.137,0.492,1.748,0.741c17.181,6.951,39.768,7.629,56.283,1.693l0.572-0.208
										c0.378-0.14,0.745-0.28,1.117-0.424c0.254-0.101,0.502-0.206,0.744-0.308c0.335-0.138,0.675-0.279,1.01-0.423
										c0.248-0.112,0.495-0.224,0.736-0.34l0.42-0.191c0.186-0.085,0.365-0.168,0.544-0.258c0.567-0.278,1.129-0.56,1.676-0.856
										l0.443-0.24l-9.063-5.112l-0.345,0.187l-0.085,0.061c-1.36,0.735-2.875,1.417-4.515,2.037
										c-5.001-1.543-10.548-3.672-16.092-6.18c2.402-1.147,4.751-2.338,6.979-3.542l0.443-0.24l-5.487-3.095l-0.443,0.24
										c-2.456,1.328-4.971,2.602-7.486,3.781c-2.655-1.328-5.328-2.747-7.935-4.217c-2.62-1.478-5.133-2.983-7.487-4.481
										c2.188-1.36,4.542-2.723,6.983-4.043c2.441-1.32,4.968-2.598,7.498-3.789l0.372,0.183l0.288-0.069
										c0.901-0.212,1.903-0.32,2.905-0.319l6.622,0.036l-0.889-0.474c-1.105-0.589-2.294-1.205-3.612-1.874
										c5.285-2.2,10.624-4.017,15.474-5.272c1.708,0.711,3.305,1.483,4.758,2.303c1.428,0.805,2.784,1.7,4.043,2.668
										c-0.68,0.766-1.441,1.539-2.254,2.305l-0.452,0.425l19.111,0.105l-0.281-0.369c-1.494-1.999-3.416-3.933-5.693-5.748
										l-0.272-0.215c-0.305-0.24-0.616-0.477-0.94-0.707c-0.172-0.131-0.351-0.259-0.522-0.383
										c-0.317-0.22-0.627-0.442-0.95-0.659c-0.25-0.168-0.507-0.333-0.77-0.502l-0.178-0.114c-0.204-0.135-0.408-0.271-0.625-0.4
										c-0.552-0.345-1.122-0.681-1.705-1.009c-0.577-0.325-1.159-0.64-1.752-0.948c-0.281-0.145-0.574-0.29-0.868-0.428
										l-0.867-0.428c-0.496-0.238-1.002-0.463-1.51-0.688l-0.241-0.108c-0.533-0.232-1.079-0.466-1.663-0.7l-0.117-0.045
										c-18.641-7.529-43.243-7.63-59.842-0.253l-0.081,0.037c-0.507,0.23-1.014,0.461-1.514,0.703
										C132.256,77.362,131.71,77.641,131.179,77.928"/>
								</g>
							</g>
						</g>
					</g>
				</g>
			</g>
		</g>
		<g id="Init_Pack">
			<g id="Arrow_Up">
				<g>
					<g enable-background="new    ">
						<defs>
							<polygon id="SVGID_23_" enable-background="new    " points="342.152,183.601 312.377,166.805 334.557,154.811 
								364.333,171.605 							"/>
						</defs>
						<clipPath id="SVGID_24_">
							<use xlink:href="#SVGID_23_"  overflow="visible"/>
						</clipPath>
						<g clip-path="url(#SVGID_24_)">
							<g>
								<g>
									<g>
										<path fill="#FFDE52" d="M328.783,163.729c-0.908,0.491-0.874,1.332,0.077,1.89c0.971,0.561,2.521,0.619,3.47,0.128
											c0.008-0.004,0.016-0.008,0.022-0.012c0.913-0.494,0.878-1.337-0.079-1.896c-0.97-0.561-2.52-0.619-3.456-0.127
											C328.806,163.716,328.794,163.722,328.783,163.729"/>
										<path fill="#FFDE52" d="M339.113,169.725c-0.908,0.491-0.88,1.336,0.078,1.89c0.97,0.561,2.52,0.62,3.456,0.127
											c0.012-0.006,0.023-0.012,0.035-0.018c0.907-0.491,0.873-1.333-0.092-1.89c-0.957-0.561-2.508-0.619-3.443-0.127
											C339.136,169.713,339.124,169.719,339.113,169.725"/>
										<path fill="#FFDE52" d="M344.271,172.723c-0.907,0.491-0.874,1.333,0.085,1.894c0.97,0.561,2.521,0.619,3.463,0.124
											c0.008-0.004,0.015-0.008,0.022-0.012c0.913-0.494,0.877-1.337-0.079-1.896c-0.97-0.561-2.521-0.619-3.457-0.127
											C344.294,172.711,344.283,172.717,344.271,172.723"/>
										<path fill="#FFDE52" d="M349.447,175.712c-0.918,0.497-0.888,1.343,0.074,1.899c0.964,0.564,2.521,0.62,3.463,0.131
											c0.008-0.004,0.016-0.008,0.022-0.012c0.913-0.494,0.877-1.337-0.079-1.896c-0.977-0.564-2.52-0.619-3.457-0.134
											C349.463,175.704,349.455,175.708,349.447,175.712"/>
										<path fill="#FFDE52" d="M323.629,160.72c-0.913,0.494-0.889,1.344,0.073,1.9c0.97,0.561,2.521,0.619,3.457,0.127
											c0.008-0.004,0.015-0.008,0.022-0.012c0.913-0.494,0.889-1.336-0.079-1.896c-0.964-0.564-2.508-0.619-3.45-0.131
											C323.645,160.712,323.637,160.716,323.629,160.72"/>
										<path fill="#FFDE52" d="M333.691,161.161c-0.912,0.494-0.889,1.336,0.08,1.896c0.963,0.564,2.514,0.623,3.45,0.131
											c0.008-0.004,0.015-0.008,0.022-0.012c0.913-0.494,0.883-1.34-0.079-1.896c-0.964-0.564-2.514-0.623-3.45-0.131
											C333.707,161.152,333.698,161.157,333.691,161.161"/>
										<path fill="#FFDE52" d="M324.076,166.187c-0.907,0.491-0.874,1.333,0.078,1.89c0.97,0.561,2.521,0.619,3.464,0.131
											c0.007-0.004,0.015-0.009,0.022-0.013c0.919-0.497,0.883-1.34-0.073-1.899c-0.97-0.561-2.521-0.619-3.456-0.127
											C324.1,166.174,324.088,166.181,324.076,166.187"/>
										<path fill="#FFDE52" d="M333.948,166.723c-0.915,0.495-0.88,1.336,0.084,1.894c0.964,0.564,2.514,0.616,3.457,0.127
											c0.008-0.004,0.016-0.008,0.022-0.012c0.913-0.494,0.89-1.336-0.079-1.896c-0.97-0.561-2.521-0.62-3.45-0.131
											C333.971,166.711,333.959,166.717,333.948,166.723"/>
										<path fill="#FFDE52" d="M343.525,161.717c-0.912,0.493-0.889,1.336,0.08,1.896c0.964,0.563,2.521,0.619,3.457,0.127
											c0.011-0.006,0.022-0.012,0.034-0.018c0.907-0.491,0.874-1.333-0.091-1.891c-0.964-0.564-2.515-0.622-3.457-0.127
											C343.541,161.709,343.533,161.713,343.525,161.717"/>
										<path fill="#FFDE52" d="M338.729,164.225c-0.908,0.491-0.874,1.333,0.09,1.89c0.971,0.561,2.515,0.623,3.457,0.127
											c0.008-0.004,0.016-0.008,0.023-0.012c0.912-0.494,0.889-1.336-0.08-1.896c-0.97-0.561-2.514-0.623-3.456-0.127
											C338.751,164.212,338.74,164.218,338.729,164.225"/>
										<path fill="#FFDE52" d="M324.373,171.72c-0.912,0.494-0.882,1.34,0.079,1.896c0.972,0.568,2.521,0.62,3.464,0.131
											c0.008-0.004,0.016-0.008,0.022-0.012c0.913-0.494,0.883-1.34-0.079-1.896c-0.97-0.561-2.521-0.619-3.463-0.131
											C324.389,171.712,324.381,171.716,324.373,171.72"/>
										<path fill="#FFDE52" d="M329.155,169.228c-0.908,0.491-0.874,1.333,0.091,1.89c0.97,0.561,2.508,0.619,3.456,0.128
											c0.009-0.004,0.016-0.008,0.023-0.012c0.912-0.494,0.876-1.337-0.08-1.896c-0.97-0.561-2.52-0.62-3.456-0.127
											C329.178,169.216,329.166,169.222,329.155,169.228"/>
									</g>
								</g>
							</g>
						</g>
					</g>
				</g>
			</g>
			<g id="Program" opacity="0.8">
				<g>
					<g enable-background="new    ">
						<defs>
							<polygon id="SVGID_25_" enable-background="new    " points="300.603,164.636 271.494,148.218 304.585,130.323 
								333.693,146.741 							"/>
						</defs>
						<clipPath id="SVGID_26_">
							<use xlink:href="#SVGID_25_"  overflow="visible"/>
						</clipPath>
						<g clip-path="url(#SVGID_26_)">
							<g>
								<g>
									<g>
										<path fill="#F68121" d="M283.824,148.373l-0.063,0.034c-0.388,0.209-0.399,0.556-0.012,0.809l0.06,0.041
											c0.399,0.225,1.042,0.261,1.462,0.07l0.062-0.033c0.005-0.002,0.009-0.004,0.013-0.006
											c0.376-0.204,0.385-0.553,0.013-0.795l-0.072-0.041C284.88,148.222,284.237,148.186,283.824,148.373"/>
										<path fill="#D36E2A" d="M285.271,149.326c-0.42,0.191-1.063,0.155-1.462-0.07l-0.06-0.041
											c-0.388-0.253-0.376-0.6,0.012-0.809l0.063-0.034c0.413-0.188,1.056-0.151,1.462,0.078l0.072,0.041
											c0.372,0.243,0.363,0.592-0.013,0.795c-0.004,0.002-0.008,0.004-0.013,0.006L285.271,149.326 M283.238,148.111
											c-0.64,0.346-0.658,0.927-0.026,1.345l0.105,0.066c0.675,0.38,1.736,0.436,2.442,0.119l0.098-0.053
											c0.635-0.343,0.651-0.924,0.026-1.338l-0.104-0.066c-0.675-0.38-1.737-0.442-2.43-0.126L283.238,148.111"/>
										<path fill="#F68121" d="M288.97,140.267l-0.003,0c0.207-0.177,0.45-0.345,0.733-0.498c0.104-0.057,0.21-0.113,0.333-0.166
											c0.347-0.158,0.721-0.281,1.114-0.385l0.007,0.004l16.576-4.045l0.031-0.003c0.27-0.051,0.596-0.011,0.825,0.119
											l0.046,0.026c0.217,0.143,0.26,0.337,0.115,0.487c-0.011,0.011-0.023,0.021-0.038,0.03l-10.071,8.968l-0.018,0.017
											c-0.067,0.051-0.153,0.097-0.233,0.141l-0.173,0.086c-0.242,0.112-0.511,0.192-0.796,0.251
											c-0.023,0.01-0.049,0.019-0.076,0.025l-8.972,1.937l-0.05,0.013c-0.189,0.022-0.345,0.07-0.475,0.141
											c-0.265,0.143-0.379,0.364-0.252,0.585v0.007c0.057,0.107,0.163,0.201,0.294,0.275c0.271,0.152,0.666,0.23,1.049,0.193
											l9.065-2.002c1.159-0.25,2.564-0.07,3.533,0.47l0.145,0.088l10.601,6.965l0.013,0.007
											c0.754,0.547,0.693,1.282-0.119,1.721l-0.143,0.069c-0.147,0.073-0.309,0.131-0.516,0.171l-15.42,3.209
											c-0.864,0.186-1.918,0.054-2.639-0.353l-0.137-0.085l-0.007-0.004l-0.007-0.003l-13.543-8.89
											c-0.757-0.502-0.802-1.18-0.181-1.646l0.003,0.001L288.97,140.267 M289.016,139.314c-0.179,0.097-0.344,0.207-0.496,0.312
											l-0.005-0.002l-11.209,8.982L277,148.482l0.306,0.125c-0.14,0.112-0.217,0.313-0.174,0.521
											c0.024,0.204,0.169,0.408,0.353,0.533l14.783,9.731l0.098,0.055c1.186,0.669,2.903,0.897,4.354,0.627l0.002,0.001
											l17.832-3.684l-0.001,0c0.201-0.051,0.405-0.118,0.585-0.201l0.167-0.083c0.119-0.064,0.22-0.132,0.308-0.2l-0.002-0.001
											l10.999-10.209l0.006-0.003l0.007-0.01l0.036-0.034c0.035-0.034,0.07-0.082,0.112-0.14
											c0.069-0.117,0.116-0.271,0.072-0.412l-0.007,0c-0.023-0.075-0.119-0.189-0.239-0.298
											c-0.113-0.105-0.239-0.21-0.326-0.272l-0.085-0.062l0.001,0l-15.203-9.989l-0.059-0.033
											c-0.708-0.392-1.381-0.411-1.889-0.303c-0.014,0.003-0.027,0.005-0.041,0.007l-18.764,4.691l0.001,0.002
											c-0.324,0.096-0.622,0.199-0.907,0.324C289.219,139.212,289.114,139.261,289.016,139.314"/>
										<path fill="#D36E2A" d="M293.865,158.498l-0.006-0.003l-0.007-0.004l-13.556-8.897c-0.526-0.344-0.56-0.826-0.128-1.146
											l0.013-0.006l9.401-7.942c0.182-0.156,0.389-0.305,0.635-0.438c0.092-0.05,0.191-0.096,0.29-0.143
											c0.301-0.134,0.635-0.243,0.976-0.334l0.001,0.001l16.559-4.034l0.051,0.007l0.007,0.003l0.008,0.027l-10.091,8.985
											l0.001,0.001l-0.148,0.093l-0.129,0.063c-0.217,0.095-0.448,0.163-0.699,0.211c-0.033,0.005-0.063,0.014-0.089,0.023
											l-8.888,1.923l0.001,0.001c-0.289,0.04-0.545,0.119-0.743,0.226c-0.436,0.236-0.617,0.6-0.41,0.969l-0.005,0
											c0.099,0.178,0.266,0.333,0.488,0.459c0.466,0.262,1.15,0.391,1.8,0.307l0.051-0.005l9.063-2.007
											c0.89-0.191,1.987-0.055,2.734,0.366l0.104,0.066l10.582,6.953l-0.001,0c0.528,0.38,0.487,0.894-0.079,1.2l-0.092,0.05
											c-0.124,0.052-0.224,0.092-0.343,0.113l-15.419,3.209l-0.006-0.004c-0.602,0.13-1.336,0.042-1.84-0.242L293.865,158.498
											L293.865,158.498 M289.7,139.769c-0.283,0.153-0.526,0.321-0.733,0.498l0.003,0l-9.383,7.926l-0.003-0.001
											c-0.621,0.466-0.576,1.143,0.181,1.646l13.543,8.89l0.007,0.003l0.007,0.004l0.137,0.085
											c0.721,0.406,1.774,0.538,2.639,0.353l15.42-3.209c0.207-0.04,0.368-0.098,0.516-0.171l0.143-0.069
											c0.813-0.439,0.873-1.174,0.119-1.721l-0.013-0.007l-10.601-6.965l-0.145-0.088c-0.969-0.54-2.374-0.72-3.533-0.47
											l-9.065,2.002c-0.383,0.037-0.777-0.041-1.049-0.193c-0.131-0.074-0.237-0.168-0.294-0.275v-0.007
											c-0.127-0.221-0.013-0.442,0.252-0.585c0.13-0.07,0.285-0.118,0.475-0.141l0.05-0.013l8.972-1.937
											c0.027-0.007,0.053-0.015,0.076-0.025c0.285-0.059,0.554-0.139,0.796-0.251l0.173-0.086
											c0.08-0.043,0.166-0.09,0.233-0.141l0.018-0.017l10.071-8.968c0.015-0.009,0.027-0.019,0.038-0.03
											c0.145-0.15,0.102-0.344-0.115-0.487l-0.046-0.026c-0.229-0.129-0.556-0.17-0.825-0.119l-0.031,0.003l-16.576,4.045
											l-0.007-0.004c-0.394,0.104-0.768,0.227-1.114,0.385C289.91,139.655,289.805,139.712,289.7,139.769 M288.52,139.626
											c0.152-0.104,0.317-0.215,0.496-0.312c0.099-0.053,0.203-0.103,0.309-0.152c0.285-0.125,0.583-0.229,0.907-0.324
											l-0.001-0.002l18.764-4.691c0.014-0.002,0.027-0.004,0.041-0.007c0.508-0.108,1.181-0.088,1.889,0.303l0.059,0.033
											l15.203,9.989l-0.001,0l0.085,0.062c0.087,0.062,0.213,0.167,0.326,0.272c0.12,0.108,0.216,0.223,0.239,0.298l0.007,0
											c0.044,0.141-0.003,0.295-0.072,0.412c-0.042,0.058-0.077,0.106-0.112,0.14l-0.036,0.034l-0.007,0.01l-0.006,0.003
											l-10.999,10.209l0.002,0.001c-0.088,0.068-0.188,0.136-0.308,0.2l-0.167,0.083c-0.18,0.083-0.384,0.15-0.585,0.201
											l0.001,0l-17.832,3.684l-0.002-0.001c-1.45,0.271-3.168,0.042-4.354-0.627l-0.098-0.055l-14.783-9.731
											c-0.184-0.125-0.328-0.329-0.353-0.533c-0.043-0.208,0.034-0.409,0.174-0.521L277,148.482l0.306,0.125l11.209-8.982
											L288.52,139.626 M288.498,139.023c-0.203,0.11-0.387,0.224-0.558,0.337l-0.012,0.014l-11.227,8.987l-0.007,0.003
											c-0.254,0.217-0.334,0.492-0.28,0.766c0.041,0.275,0.215,0.55,0.545,0.77l14.781,9.731l0.014,0.007l0.118,0.074
											c1.401,0.791,3.42,1.059,5.127,0.736l0.006-0.003l17.865-3.686l0.019-0.003c0.257-0.066,0.499-0.147,0.729-0.249
											c0.073-0.033,0.142-0.07,0.209-0.106c0.153-0.083,0.288-0.17,0.403-0.269l0.007-0.003l10.999-10.209l-0.003-0.001
											c0.04-0.045,0.457-0.406,0.309-0.874l-0.006-0.004c-0.075-0.198-0.282-0.39-0.462-0.546
											c-0.18-0.148-0.345-0.262-0.352-0.266v-0.007l-15.209-9.986l-0.007-0.01l-0.091-0.052
											c-0.879-0.502-1.923-0.576-2.661-0.417c-0.017,0.002-0.034,0.005-0.051,0.01l-18.835,4.709l-0.012,0.007
											c-0.351,0.102-0.692,0.222-1.014,0.367C288.72,138.903,288.609,138.963,288.498,139.023"/>
									</g>
								</g>
							</g>
						</g>
					</g>
				</g>
			</g>
		</g>
	</g>
	<path id="Shimmer_2_" opacity="0.3" fill="#FFFFFF" d="M29.467,84.618c0.439-1.228,1.987-2.023,1.987-2.023l132.348-66.202
		c3.24-1.622,6.365-1.497,9.209-0.079l245.644,151.847L29.467,84.618z"/>
</g>
</svg>
