<?xml version="1.0" encoding="utf-8"?>
<!-- Generator: Adobe Illustrator 14.0.0, SVG Export Plug-In . SVG Version: 6.00 Build 43363)  -->
<!DOCTYPE svg PUBLIC "-//W3C//DTD SVG 1.1//EN" "http://www.w3.org/Graphics/SVG/1.1/DTD/svg11.dtd">
<svg version="1.1" xmlns="http://www.w3.org/2000/svg" xmlns:xlink="http://www.w3.org/1999/xlink" x="0px" y="0px" width="128px"
	 height="128px" viewBox="0 0 128 128" enable-background="new 0 0 128 128" xml:space="preserve">
<g id="Grid_Lines">
</g>
<g id="Border">
	<rect x="3.522" y="3.528" fill="none" stroke="#8FADC5" stroke-width="7" width="120.981" height="120.945"/>
</g>
<g id="Icon">
	<g>
		<path fill="#C1CFE2" d="M20.811,45.42c8.188-4.688,43.208-22.771,47.875-25.104c10.667,0.583,9.5,39.75,12.833,48.667
			c-8.205,5.481-33.333,21.917-43.75,29.584c-0.519,0.159-1.647-0.595-2.083-0.917c-6.083-17.167-6.833-43.417-15.313-49.479
			C18.623,46.982,20.471,45.864,20.811,45.42z"/>
		<path fill="#9DB2CB" d="M20.811,45.42c-1.234,0.828-1.594,1.984-0.438,2.75c8.563,5.813,9.938,35.563,15.313,49.479
			c0.859,0.049,0.875,0.708,2.083,0.917C28.811,71.274,31.52,52.441,20.811,45.42z"/>
		<path fill="#92A7C1" d="M20.811,45.42c6.844,4.938,6.973,10.238,8.414,15.554c7.545-4.408,38.045-21.491,47.507-26.468
			c-0.379-3.857-3.171-13.773-8.046-14.19C61.496,23.991,24.873,42.545,20.811,45.42z"/>
		<path fill="#8093AA" d="M20.373,48.17c-1.479-1.042-0.104-2.438,0.438-2.75c5.875,3.917,7.231,9.664,8.414,15.554
			c-0.309,0.429-1.661,0.45-2.106,0.167C26.561,58.17,22.894,49.232,20.373,48.17z"/>
		<path fill="#92A7C1" d="M32.625,62c1.009,4.063,1.583,8.375,2.361,12.876c5.848-3.529,37.491-21.062,41.139-23.126
			c0.404-1.226-0.709-10.285-1.328-13.25C67.613,42.719,36.333,59.833,32.625,62z"/>
		<path fill="#92A7C1" d="M35.625,77.563c0.812,4.712,2.144,11.375,3.708,16.486c5.247-4.141,35.706-23.377,38.979-25.798
			c0.362-1.438-1.609-10.461-2.034-14.176C69.138,58.622,38.952,75.021,35.625,77.563z"/>
	</g>
	<g>
		<path fill="#C2D8E9" d="M34.986,51.524c8.188-4.688,43.208-22.771,47.875-25.104c10.666,0.583,9.5,39.75,12.832,48.667
			c-8.205,5.48-33.333,21.916-43.75,29.584c-0.519,0.158-1.647-0.596-2.083-0.918c-6.083-17.166-6.833-43.417-15.313-49.479
			C32.798,53.087,34.646,51.968,34.986,51.524z"/>
		<path fill="#9BB9D2" d="M34.986,51.524c-1.234,0.828-1.594,1.984-0.438,2.75c8.563,5.813,9.938,35.563,15.313,49.479
			c0.859,0.049,0.875,0.709,2.083,0.918C42.986,77.379,45.695,58.546,34.986,51.524z"/>
		<path fill="#8FADC5" d="M34.986,51.524c6.844,4.938,6.973,10.238,8.414,15.554c7.545-4.409,38.045-21.491,47.506-26.468
			c-0.379-3.857-3.17-13.773-8.045-14.19C75.672,30.096,39.048,48.649,34.986,51.524z"/>
		<path fill="#7A94A8" d="M34.548,54.274c-1.479-1.042-0.104-2.438,0.438-2.75c5.875,3.917,7.264,9.449,8.414,15.554
			c-0.309,0.43-1.661,0.451-2.106,0.168C40.736,64.275,37.069,55.337,34.548,54.274z"/>
		<path fill="#8FADC5" d="M47.265,67.595c-0.147,0.348,0.082,1.3,0.43,1.447c5.846-2.912,22.847-11.833,27.069-14.131
			c0.132-0.341-0.159-1.243-0.5-1.375C67.233,56.759,50.917,65.834,47.265,67.595z"/>
		<path fill="#8FADC5" d="M48.771,72.584c-0.148,0.333,0.021,1.266,0.354,1.416c5.75-2.653,23.25-11.625,27.5-14.548
			c0.126-0.332-0.168-1.202-0.5-1.327C70.75,61.289,52.781,70.316,48.771,72.584z"/>
		
			<ellipse transform="matrix(0.9536 -0.3012 0.3012 0.9536 -22.1166 22.3715)" fill="#8FADC5" cx="61.488" cy="82.906" rx="9.459" ry="8.089"/>
	</g>
	<g>
		<path fill="#C9E9ED" d="M49.125,55.438C57.313,50.75,92.333,32.667,97,30.333c10.667,0.583,9.5,39.75,12.833,48.667
			c-8.205,5.481-33.333,21.917-43.75,29.584c-0.519,0.159-1.647-0.595-2.083-0.917C57.917,90.5,57.167,64.25,48.688,58.188
			C46.938,57,48.785,55.881,49.125,55.438z"/>
		<path fill="#9CCBD7" d="M49.125,55.438c-1.234,0.828-1.594,1.984-0.438,2.75C57.25,64,58.625,93.75,64,107.667
			c0.859,0.049,0.875,0.708,2.083,0.917C57.125,81.292,59.833,62.459,49.125,55.438z"/>
		<path fill="#8EBAC5" d="M49.125,55.438c6.844,4.938,6.973,10.238,8.414,15.554c7.545-4.408,38.045-21.491,47.507-26.468
			c-0.379-3.857-3.171-13.773-8.046-14.19C89.811,34.009,53.188,52.563,49.125,55.438z"/>
		<path fill="#7296A0" d="M48.688,58.188c-1.719-1.094-0.104-2.438,0.438-2.75c6.417,4.015,7.19,10.541,8.414,15.554
			c-0.308,0.429-1.661,0.45-2.106,0.167C54.068,65.789,51.719,60.344,48.688,58.188z"/>
		<path fill="#B6DFEA" d="M93.063,54.875c1.229-0.792,9.229-6,9.979-5.417c1.666,1.75,1.25,15.833,4.375,28.208
			c-2.158,1.757-5.724,3.954-9.455,6.041C97.42,82.293,92.667,55.708,93.063,54.875z"/>
		<path fill="#9CCBD7" d="M94.292,55.667c2.042-1.042,5.263-3.416,7.708-4.458c1.292,0.583,1.333,10.08,1.959,13.042
			c-1.266,1.061-4.834,3.069-7.417,4C95.323,67.412,94.834,57.625,94.292,55.667z"/>
		<path fill="#8EBAC5" d="M88.866,57.834c1.551,3.75,2.196,9.952,2.321,11.916C86.091,73.129,69.75,82.292,64.75,84.959
			c-1.167-3.209-1.804-8.376-2.667-12.042C66.083,70.001,82.25,61.667,88.866,57.834z"/>
		<path fill="#8EBAC5" d="M90.833,73.334c0.23,0.082,0.417,0.688,0.334,0.917c-3.574,2.25-18.875,12.166-24.709,15.416
			c-0.193-0.006-0.385-1.015-0.375-1.208C71.375,85.459,87.834,74.876,90.833,73.334z"/>
		<path fill="#8EBAC5" d="M92.292,78.459c0.309-0.179,0.507,1.044,0.375,1.375c-4.098,2.546-21,12.667-24.5,14.792
			c-0.473-0.063-0.783-0.454-0.667-0.917C71.25,92.126,89.209,80.251,92.292,78.459z"/>
		<path fill="#8EBAC5" d="M93.5,84.042c0.35,0.12,0.878,1.221,0.542,1.375c-4.458,2.042-19.833,11.667-24.708,15
			c-0.424-0.081-0.5-0.66-0.417-1.083C73.125,96.792,91.584,85.626,93.5,84.042z"/>
		<path fill="#8EBAC5" d="M96.788,70.865c-0.109,0.207-0.078,0.818,0.129,0.927c2.694-1.18,6.38-3.245,7.666-3.833
			c0.126-0.203,0.203-0.832,0-0.958C102.183,68.251,98.017,70.266,96.788,70.865z"/>
		<path fill="#8EBAC5" d="M97.292,74.084c-0.078,0.192,0.058,0.712,0.25,0.792c1.771-0.813,6.599-3.376,7.666-3.959
			c0.104-0.209,0.047-0.813-0.162-0.916C103.172,71.188,98.969,73.334,97.292,74.084z"/>
		<path fill="#8EBAC5" d="M98.625,79.743c-0.101,0.171-0.171,0.691,0,0.792c2.208-0.979,6.083-3.042,7.625-4.208
			c0.068-0.158-0.009-0.601-0.167-0.667C104.792,76.368,99.583,79.306,98.625,79.743z"/>
		<path fill="#8EBAC5" d="M98.065,77.13c-0.101,0.171-0.171,0.691,0,0.792c2.208-0.979,6.083-3.042,7.625-4.208
			c0.068-0.158-0.009-0.601-0.167-0.667C104.232,73.755,99.023,76.692,98.065,77.13z"/>
	</g>
</g>
</svg>
