<?xml version="1.0" encoding="utf-8"?>
<!-- Generator: Adobe Illustrator 14.0.0, SVG Export Plug-In . SVG Version: 6.00 Build 43363)  -->
<!DOCTYPE svg PUBLIC "-//W3C//DTD SVG 1.1//EN" "http://www.w3.org/Graphics/SVG/1.1/DTD/svg11.dtd">
<svg version="1.1" id="Layer_1" xmlns="http://www.w3.org/2000/svg" xmlns:xlink="http://www.w3.org/1999/xlink" x="0px" y="0px"
	 width="273.035px" height="316.292px" viewBox="0 0 273.035 316.292" enable-background="new 0 0 273.035 316.292"
	 xml:space="preserve">
<path fill="#00969E" d="M136.486,215.755c-12.375-0.09-34.5-11.125-34.5-35.5c11.822-2.646,156.318-41.402,167-44.5
	c0-96.125-85.125-132.5-132.5-132.5c-48.281,0-133.674,34.5-132.5,140.5c9.875,0,71.375,0,98,0c0-39.125,22.498-42.794,36.5-42.5
	c13.527,0.285,33.5,11.875,33.5,34.5c-6.883,1.92-153.314,40.715-168,44.5c-0.012,70.422,54.375,132.5,134.5,132.5
	c46.875,0,130.5-32.125,130.5-139.5c-17.125,0-72.625,0-97,0C171.986,209.63,149.037,215.845,136.486,215.755z M187.236,188.755
	c17.918-6.584,61.251,4.084,67,0c0,46.875-43.125,109.5-116.5,109.5c-53,0-116.5-40.547-116.5-116.25c4.375,0,166-44.5,166-44.5
	c0-36.463-29.625-51.75-49.5-51.75c-26.381,0.063-49.974,20.62-49.5,41.5c-15.082-2.417-60.415,9.917-67,0
	c0-49.125,45.454-108.75,116.494-109c69.381,0,116.506,58.625,116.506,115.25l-166.5,45c0,34.875,26.621,52.172,50,52.25
	C159.482,230.677,187.236,214.041,187.236,188.755z"/>
</svg>
