<?xml version="1.0" encoding="utf-8"?>
<!-- Generator: Adobe Illustrator 14.0.0, SVG Export Plug-In . SVG Version: 6.00 Build 43363)  -->
<!DOCTYPE svg PUBLIC "-//W3C//DTD SVG 1.1//EN" "http://www.w3.org/Graphics/SVG/1.1/DTD/svg11.dtd">
<svg version="1.1" id="Layer_1" xmlns="http://www.w3.org/2000/svg" xmlns:xlink="http://www.w3.org/1999/xlink" x="0px" y="0px"
	 width="273.035px" height="316.292px" viewBox="0 0 273.035 316.292" enable-background="new 0 0 273.035 316.292"
	 xml:space="preserve">
<g>
	
		<image overflow="visible" opacity="0.75" enable-background="new    " width="284" height="328" xlink:href="AC020CEE.png"  transform="matrix(-1 0 0 1 278.5166 -3.8535)">
	</image>
	<g>
		<path fill="#00969E" d="M101.048,173.255c-24.375,0-79.875,0-97,0c0,107.375,83.625,139.5,130.5,139.5
			c80.125,0,134.512-62.078,134.5-132.5c-14.686-3.785-161.117-42.581-168-44.5c0-22.625,19.973-34.215,33.5-34.5
			c14.002-0.294,36.5,3.375,36.5,42.5c26.625,0,88.125,0,98,0c1.174-106-84.219-140.5-132.5-140.5
			c-47.375,0-132.5,36.375-132.5,132.5c10.682,3.098,155.178,41.854,167,44.5c0,24.375-22.125,35.41-34.5,35.5
			C123.997,215.845,101.048,209.63,101.048,173.255z M135.298,230.755c23.379-0.078,50-17.375,50-52.25l-166.5-45
			c0-56.625,47.125-115.25,116.506-115.25c71.04,0.25,116.494,59.875,116.494,109c-6.585,9.917-51.918-2.417-67,0
			c0.474-20.88-23.119-41.437-49.5-41.5c-19.875,0-49.5,15.287-49.5,51.75c0,0,161.625,44.5,166,44.5
			c0,75.703-63.5,116.25-116.5,116.25c-73.375,0-116.5-62.625-116.5-109.5c5.75,4.084,49.082-6.584,67,0
			C85.798,214.041,113.552,230.677,135.298,230.755z"/>
	</g>
</g>
</svg>
