<?xml version="1.0" encoding="utf-8"?>
<!-- Generator: Adobe Illustrator 14.0.0, SVG Export Plug-In . SVG Version: 6.00 Build 43363)  -->
<!DOCTYPE svg PUBLIC "-//W3C//DTD SVG 1.1//EN" "http://www.w3.org/Graphics/SVG/1.1/DTD/svg11.dtd">
<svg version="1.1" xmlns="http://www.w3.org/2000/svg" xmlns:xlink="http://www.w3.org/1999/xlink" x="0px" y="0px" width="300px"
	 height="300px" viewBox="0 0 300 300" enable-background="new 0 0 300 300" xml:space="preserve">
<g id="Background">
	<rect fill="#76A4D1" stroke="#76A4D1" width="300" height="300"/>
</g>
<g id="Waffle">
	<g>
		<polygon fill="none" points="166.667,74.666 152,60.332 138,74.666 152,88.666 		"/>
		<polygon fill="none" points="200.334,137.499 215.001,123.499 200.334,109.165 186.334,123.499 		"/>
		<polygon fill="none" points="176.249,113.166 190.916,99.166 176.249,84.832 162.249,99.166 		"/>
		<polygon fill="none" points="225,133.666 211,148 225,162 239.667,148 		"/>
		<path fill="#F5EE69" d="M152.333,40.333L44,148l108.333,107.333L260,148L152.333,40.333z M215.001,123.499l-14.667,14l-14-14
			l14-14.334L215.001,123.499z M142.082,148.082l-14.667,14l-14-14l14-14.334L142.082,148.082z M137.583,123.665l14-14.334
			l14.667,14.334l-14.667,14L137.583,123.665z M151.5,158.082l14.667,14.334l-14.667,14l-14-14L151.5,158.082z M161.668,147.999
			l14-14.334l14.667,14.334l-14.667,14L161.668,147.999z M190.916,99.166l-14.667,14l-14-14l14-14.334L190.916,99.166z M152,60.332
			l14.667,14.333l-14.667,14l-14-14L152,60.332z M127.334,84.832l14.667,14.333l-14.667,14l-14-14L127.334,84.832z M103.166,109.249
			l14.667,14.333l-14.667,14l-14-14L103.166,109.249z M64.5,148.082l14-14.333l14.667,14.333l-14.667,14L64.5,148.082z
			 M88.749,172.582l14-14.334l14.667,14.334l-14.667,14L88.749,172.582z M112.834,196.914l14-14.334l14.667,14.334l-14.667,14
			L112.834,196.914z M151.5,235.416l-14-14l14-14.334l14.667,14.334L151.5,235.416z M176.166,210.916l-14-14l14-14.334
			l14.667,14.334L176.166,210.916z M200.334,186.5l-14-14l14-14.334l14.667,14.334L200.334,186.5z M211,148l14-14.334L239.667,148
			L225,162L211,148z"/>
	</g>
</g>
</svg>
