<?xml version="1.0" encoding="UTF-8" standalone="no"?>
<!DOCTYPE svg PUBLIC "-//W3C//DTD SVG 1.1//EN"
 "http://www.w3.org/Graphics/SVG/1.1/DTD/svg11.dtd">
<!-- Generated by graphviz version 2.38.0 (20140413.2041)
 -->
<!-- Title: G Pages: 1 -->
<svg width="932pt" height="1098pt"
 viewBox="0.00 0.00 932.28 1098.00" xmlns="http://www.w3.org/2000/svg" xmlns:xlink="http://www.w3.org/1999/xlink">
<g id="graph0" class="graph" transform="scale(1 1) rotate(0) translate(4 1094)">
<title>G</title>
<polygon fill="white" stroke="none" points="-4,4 -4,-1094 928.277,-1094 928.277,4 -4,4"/>
<g id="clust1" class="cluster"><title>cluster_Global</title>
<path fill="none" stroke="gray" d="M20,-44C20,-44 904.277,-44 904.277,-44 910.277,-44 916.277,-50 916.277,-56 916.277,-56 916.277,-1070 916.277,-1070 916.277,-1076 910.277,-1082 904.277,-1082 904.277,-1082 20,-1082 20,-1082 14,-1082 8,-1076 8,-1070 8,-1070 8,-56 8,-56 8,-50 14,-44 20,-44"/>
<text text-anchor="middle" x="462.138" y="-1069.2" font-family="Times New Roman,serif" font-size="11.00" fill="gray">Global</text>
</g>
<g id="clust2" class="cluster"><title>cluster_\WAFFLE</title>
<path fill="none" stroke="gray" d="M28,-402C28,-402 896.277,-402 896.277,-402 902.277,-402 908.277,-408 908.277,-414 908.277,-414 908.277,-1042 908.277,-1042 908.277,-1048 902.277,-1054 896.277,-1054 896.277,-1054 28,-1054 28,-1054 22,-1054 16,-1048 16,-1042 16,-1042 16,-414 16,-414 16,-408 22,-402 28,-402"/>
<text text-anchor="middle" x="462.138" y="-1041.2" font-family="Times New Roman,serif" font-size="11.00" fill="gray">WAFFLE</text>
</g>
<g id="clust10" class="cluster"><title>cluster_\WAFFLE\Controllers</title>
<path fill="none" stroke="gray" d="M785.277,-954C785.277,-954 888.277,-954 888.277,-954 894.277,-954 900.277,-960 900.277,-966 900.277,-966 900.277,-1014 900.277,-1014 900.277,-1020 894.277,-1026 888.277,-1026 888.277,-1026 785.277,-1026 785.277,-1026 779.277,-1026 773.277,-1020 773.277,-1014 773.277,-1014 773.277,-966 773.277,-966 773.277,-960 779.277,-954 785.277,-954"/>
<text text-anchor="middle" x="836.777" y="-1013.2" font-family="Times New Roman,serif" font-size="11.00" fill="gray">Controllers</text>
</g>
<g id="clust3" class="cluster"><title>cluster_\WAFFLE\Framework</title>
<path fill="none" stroke="gray" d="M36,-410C36,-410 882.777,-410 882.777,-410 888.777,-410 894.777,-416 894.777,-422 894.777,-422 894.777,-934 894.777,-934 894.777,-940 888.777,-946 882.777,-946 882.777,-946 36,-946 36,-946 30,-946 24,-940 24,-934 24,-934 24,-422 24,-422 24,-416 30,-410 36,-410"/>
<text text-anchor="middle" x="459.388" y="-933.2" font-family="Times New Roman,serif" font-size="11.00" fill="gray">Framework</text>
</g>
<g id="clust7" class="cluster"><title>cluster_\WAFFLE\Framework\Assembly</title>
<path fill="none" stroke="gray" d="M798.777,-846C798.777,-846 874.777,-846 874.777,-846 880.777,-846 886.777,-852 886.777,-858 886.777,-858 886.777,-906 886.777,-906 886.777,-912 880.777,-918 874.777,-918 874.777,-918 798.777,-918 798.777,-918 792.777,-918 786.777,-912 786.777,-906 786.777,-906 786.777,-858 786.777,-858 786.777,-852 792.777,-846 798.777,-846"/>
<text text-anchor="middle" x="836.777" y="-905.2" font-family="Times New Roman,serif" font-size="11.00" fill="gray">Assembly</text>
</g>
<g id="clust9" class="cluster"><title>cluster_\WAFFLE\Framework\Adapters</title>
<path fill="none" stroke="gray" d="M813.777,-766C813.777,-766 859.777,-766 859.777,-766 865.777,-766 871.777,-772 871.777,-778 871.777,-778 871.777,-826 871.777,-826 871.777,-832 865.777,-838 859.777,-838 859.777,-838 813.777,-838 813.777,-838 807.777,-838 801.777,-832 801.777,-826 801.777,-826 801.777,-778 801.777,-778 801.777,-772 807.777,-766 813.777,-766"/>
<text text-anchor="middle" x="836.777" y="-825.2" font-family="Times New Roman,serif" font-size="11.00" fill="gray">Adapters</text>
</g>
<g id="clust6" class="cluster"><title>cluster_\WAFFLE\Framework\Interfaces</title>
<path fill="none" stroke="gray" d="M802.277,-632C802.277,-632 871.277,-632 871.277,-632 877.277,-632 883.277,-638 883.277,-644 883.277,-644 883.277,-746 883.277,-746 883.277,-752 877.277,-758 871.277,-758 871.277,-758 802.277,-758 802.277,-758 796.277,-758 790.277,-752 790.277,-746 790.277,-746 790.277,-644 790.277,-644 790.277,-638 796.277,-632 802.277,-632"/>
<text text-anchor="middle" x="836.777" y="-745.2" font-family="Times New Roman,serif" font-size="11.00" fill="gray">Interfaces</text>
</g>
<g id="clust8" class="cluster"><title>cluster_\WAFFLE\Framework\IO</title>
<path fill="none" stroke="gray" d="M44,-552C44,-552 606.638,-552 606.638,-552 612.638,-552 618.638,-558 618.638,-564 618.638,-564 618.638,-666 618.638,-666 618.638,-672 612.638,-678 606.638,-678 606.638,-678 44,-678 44,-678 38,-678 32,-672 32,-666 32,-666 32,-564 32,-564 32,-558 38,-552 44,-552"/>
<text text-anchor="middle" x="325.319" y="-665.2" font-family="Times New Roman,serif" font-size="11.00" fill="gray">IO</text>
</g>
<g id="clust4" class="cluster"><title>cluster_\WAFFLE\Framework\Encryption</title>
<path fill="none" stroke="gray" d="M798.777,-552C798.777,-552 874.777,-552 874.777,-552 880.777,-552 886.777,-558 886.777,-564 886.777,-564 886.777,-612 886.777,-612 886.777,-618 880.777,-624 874.777,-624 874.777,-624 798.777,-624 798.777,-624 792.777,-624 786.777,-618 786.777,-612 786.777,-612 786.777,-564 786.777,-564 786.777,-558 792.777,-552 798.777,-552"/>
<text text-anchor="middle" x="836.777" y="-611.2" font-family="Times New Roman,serif" font-size="11.00" fill="gray">Encryption</text>
</g>
<g id="clust5" class="cluster"><title>cluster_\WAFFLE\Framework\Engines</title>
<path fill="none" stroke="gray" d="M540.638,-418C540.638,-418 874.777,-418 874.777,-418 880.777,-418 886.777,-424 886.777,-430 886.777,-430 886.777,-532 886.777,-532 886.777,-538 880.777,-544 874.777,-544 874.777,-544 540.638,-544 540.638,-544 534.638,-544 528.638,-538 528.638,-532 528.638,-532 528.638,-430 528.638,-430 528.638,-424 534.638,-418 540.638,-418"/>
<text text-anchor="middle" x="707.708" y="-531.2" font-family="Times New Roman,serif" font-size="11.00" fill="gray">Engines</text>
</g>
<g id="clust12" class="cluster"><title>cluster_\UnitTests</title>
<path fill="none" stroke="gray" d="M785.277,-52C785.277,-52 888.277,-52 888.277,-52 894.277,-52 900.277,-58 900.277,-64 900.277,-64 900.277,-382 900.277,-382 900.277,-388 894.277,-394 888.277,-394 888.277,-394 785.277,-394 785.277,-394 779.277,-394 773.277,-388 773.277,-382 773.277,-382 773.277,-64 773.277,-64 773.277,-58 779.277,-52 785.277,-52"/>
<text text-anchor="middle" x="836.777" y="-381.2" font-family="Times New Roman,serif" font-size="11.00" fill="gray">UnitTests</text>
</g>
<!-- \\WAFFLE\\Framework\\Encryption\\Cipher -->
<g id="node1" class="node"><title>\\WAFFLE\\Framework\\Encryption\\Cipher</title>
<polygon fill="none" stroke="black" points="878.777,-596 794.777,-596 794.777,-560 878.777,-560 878.777,-596"/>
<text text-anchor="start" x="802.777" y="-581.2" font-family="Courier,monospace" font-size="11.00">«abstract»</text>
<text text-anchor="start" x="816.277" y="-569.2" font-family="Courier,monospace" font-size="11.00">Cipher</text>
</g>
<!-- \\WAFFLE\\Framework\\Engines\\HTML -->
<g id="node2" class="node"><title>\\WAFFLE\\Framework\\Engines\\HTML</title>
<polygon fill="none" stroke="black" points="620.638,-462 536.638,-462 536.638,-426 620.638,-426 620.638,-462"/>
<text text-anchor="start" x="544.638" y="-447.2" font-family="Courier,monospace" font-size="11.00">«abstract»</text>
<text text-anchor="start" x="564.638" y="-435.2" font-family="Courier,monospace" font-size="11.00">HTML</text>
</g>
<!-- \\WAFFLE\\Framework\\Engines\\Bootstrap -->
<g id="node3" class="node"><title>\\WAFFLE\\Framework\\Engines\\Bootstrap</title>
<polygon fill="none" stroke="black" points="878.777,-462 794.777,-462 794.777,-426 878.777,-426 878.777,-462"/>
<text text-anchor="start" x="802.777" y="-447.2" font-family="Courier,monospace" font-size="11.00">«abstract»</text>
<text text-anchor="start" x="806.277" y="-435.2" font-family="Courier,monospace" font-size="11.00">Bootstrap</text>
</g>
<!-- \\WAFFLE\\Framework\\Engines\\Bootstrap&#45;&gt;\\WAFFLE\\Framework\\Engines\\HTML -->
<g id="edge3" class="edge"><title>\\WAFFLE\\Framework\\Engines\\Bootstrap&#45;&gt;\\WAFFLE\\Framework\\Engines\\HTML</title>
<path fill="none" stroke="black" d="M794.624,-444C750.093,-444 679.017,-444 630.893,-444"/>
<polygon fill="none" stroke="black" points="630.689,-440.5 620.689,-444 630.689,-447.5 630.689,-440.5"/>
</g>
<!-- \\WAFFLE\\Framework\\Engines\\Template -->
<g id="node4" class="node"><title>\\WAFFLE\\Framework\\Engines\\Template</title>
<polygon fill="none" stroke="black" points="872.277,-516 801.277,-516 801.277,-480 872.277,-480 872.277,-516"/>
<text text-anchor="middle" x="836.777" y="-495.2" font-family="Courier,monospace" font-size="11.00">Template</text>
</g>
<!-- \\WAFFLE\\Framework\\IO\\Preload -->
<g id="node12" class="node"><title>\\WAFFLE\\Framework\\IO\\Preload</title>
<polygon fill="none" stroke="black" points="610.638,-596 546.638,-596 546.638,-560 610.638,-560 610.638,-596"/>
<text text-anchor="middle" x="578.638" y="-575.2" font-family="Courier,monospace" font-size="11.00">Preload</text>
</g>
<!-- \\WAFFLE\\Framework\\Engines\\Template&#45;&gt;\\WAFFLE\\Framework\\IO\\Preload -->
<g id="edge4" class="edge"><title>\\WAFFLE\\Framework\\Engines\\Template&#45;&gt;\\WAFFLE\\Framework\\IO\\Preload</title>
<path fill="none" stroke="black" d="M801.108,-513.325C775.965,-524.037 740.955,-538.134 709.277,-548 680.198,-557.056 646.689,-564.741 621.023,-570.065"/>
<polygon fill="none" stroke="black" points="619.994,-566.703 610.894,-572.129 621.391,-573.562 619.994,-566.703"/>
</g>
<!-- \\WAFFLE\\Framework\\Interfaces\\iTemplate -->
<g id="node5" class="node"><title>\\WAFFLE\\Framework\\Interfaces\\iTemplate</title>
<polygon fill="none" stroke="black" points="875.277,-730 798.277,-730 798.277,-694 875.277,-694 875.277,-730"/>
<text text-anchor="middle" x="836.777" y="-709.2" font-family="Courier,monospace" font-size="11.00">iTemplate</text>
</g>
<!-- \\WAFFLE\\Framework\\Interfaces\\iHTML -->
<g id="node6" class="node"><title>\\WAFFLE\\Framework\\Interfaces\\iHTML</title>
<polygon fill="none" stroke="black" points="863.777,-676 809.777,-676 809.777,-640 863.777,-640 863.777,-676"/>
<text text-anchor="middle" x="836.777" y="-655.2" font-family="Courier,monospace" font-size="11.00">iHTML</text>
</g>
<!-- \\WAFFLE\\Framework\\Assembly\\Collection -->
<g id="node7" class="node"><title>\\WAFFLE\\Framework\\Assembly\\Collection</title>
<polygon fill="none" stroke="black" points="878.777,-890 794.777,-890 794.777,-854 878.777,-854 878.777,-890"/>
<text text-anchor="middle" x="836.777" y="-869.2" font-family="Courier,monospace" font-size="11.00">Collection</text>
</g>
<!-- \\WAFFLE\\Framework\\IO\\File -->
<g id="node8" class="node"><title>\\WAFFLE\\Framework\\IO\\File</title>
<polygon fill="none" stroke="black" points="605.638,-650 551.638,-650 551.638,-614 605.638,-614 605.638,-650"/>
<text text-anchor="middle" x="578.638" y="-629.2" font-family="Courier,monospace" font-size="11.00">File</text>
</g>
<!-- \\WAFFLE\\Framework\\IO\\Validation -->
<g id="node11" class="node"><title>\\WAFFLE\\Framework\\IO\\Validation</title>
<polygon fill="none" stroke="black" points="376,-650 292,-650 292,-614 376,-614 376,-650"/>
<text text-anchor="middle" x="334" y="-629.2" font-family="Courier,monospace" font-size="11.00">Validation</text>
</g>
<!-- \\WAFFLE\\Framework\\IO\\File&#45;&gt;\\WAFFLE\\Framework\\IO\\Validation -->
<g id="edge7" class="edge"><title>\\WAFFLE\\Framework\\IO\\File&#45;&gt;\\WAFFLE\\Framework\\IO\\Validation</title>
<path fill="none" stroke="black" d="M551.21,-632C511.796,-632 436.858,-632 386.407,-632"/>
<polygon fill="none" stroke="black" points="386.348,-628.5 376.348,-632 386.348,-635.5 386.348,-628.5"/>
</g>
<!-- \\WAFFLE\\Framework\\IO\\Error -->
<g id="node9" class="node"><title>\\WAFFLE\\Framework\\IO\\Error</title>
<polygon fill="none" stroke="black" points="220,-650 166,-650 166,-614 220,-614 220,-650"/>
<text text-anchor="middle" x="193" y="-629.2" font-family="Courier,monospace" font-size="11.00">Error</text>
</g>
<!-- \\WAFFLE\\Framework\\IO\\Log -->
<g id="node10" class="node"><title>\\WAFFLE\\Framework\\IO\\Log</title>
<polygon fill="none" stroke="black" points="94,-650 40,-650 40,-614 94,-614 94,-650"/>
<text text-anchor="middle" x="67" y="-629.2" font-family="Courier,monospace" font-size="11.00">Log</text>
</g>
<!-- \\WAFFLE\\Framework\\IO\\Error&#45;&gt;\\WAFFLE\\Framework\\IO\\Log -->
<g id="edge8" class="edge"><title>\\WAFFLE\\Framework\\IO\\Error&#45;&gt;\\WAFFLE\\Framework\\IO\\Log</title>
<path fill="none" stroke="black" d="M165.703,-632C147.865,-632 124.047,-632 104.393,-632"/>
<polygon fill="none" stroke="black" points="104.259,-628.5 94.2593,-632 104.259,-635.5 104.259,-628.5"/>
</g>
<!-- \\WAFFLE\\Framework\\IO\\Validation&#45;&gt;\\WAFFLE\\Framework\\IO\\Error -->
<g id="edge11" class="edge"><title>\\WAFFLE\\Framework\\IO\\Validation&#45;&gt;\\WAFFLE\\Framework\\IO\\Error</title>
<path fill="none" stroke="black" d="M291.672,-632C272.181,-632 249.132,-632 230.32,-632"/>
<polygon fill="none" stroke="black" points="230.075,-628.5 220.075,-632 230.075,-635.5 230.075,-628.5"/>
</g>
<!-- \\WAFFLE\\Framework\\IO\\Preload&#45;&gt;\\WAFFLE\\Framework\\Engines\\Bootstrap -->
<g id="edge12" class="edge"><title>\\WAFFLE\\Framework\\IO\\Preload&#45;&gt;\\WAFFLE\\Framework\\Engines\\Bootstrap</title>
<path fill="none" stroke="black" d="M610.826,-576.372C638.495,-573.686 679.09,-566.607 709.277,-548 747.159,-524.65 737.652,-497.666 773.277,-471 777.097,-468.14 781.267,-465.511 785.582,-463.11"/>
<polygon fill="none" stroke="black" points="787.269,-466.178 794.574,-458.504 784.078,-459.948 787.269,-466.178"/>
</g>
<!-- \\WAFFLE\\Framework\\Adapters\\SQL -->
<g id="node13" class="node"><title>\\WAFFLE\\Framework\\Adapters\\SQL</title>
<polygon fill="none" stroke="black" points="863.777,-810 809.777,-810 809.777,-774 863.777,-774 863.777,-810"/>
<text text-anchor="middle" x="836.777" y="-789.2" font-family="Courier,monospace" font-size="11.00">SQL</text>
</g>
<!-- \\WAFFLE\\Controllers\\SessionManager -->
<g id="node14" class="node"><title>\\WAFFLE\\Controllers\\SessionManager</title>
<polygon fill="none" stroke="black" points="892.277,-998 781.277,-998 781.277,-962 892.277,-962 892.277,-998"/>
<text text-anchor="middle" x="836.777" y="-977.2" font-family="Courier,monospace" font-size="11.00">SessionManager</text>
</g>
<!-- \\UnitTests\\testTemplate -->
<g id="node15" class="node"><title>\\UnitTests\\testTemplate</title>
<polygon fill="none" stroke="black" points="885.777,-366 787.777,-366 787.777,-330 885.777,-330 885.777,-366"/>
<text text-anchor="middle" x="836.777" y="-345.2" font-family="Courier,monospace" font-size="11.00">testTemplate</text>
</g>
<!-- \\PHPUnit_Framework_TestCase -->
<g id="node21" class="node"><title>\\PHPUnit_Framework_TestCase</title>
<ellipse fill="none" stroke="black" cx="578.638" cy="-18" rx="130.777" ry="18"/>
<text text-anchor="middle" x="578.638" y="-14.3" font-family="Times New Roman,serif" font-size="14.00" fill="gray">\PHPUnit_Framework_TestCase</text>
</g>
<!-- \\UnitTests\\testTemplate&#45;&gt;\\PHPUnit_Framework_TestCase -->
<g id="edge1" class="edge"><title>\\UnitTests\\testTemplate&#45;&gt;\\PHPUnit_Framework_TestCase</title>
<path fill="none" stroke="black" d="M787.603,-330.773C782.496,-327.924 777.598,-324.676 773.277,-321 679.111,-240.883 614.754,-103.389 590.44,-45.2395"/>
<polygon fill="none" stroke="black" points="593.667,-43.8852 586.624,-35.9705 587.194,-46.55 593.667,-43.8852"/>
</g>
<!-- \\UnitTests\\testValidation -->
<g id="node16" class="node"><title>\\UnitTests\\testValidation</title>
<polygon fill="none" stroke="black" points="892.277,-312 781.277,-312 781.277,-276 892.277,-276 892.277,-312"/>
<text text-anchor="middle" x="836.777" y="-291.2" font-family="Courier,monospace" font-size="11.00">testValidation</text>
</g>
<!-- \\UnitTests\\testValidation&#45;&gt;\\PHPUnit_Framework_TestCase -->
<g id="edge2" class="edge"><title>\\UnitTests\\testValidation&#45;&gt;\\PHPUnit_Framework_TestCase</title>
<path fill="none" stroke="black" d="M786.963,-275.846C782.141,-273.202 777.483,-270.256 773.277,-267 690.289,-202.752 623.032,-95.1494 594.463,-45.1124"/>
<polygon fill="none" stroke="black" points="597.387,-43.1737 589.427,-36.1822 591.29,-46.612 597.387,-43.1737"/>
</g>
<!-- \\UnitTests\\testFile -->
<g id="node17" class="node"><title>\\UnitTests\\testFile</title>
<polygon fill="none" stroke="black" points="872.277,-258 801.277,-258 801.277,-222 872.277,-222 872.277,-258"/>
<text text-anchor="middle" x="836.777" y="-237.2" font-family="Courier,monospace" font-size="11.00">testFile</text>
</g>
<!-- \\UnitTests\\testFile&#45;&gt;\\PHPUnit_Framework_TestCase -->
<g id="edge5" class="edge"><title>\\UnitTests\\testFile&#45;&gt;\\PHPUnit_Framework_TestCase</title>
<path fill="none" stroke="black" d="M801.135,-227.809C791.714,-223.766 781.774,-218.792 773.277,-213 700.806,-163.596 632.564,-84.5901 599.849,-43.973"/>
<polygon fill="none" stroke="black" points="602.577,-41.78 593.603,-36.1471 597.105,-46.1464 602.577,-41.78"/>
</g>
<!-- \\UnitTests\\testHTML -->
<g id="node18" class="node"><title>\\UnitTests\\testHTML</title>
<polygon fill="none" stroke="black" points="872.277,-204 801.277,-204 801.277,-168 872.277,-168 872.277,-204"/>
<text text-anchor="middle" x="836.777" y="-183.2" font-family="Courier,monospace" font-size="11.00">testHTML</text>
</g>
<!-- \\UnitTests\\testHTML&#45;&gt;\\PHPUnit_Framework_TestCase -->
<g id="edge6" class="edge"><title>\\UnitTests\\testHTML&#45;&gt;\\PHPUnit_Framework_TestCase</title>
<path fill="none" stroke="black" d="M801.052,-172.619C791.824,-168.629 782.003,-163.98 773.277,-159 711.324,-123.645 645.46,-72.3673 608.739,-42.3766"/>
<polygon fill="none" stroke="black" points="610.87,-39.5977 600.921,-35.9533 606.426,-45.0061 610.87,-39.5977"/>
</g>
<!-- \\UnitTests\\testPreload -->
<g id="node19" class="node"><title>\\UnitTests\\testPreload</title>
<polygon fill="none" stroke="black" points="882.277,-150 791.277,-150 791.277,-114 882.277,-114 882.277,-150"/>
<text text-anchor="middle" x="836.777" y="-129.2" font-family="Courier,monospace" font-size="11.00">testPreload</text>
</g>
<!-- \\UnitTests\\testPreload&#45;&gt;\\PHPUnit_Framework_TestCase -->
<g id="edge9" class="edge"><title>\\UnitTests\\testPreload&#45;&gt;\\PHPUnit_Framework_TestCase</title>
<path fill="none" stroke="black" d="M793.716,-113.929C786.877,-110.962 779.875,-107.907 773.277,-105 723.375,-83.0124 666.472,-57.3787 627.33,-39.6586"/>
<polygon fill="none" stroke="black" points="628.33,-36.2692 617.776,-35.3311 625.441,-42.6455 628.33,-36.2692"/>
</g>
<!-- \\UnitTests\\testBootstrap -->
<g id="node20" class="node"><title>\\UnitTests\\testBootstrap</title>
<polygon fill="none" stroke="black" points="888.777,-96 784.777,-96 784.777,-60 888.777,-60 888.777,-96"/>
<text text-anchor="middle" x="836.777" y="-75.2" font-family="Courier,monospace" font-size="11.00">testBootstrap</text>
</g>
<!-- \\UnitTests\\testBootstrap&#45;&gt;\\PHPUnit_Framework_TestCase -->
<g id="edge10" class="edge"><title>\\UnitTests\\testBootstrap&#45;&gt;\\PHPUnit_Framework_TestCase</title>
<path fill="none" stroke="black" d="M784.559,-66.0023C747.661,-57.3591 697.258,-45.5522 655.674,-35.8112"/>
<polygon fill="none" stroke="black" points="656.389,-32.384 645.854,-33.5109 654.792,-39.1995 656.389,-32.384"/>
</g>
</g>
</svg>
